M48
; DRILL file {KiCad 8.0.7-8.0.7-0~ubuntu24.04.1} date 2025-01-10T15:07:27-0600
; FORMAT={-:-/ absolute / inch / decimal}
; #@! TF.CreationDate,2025-01-10T15:07:27-06:00
; #@! TF.GenerationSoftware,Kicad,Pcbnew,8.0.7-8.0.7-0~ubuntu24.04.1
; #@! TF.FileFunction,Plated,1,2,PTH
FMAT,2
INCH
; #@! TA.AperFunction,Plated,PTH,ViaDrill
T1C0.0118
; #@! TA.AperFunction,Plated,PTH,ComponentDrill
T2C0.0276
; #@! TA.AperFunction,Plated,PTH,ComponentDrill
T3C0.0354
; #@! TA.AperFunction,Plated,PTH,ComponentDrill
T4C0.0394
%
G90
G05
T1
X4.4138Y-3.8854
X5.15Y-3.7945
X5.152Y-3.8937
T3
X4.0811Y-3.3126
X4.1811Y-3.3126
X4.2173Y-3.8988
X4.3173Y-3.8988
X4.5528Y-3.0016
X4.6039Y-4.3272
X4.6528Y-3.0016
X4.7039Y-4.3272
X5.0667Y-4.7323
X5.0685Y-3.448
X5.1667Y-4.7323
X5.1685Y-3.448
X5.524Y-4.315
X5.5866Y-3.0024
X5.624Y-4.315
X5.6866Y-3.0024
X5.9134Y-3.8996
X6.0134Y-3.8996
X6.0492Y-3.3126
X6.1492Y-3.3126
T4
X5.3642Y-3.1445
X5.3642Y-3.2626
X5.3642Y-3.3807
T2
G00X5.3858Y-3.0323
M15
G01X5.3425Y-3.0323
M16
G05
G00X5.3858Y-3.4929
M15
G01X5.3425Y-3.4929
M16
G05
M30
