%TF.GenerationSoftware,KiCad,Pcbnew,8.0.7-8.0.7-0~ubuntu24.04.1*%
%TF.CreationDate,2025-01-10T15:07:08-06:00*%
%TF.ProjectId,HeartLEDChaser_PCB,48656172-744c-4454-9443-68617365725f,rev?*%
%TF.SameCoordinates,Original*%
%TF.FileFunction,Legend,Bot*%
%TF.FilePolarity,Positive*%
%FSLAX46Y46*%
G04 Gerber Fmt 4.6, Leading zero omitted, Abs format (unit mm)*
G04 Created by KiCad (PCBNEW 8.0.7-8.0.7-0~ubuntu24.04.1) date 2025-01-10 15:07:08*
%MOMM*%
%LPD*%
G01*
G04 APERTURE LIST*
%ADD10C,0.100000*%
%ADD11C,0.150000*%
%ADD12C,0.080000*%
%ADD13C,0.250000*%
%ADD14C,0.120000*%
%ADD15C,0.152400*%
G04 APERTURE END LIST*
D10*
G36*
X111751612Y-90091928D02*
G01*
X111784533Y-90096942D01*
X111813274Y-90107355D01*
X111841003Y-90125868D01*
X111860788Y-90147852D01*
X111872398Y-90167029D01*
X111883732Y-90194122D01*
X111892233Y-90225666D01*
X111897153Y-90255353D01*
X111900104Y-90288131D01*
X111901088Y-90324000D01*
X111900757Y-90345486D01*
X111898734Y-90378845D01*
X111894872Y-90409142D01*
X111887811Y-90441455D01*
X111878101Y-90469358D01*
X111863426Y-90496338D01*
X111858529Y-90502957D01*
X111835516Y-90525163D01*
X111807027Y-90540537D01*
X111777606Y-90548384D01*
X111743991Y-90551000D01*
X111717278Y-90549272D01*
X111687525Y-90542470D01*
X111658702Y-90529164D01*
X111639758Y-90515247D01*
X111618394Y-90491607D01*
X111602721Y-90464831D01*
X111601842Y-90464831D01*
X111601842Y-90544258D01*
X111603440Y-90574449D01*
X111609933Y-90606527D01*
X111624317Y-90636717D01*
X111645894Y-90657851D01*
X111674663Y-90669927D01*
X111704131Y-90673072D01*
X111708800Y-90673005D01*
X111738312Y-90668786D01*
X111765240Y-90655926D01*
X111784474Y-90635263D01*
X111795575Y-90607273D01*
X111871339Y-90617678D01*
X111869773Y-90624320D01*
X111858370Y-90654580D01*
X111841014Y-90679916D01*
X111817704Y-90700330D01*
X111798006Y-90711579D01*
X111768867Y-90721982D01*
X111739366Y-90727395D01*
X111706475Y-90729199D01*
X111684429Y-90728453D01*
X111654143Y-90724534D01*
X111623027Y-90715716D01*
X111596456Y-90702326D01*
X111571653Y-90681425D01*
X111556812Y-90661861D01*
X111543378Y-90634869D01*
X111534124Y-90603390D01*
X111529518Y-90572835D01*
X111527983Y-90538983D01*
X111527983Y-90323121D01*
X111601842Y-90323121D01*
X111601856Y-90326513D01*
X111603556Y-90358782D01*
X111608090Y-90388045D01*
X111616350Y-90416764D01*
X111621138Y-90428487D01*
X111636401Y-90454682D01*
X111657383Y-90475968D01*
X111660731Y-90478417D01*
X111687964Y-90491748D01*
X111718932Y-90496191D01*
X111723863Y-90496125D01*
X111754506Y-90491942D01*
X111781214Y-90479192D01*
X111783952Y-90476970D01*
X111802564Y-90453551D01*
X111814040Y-90424824D01*
X111816479Y-90415060D01*
X111821508Y-90383865D01*
X111823794Y-90353602D01*
X111824445Y-90323121D01*
X111824347Y-90311463D01*
X111822879Y-90279029D01*
X111818939Y-90246008D01*
X111811499Y-90214625D01*
X111799385Y-90187420D01*
X111797779Y-90184913D01*
X111776071Y-90162594D01*
X111746951Y-90149902D01*
X111717613Y-90146680D01*
X111707703Y-90147095D01*
X111677593Y-90154468D01*
X111651976Y-90171057D01*
X111632763Y-90193868D01*
X111627237Y-90202997D01*
X111615158Y-90230364D01*
X111606945Y-90262128D01*
X111602929Y-90293528D01*
X111601842Y-90323121D01*
X111527983Y-90323121D01*
X111527983Y-90194307D01*
X111527871Y-90165590D01*
X111527321Y-90132595D01*
X111525638Y-90100811D01*
X111596127Y-90100811D01*
X111596942Y-90104713D01*
X111599497Y-90134224D01*
X111600045Y-90144308D01*
X111601109Y-90174670D01*
X111602281Y-90174670D01*
X111612576Y-90155821D01*
X111631728Y-90131874D01*
X111655331Y-90113121D01*
X111675594Y-90102637D01*
X111705640Y-90093995D01*
X111736224Y-90091432D01*
X111751612Y-90091928D01*
G37*
G36*
X111148869Y-90492528D02*
G01*
X110992212Y-90492528D01*
X110992212Y-90551000D01*
X111396971Y-90551000D01*
X111396971Y-90492528D01*
X111223021Y-90492528D01*
X111223021Y-90159283D01*
X111354473Y-90159283D01*
X111354473Y-90100811D01*
X111148869Y-90100811D01*
X111148869Y-90492528D01*
G37*
G36*
X111231228Y-90020504D02*
G01*
X111231228Y-89941369D01*
X111148869Y-89941369D01*
X111148869Y-90020504D01*
X111231228Y-90020504D01*
G37*
G36*
X110873510Y-90159283D02*
G01*
X110873510Y-90100811D01*
X110803314Y-90100811D01*
X110779427Y-89988264D01*
X110730041Y-89988264D01*
X110730041Y-90100811D01*
X110551988Y-90100811D01*
X110551988Y-90159283D01*
X110730041Y-90159283D01*
X110730041Y-90433763D01*
X110725120Y-90464228D01*
X110712602Y-90483002D01*
X110685724Y-90495918D01*
X110655010Y-90498976D01*
X110622994Y-90497863D01*
X110592959Y-90495005D01*
X110561440Y-90490389D01*
X110532644Y-90484907D01*
X110532644Y-90541474D01*
X110563042Y-90548840D01*
X110593328Y-90554397D01*
X110623501Y-90558145D01*
X110653563Y-90560083D01*
X110670690Y-90560378D01*
X110701950Y-90558583D01*
X110732148Y-90552272D01*
X110759528Y-90539930D01*
X110770781Y-90531655D01*
X110789804Y-90507960D01*
X110800245Y-90479567D01*
X110804063Y-90448434D01*
X110804193Y-90440797D01*
X110804193Y-90159283D01*
X110873510Y-90159283D01*
G37*
G36*
X110371444Y-89941369D02*
G01*
X110296852Y-89941369D01*
X110296852Y-90097147D01*
X110297768Y-90128618D01*
X110299460Y-90159393D01*
X110300516Y-90175842D01*
X110299344Y-90175842D01*
X110281212Y-90147156D01*
X110259350Y-90124405D01*
X110233759Y-90107589D01*
X110204437Y-90096708D01*
X110171385Y-90091762D01*
X110159539Y-90091432D01*
X110125742Y-90093914D01*
X110096451Y-90101361D01*
X110066174Y-90117650D01*
X110042939Y-90141695D01*
X110026744Y-90173497D01*
X110018858Y-90204524D01*
X110015479Y-90240514D01*
X110015338Y-90250288D01*
X110015338Y-90551000D01*
X110089930Y-90551000D01*
X110089930Y-90260692D01*
X110091645Y-90231027D01*
X110098402Y-90201067D01*
X110111618Y-90176282D01*
X110135405Y-90157449D01*
X110166333Y-90149404D01*
X110180495Y-90148732D01*
X110210671Y-90152424D01*
X110239733Y-90165014D01*
X110262396Y-90184214D01*
X110264466Y-90186540D01*
X110281699Y-90212804D01*
X110291752Y-90240944D01*
X110296635Y-90273350D01*
X110297145Y-90289122D01*
X110297145Y-90551000D01*
X110371444Y-90551000D01*
X110371444Y-89941369D01*
G37*
G36*
X109793028Y-90100811D02*
G01*
X109793028Y-90387308D01*
X109791773Y-90417423D01*
X109786676Y-90448060D01*
X109774187Y-90476250D01*
X109772951Y-90477873D01*
X109749169Y-90495104D01*
X109719095Y-90502193D01*
X109700704Y-90503079D01*
X109669709Y-90499487D01*
X109640607Y-90487238D01*
X109616734Y-90466296D01*
X109600428Y-90440373D01*
X109590916Y-90412025D01*
X109586567Y-90382838D01*
X109585812Y-90362688D01*
X109585812Y-90100811D01*
X109511221Y-90100811D01*
X109511221Y-90454866D01*
X109511102Y-90486363D01*
X109510598Y-90518247D01*
X109509031Y-90548580D01*
X109508729Y-90551000D01*
X109578778Y-90551000D01*
X109579511Y-90540009D01*
X109580537Y-90519639D01*
X109581632Y-90489027D01*
X109582002Y-90475968D01*
X109583175Y-90475968D01*
X109599976Y-90502186D01*
X109620242Y-90524943D01*
X109642379Y-90541327D01*
X109669856Y-90552937D01*
X109699099Y-90558871D01*
X109725910Y-90560378D01*
X109756145Y-90558611D01*
X109786079Y-90552264D01*
X109813865Y-90539606D01*
X109833328Y-90523449D01*
X109849763Y-90498874D01*
X109859856Y-90470646D01*
X109865202Y-90441017D01*
X109867294Y-90406788D01*
X109867327Y-90401523D01*
X109867327Y-90100811D01*
X109793028Y-90100811D01*
G37*
G36*
X109363210Y-90459408D02*
G01*
X109363329Y-90487533D01*
X109363913Y-90519854D01*
X109365701Y-90551000D01*
X109293893Y-90551000D01*
X109291695Y-90525207D01*
X109291054Y-90514757D01*
X109290230Y-90484614D01*
X109289351Y-90484614D01*
X109284468Y-90493789D01*
X109266847Y-90517761D01*
X109240649Y-90538996D01*
X109213361Y-90551426D01*
X109181611Y-90558529D01*
X109151744Y-90560378D01*
X109137444Y-90559862D01*
X109106552Y-90554640D01*
X109079125Y-90543793D01*
X109052021Y-90524511D01*
X109032016Y-90501614D01*
X109019942Y-90481751D01*
X109008154Y-90454082D01*
X108999313Y-90422228D01*
X108994197Y-90392489D01*
X108991127Y-90359844D01*
X108990176Y-90326785D01*
X109066748Y-90326785D01*
X109066845Y-90338011D01*
X109068305Y-90369466D01*
X109072222Y-90401944D01*
X109079618Y-90433497D01*
X109091660Y-90461900D01*
X109093247Y-90464586D01*
X109112424Y-90486763D01*
X109140461Y-90501306D01*
X109172260Y-90505570D01*
X109183631Y-90505199D01*
X109214047Y-90499635D01*
X109241344Y-90485622D01*
X109261800Y-90463365D01*
X109265083Y-90457894D01*
X109277235Y-90428898D01*
X109284437Y-90397109D01*
X109287958Y-90364650D01*
X109288911Y-90333379D01*
X109288802Y-90321949D01*
X109287161Y-90289864D01*
X109282761Y-90256612D01*
X109274451Y-90224123D01*
X109260921Y-90194600D01*
X109255353Y-90186403D01*
X109232569Y-90164902D01*
X109203289Y-90152360D01*
X109171381Y-90148732D01*
X109140466Y-90152839D01*
X109112906Y-90166845D01*
X109092100Y-90190790D01*
X109084796Y-90205200D01*
X109075685Y-90233525D01*
X109070313Y-90263628D01*
X109067639Y-90293382D01*
X109066748Y-90326785D01*
X108990176Y-90326785D01*
X108990104Y-90324293D01*
X108991521Y-90282678D01*
X108995771Y-90245157D01*
X109002855Y-90211729D01*
X109012773Y-90182394D01*
X109030404Y-90149647D01*
X109053073Y-90124178D01*
X109080779Y-90105986D01*
X109113523Y-90095071D01*
X109151304Y-90091432D01*
X109163571Y-90091754D01*
X109197439Y-90096580D01*
X109226907Y-90107196D01*
X109251974Y-90123604D01*
X109272643Y-90145802D01*
X109288911Y-90173791D01*
X109290669Y-90173791D01*
X109290561Y-90171493D01*
X109289407Y-90141584D01*
X109288911Y-90110923D01*
X109288911Y-89941369D01*
X109363210Y-89941369D01*
X109363210Y-90459408D01*
G37*
G36*
X108730865Y-90551000D02*
G01*
X108730865Y-90429073D01*
X108633998Y-90429073D01*
X108633998Y-90551000D01*
X108730865Y-90551000D01*
G37*
G36*
X108377543Y-90325466D02*
G01*
X108376244Y-90291480D01*
X108372348Y-90260050D01*
X108365855Y-90231173D01*
X108354633Y-90199894D01*
X108339672Y-90172293D01*
X108324347Y-90152102D01*
X108302734Y-90131484D01*
X108277794Y-90115131D01*
X108249525Y-90103045D01*
X108217927Y-90095224D01*
X108183002Y-90091669D01*
X108170621Y-90091432D01*
X108139064Y-90093185D01*
X108110045Y-90098445D01*
X108079989Y-90108749D01*
X108053249Y-90123632D01*
X108047083Y-90128069D01*
X108025073Y-90147889D01*
X108005852Y-90173953D01*
X107992497Y-90204004D01*
X107986852Y-90226254D01*
X108065987Y-90232116D01*
X108074610Y-90203700D01*
X108091200Y-90179048D01*
X108098960Y-90171739D01*
X108126304Y-90156612D01*
X108156529Y-90150389D01*
X108173991Y-90149611D01*
X108204354Y-90152185D01*
X108233322Y-90161233D01*
X108259065Y-90178927D01*
X108269392Y-90190790D01*
X108284056Y-90217905D01*
X108293062Y-90248780D01*
X108297831Y-90281026D01*
X108299609Y-90312549D01*
X108299727Y-90323854D01*
X108298666Y-90357043D01*
X108295482Y-90386708D01*
X108289085Y-90416864D01*
X108278236Y-90445454D01*
X108269539Y-90460141D01*
X108247216Y-90482784D01*
X108218168Y-90497041D01*
X108186273Y-90502702D01*
X108174431Y-90503079D01*
X108143182Y-90499864D01*
X108114213Y-90489126D01*
X108100718Y-90480218D01*
X108080581Y-90457653D01*
X108068518Y-90429739D01*
X108064375Y-90410316D01*
X107985973Y-90415445D01*
X107992719Y-90444880D01*
X108004822Y-90472295D01*
X108015868Y-90489450D01*
X108036469Y-90512380D01*
X108061563Y-90531271D01*
X108080788Y-90541621D01*
X108109703Y-90552300D01*
X108140835Y-90558547D01*
X108171060Y-90560378D01*
X108201436Y-90558912D01*
X108234780Y-90553279D01*
X108264734Y-90543421D01*
X108291297Y-90529339D01*
X108314471Y-90511032D01*
X108324787Y-90500295D01*
X108342716Y-90475797D01*
X108356935Y-90447476D01*
X108367445Y-90415333D01*
X108373370Y-90385627D01*
X108376719Y-90353266D01*
X108377543Y-90325466D01*
G37*
G36*
X107707893Y-90093498D02*
G01*
X107739188Y-90099696D01*
X107767422Y-90110026D01*
X107796495Y-90127299D01*
X107821402Y-90150197D01*
X107836389Y-90169932D01*
X107851021Y-90197354D01*
X107861995Y-90228857D01*
X107868345Y-90258226D01*
X107872156Y-90290429D01*
X107873426Y-90325466D01*
X107872631Y-90352867D01*
X107869403Y-90384846D01*
X107863693Y-90414299D01*
X107853562Y-90446309D01*
X107839856Y-90474681D01*
X107822575Y-90499415D01*
X107798131Y-90523170D01*
X107769424Y-90541089D01*
X107741425Y-90551806D01*
X107710293Y-90558235D01*
X107676029Y-90560378D01*
X107669974Y-90560319D01*
X107635524Y-90557489D01*
X107604299Y-90550414D01*
X107576300Y-90539093D01*
X107547710Y-90520520D01*
X107526699Y-90500002D01*
X107511796Y-90479821D01*
X107497247Y-90452137D01*
X107486335Y-90420672D01*
X107480020Y-90391563D01*
X107476231Y-90359827D01*
X107474968Y-90325466D01*
X107552784Y-90325466D01*
X107552898Y-90336573D01*
X107554616Y-90367772D01*
X107559224Y-90400146D01*
X107567925Y-90431839D01*
X107582093Y-90460727D01*
X107592097Y-90473646D01*
X107617451Y-90492914D01*
X107646362Y-90502768D01*
X107676908Y-90505570D01*
X107687776Y-90505167D01*
X107717259Y-90499120D01*
X107744524Y-90483890D01*
X107766008Y-90459702D01*
X107772946Y-90447538D01*
X107784047Y-90419255D01*
X107790725Y-90390179D01*
X107794569Y-90357065D01*
X107795610Y-90325466D01*
X107795494Y-90314570D01*
X107793760Y-90283911D01*
X107789106Y-90251983D01*
X107780318Y-90220561D01*
X107766008Y-90191669D01*
X107755878Y-90178582D01*
X107730616Y-90159062D01*
X107702178Y-90149080D01*
X107672365Y-90146240D01*
X107660830Y-90146632D01*
X107629920Y-90152505D01*
X107602073Y-90167297D01*
X107581067Y-90190790D01*
X107574438Y-90202608D01*
X107563832Y-90230543D01*
X107557452Y-90259690D01*
X107553778Y-90293226D01*
X107552784Y-90325466D01*
X107474968Y-90325466D01*
X107475400Y-90303899D01*
X107478036Y-90270291D01*
X107483070Y-90239602D01*
X107492275Y-90206630D01*
X107504932Y-90177861D01*
X107524061Y-90149611D01*
X107527170Y-90146031D01*
X107551758Y-90124158D01*
X107581282Y-90107852D01*
X107610518Y-90098307D01*
X107643381Y-90092853D01*
X107673538Y-90091432D01*
X107707893Y-90093498D01*
G37*
G36*
X107204152Y-90551000D02*
G01*
X107204152Y-90264503D01*
X107204784Y-90234754D01*
X107207351Y-90204369D01*
X107214263Y-90174524D01*
X107234666Y-90151779D01*
X107251046Y-90148732D01*
X107277522Y-90161436D01*
X107293691Y-90188885D01*
X107302952Y-90219767D01*
X107307670Y-90250056D01*
X107309703Y-90280776D01*
X107309958Y-90297475D01*
X107309958Y-90551000D01*
X107379713Y-90551000D01*
X107379713Y-90196945D01*
X107379833Y-90165447D01*
X107380336Y-90133564D01*
X107381903Y-90103230D01*
X107382205Y-90100811D01*
X107320802Y-90100811D01*
X107318311Y-90152249D01*
X107318311Y-90171739D01*
X107317431Y-90171739D01*
X107305939Y-90143431D01*
X107289875Y-90118583D01*
X107282114Y-90110630D01*
X107256247Y-90095650D01*
X107228478Y-90091432D01*
X107198464Y-90095779D01*
X107174256Y-90111216D01*
X107158796Y-90136348D01*
X107150011Y-90164646D01*
X107148464Y-90172179D01*
X107147585Y-90172179D01*
X107135539Y-90145134D01*
X107118004Y-90119328D01*
X107108311Y-90110043D01*
X107082409Y-90096085D01*
X107052602Y-90091450D01*
X107050425Y-90091432D01*
X107020249Y-90095675D01*
X106993025Y-90111628D01*
X106980816Y-90127336D01*
X106969688Y-90154707D01*
X106963753Y-90183838D01*
X106960723Y-90214601D01*
X106959734Y-90244888D01*
X106959713Y-90250288D01*
X106959713Y-90551000D01*
X107028883Y-90551000D01*
X107028883Y-90264503D01*
X107029515Y-90234754D01*
X107032082Y-90204369D01*
X107038995Y-90174524D01*
X107059461Y-90151779D01*
X107075924Y-90148732D01*
X107104192Y-90161131D01*
X107119009Y-90183903D01*
X107128019Y-90212138D01*
X107132610Y-90241422D01*
X107134588Y-90272123D01*
X107134836Y-90289122D01*
X107134836Y-90551000D01*
X107204152Y-90551000D01*
G37*
G36*
X106871786Y-90560378D02*
G01*
X106533412Y-89941369D01*
X106460139Y-89941369D01*
X106796755Y-90560378D01*
X106871786Y-90560378D01*
G37*
G36*
X111720983Y-91167283D02*
G01*
X111720983Y-91559000D01*
X111795136Y-91559000D01*
X111795136Y-91167283D01*
X111903140Y-91167283D01*
X111903140Y-91108811D01*
X111795136Y-91108811D01*
X111795136Y-91098846D01*
X111793235Y-91065578D01*
X111787534Y-91036812D01*
X111776365Y-91009449D01*
X111757865Y-90985695D01*
X111755422Y-90983515D01*
X111728815Y-90967009D01*
X111698139Y-90956872D01*
X111665873Y-90951503D01*
X111634187Y-90949503D01*
X111622798Y-90949369D01*
X111591987Y-90950065D01*
X111560905Y-90951982D01*
X111558757Y-90952154D01*
X111528606Y-90954938D01*
X111507027Y-90958016D01*
X111507027Y-91017806D01*
X111537895Y-91014630D01*
X111557145Y-91013263D01*
X111586594Y-91011560D01*
X111614152Y-91010772D01*
X111645556Y-91012247D01*
X111674645Y-91018114D01*
X111678925Y-91019711D01*
X111703407Y-91037336D01*
X111710872Y-91048874D01*
X111719315Y-91078346D01*
X111720983Y-91105001D01*
X111720983Y-91108811D01*
X111518604Y-91108811D01*
X111518604Y-91167283D01*
X111720983Y-91167283D01*
G37*
G36*
X111236348Y-91101544D02*
G01*
X111267866Y-91107881D01*
X111296180Y-91118443D01*
X111325162Y-91136104D01*
X111349783Y-91159516D01*
X111361804Y-91175306D01*
X111376831Y-91202014D01*
X111388251Y-91232349D01*
X111396065Y-91266311D01*
X111399822Y-91297383D01*
X111401074Y-91330974D01*
X111400257Y-91358761D01*
X111396936Y-91391169D01*
X111391060Y-91420994D01*
X111380638Y-91453374D01*
X111366537Y-91482035D01*
X111348757Y-91506976D01*
X111338553Y-91517949D01*
X111315770Y-91536658D01*
X111289825Y-91551049D01*
X111260716Y-91561123D01*
X111228444Y-91566879D01*
X111199134Y-91568378D01*
X111174624Y-91567441D01*
X111143996Y-91563273D01*
X111112342Y-91554600D01*
X111083656Y-91541707D01*
X111074828Y-91536473D01*
X111051542Y-91518296D01*
X111031298Y-91493750D01*
X111016978Y-91464624D01*
X111082044Y-91446452D01*
X111084237Y-91452108D01*
X111100803Y-91476947D01*
X111124689Y-91494959D01*
X111139171Y-91501868D01*
X111168744Y-91510197D01*
X111199134Y-91512691D01*
X111209719Y-91512319D01*
X111238908Y-91506735D01*
X111266826Y-91492673D01*
X111289993Y-91470339D01*
X111306002Y-91443955D01*
X111315835Y-91416200D01*
X111321527Y-91384398D01*
X111323112Y-91353249D01*
X111004961Y-91353249D01*
X111004961Y-91343138D01*
X111005742Y-91313478D01*
X111007320Y-91296390D01*
X111081605Y-91296390D01*
X111322379Y-91296390D01*
X111321005Y-91276381D01*
X111315754Y-91247239D01*
X111305359Y-91218680D01*
X111288234Y-91192196D01*
X111281987Y-91185413D01*
X111258242Y-91167621D01*
X111230003Y-91157243D01*
X111200746Y-91154240D01*
X111187676Y-91154796D01*
X111158280Y-91161042D01*
X111129192Y-91177700D01*
X111106853Y-91204353D01*
X111093392Y-91234199D01*
X111085999Y-91263073D01*
X111081605Y-91296390D01*
X111007320Y-91296390D01*
X111008914Y-91279128D01*
X111014526Y-91247805D01*
X111024481Y-91214212D01*
X111037951Y-91184978D01*
X111054933Y-91160102D01*
X111078983Y-91136462D01*
X111107535Y-91118629D01*
X111135591Y-91107964D01*
X111166954Y-91101565D01*
X111201625Y-91099432D01*
X111236348Y-91101544D01*
G37*
G36*
X110898129Y-91333466D02*
G01*
X110896831Y-91299480D01*
X110892934Y-91268050D01*
X110886441Y-91239173D01*
X110875220Y-91207894D01*
X110860258Y-91180293D01*
X110844933Y-91160102D01*
X110823321Y-91139484D01*
X110798380Y-91123131D01*
X110770111Y-91111045D01*
X110738514Y-91103224D01*
X110703588Y-91099669D01*
X110691207Y-91099432D01*
X110659650Y-91101185D01*
X110630631Y-91106445D01*
X110600576Y-91116749D01*
X110573836Y-91131632D01*
X110567669Y-91136069D01*
X110545659Y-91155889D01*
X110526439Y-91181953D01*
X110513083Y-91212004D01*
X110507438Y-91234254D01*
X110586573Y-91240116D01*
X110595196Y-91211700D01*
X110611786Y-91187048D01*
X110619546Y-91179739D01*
X110646890Y-91164612D01*
X110677115Y-91158389D01*
X110694577Y-91157611D01*
X110724940Y-91160185D01*
X110753908Y-91169233D01*
X110779651Y-91186927D01*
X110789979Y-91198790D01*
X110804642Y-91225905D01*
X110813648Y-91256780D01*
X110818418Y-91289026D01*
X110820195Y-91320549D01*
X110820314Y-91331854D01*
X110819252Y-91365043D01*
X110816068Y-91394708D01*
X110809671Y-91424864D01*
X110798822Y-91453454D01*
X110790125Y-91468141D01*
X110767803Y-91490784D01*
X110738754Y-91505041D01*
X110706859Y-91510702D01*
X110695017Y-91511079D01*
X110663768Y-91507864D01*
X110634799Y-91497126D01*
X110621304Y-91488218D01*
X110601167Y-91465653D01*
X110589104Y-91437739D01*
X110584961Y-91418316D01*
X110506559Y-91423445D01*
X110513305Y-91452880D01*
X110525409Y-91480295D01*
X110536454Y-91497450D01*
X110557056Y-91520380D01*
X110582149Y-91539271D01*
X110601374Y-91549621D01*
X110630290Y-91560300D01*
X110661421Y-91566547D01*
X110691646Y-91568378D01*
X110722022Y-91566912D01*
X110755366Y-91561279D01*
X110785320Y-91551421D01*
X110811884Y-91537339D01*
X110835057Y-91519032D01*
X110845373Y-91508295D01*
X110863302Y-91483797D01*
X110877521Y-91455476D01*
X110888031Y-91423333D01*
X110893956Y-91393627D01*
X110897305Y-91361266D01*
X110898129Y-91333466D01*
G37*
G36*
X110369392Y-91167283D02*
G01*
X110369392Y-91108811D01*
X110299197Y-91108811D01*
X110275310Y-90996264D01*
X110225924Y-90996264D01*
X110225924Y-91108811D01*
X110047871Y-91108811D01*
X110047871Y-91167283D01*
X110225924Y-91167283D01*
X110225924Y-91441763D01*
X110221002Y-91472228D01*
X110208485Y-91491002D01*
X110181607Y-91503918D01*
X110150893Y-91506976D01*
X110118877Y-91505863D01*
X110088842Y-91503005D01*
X110057323Y-91498389D01*
X110028527Y-91492907D01*
X110028527Y-91549474D01*
X110058925Y-91556840D01*
X110089211Y-91562397D01*
X110119384Y-91566145D01*
X110149446Y-91568083D01*
X110166573Y-91568378D01*
X110197833Y-91566583D01*
X110228030Y-91560272D01*
X110255410Y-91547930D01*
X110266664Y-91539655D01*
X110285687Y-91515960D01*
X110296128Y-91487567D01*
X110299946Y-91456434D01*
X110300076Y-91448797D01*
X110300076Y-91167283D01*
X110369392Y-91167283D01*
G37*
G36*
X109723996Y-91101544D02*
G01*
X109755515Y-91107881D01*
X109783828Y-91118443D01*
X109812811Y-91136104D01*
X109837431Y-91159516D01*
X109849453Y-91175306D01*
X109864479Y-91202014D01*
X109875900Y-91232349D01*
X109883714Y-91266311D01*
X109887470Y-91297383D01*
X109888722Y-91330974D01*
X109887905Y-91358761D01*
X109884584Y-91391169D01*
X109878709Y-91420994D01*
X109868286Y-91453374D01*
X109854185Y-91482035D01*
X109836406Y-91506976D01*
X109826201Y-91517949D01*
X109803419Y-91536658D01*
X109777473Y-91551049D01*
X109748364Y-91561123D01*
X109716092Y-91566879D01*
X109686782Y-91568378D01*
X109662273Y-91567441D01*
X109631645Y-91563273D01*
X109599991Y-91554600D01*
X109571304Y-91541707D01*
X109562476Y-91536473D01*
X109539190Y-91518296D01*
X109518946Y-91493750D01*
X109504626Y-91464624D01*
X109569692Y-91446452D01*
X109571885Y-91452108D01*
X109588451Y-91476947D01*
X109612337Y-91494959D01*
X109626819Y-91501868D01*
X109656393Y-91510197D01*
X109686782Y-91512691D01*
X109697367Y-91512319D01*
X109726556Y-91506735D01*
X109754474Y-91492673D01*
X109777641Y-91470339D01*
X109793651Y-91443955D01*
X109803483Y-91416200D01*
X109809175Y-91384398D01*
X109810760Y-91353249D01*
X109492609Y-91353249D01*
X109492609Y-91343138D01*
X109493390Y-91313478D01*
X109494968Y-91296390D01*
X109569253Y-91296390D01*
X109810027Y-91296390D01*
X109808653Y-91276381D01*
X109803402Y-91247239D01*
X109793007Y-91218680D01*
X109775882Y-91192196D01*
X109769635Y-91185413D01*
X109745890Y-91167621D01*
X109717651Y-91157243D01*
X109688394Y-91154240D01*
X109675324Y-91154796D01*
X109645928Y-91161042D01*
X109616840Y-91177700D01*
X109594501Y-91204353D01*
X109581041Y-91234199D01*
X109573647Y-91263073D01*
X109569253Y-91296390D01*
X109494968Y-91296390D01*
X109496562Y-91279128D01*
X109502174Y-91247805D01*
X109512130Y-91214212D01*
X109525599Y-91184978D01*
X109542581Y-91160102D01*
X109566631Y-91136462D01*
X109595183Y-91118629D01*
X109623239Y-91107964D01*
X109654603Y-91101565D01*
X109689274Y-91099432D01*
X109723996Y-91101544D01*
G37*
G36*
X109385778Y-91333466D02*
G01*
X109384479Y-91299480D01*
X109380583Y-91268050D01*
X109374089Y-91239173D01*
X109362868Y-91207894D01*
X109347907Y-91180293D01*
X109332581Y-91160102D01*
X109310969Y-91139484D01*
X109286028Y-91123131D01*
X109257759Y-91111045D01*
X109226162Y-91103224D01*
X109191236Y-91099669D01*
X109178855Y-91099432D01*
X109147298Y-91101185D01*
X109118280Y-91106445D01*
X109088224Y-91116749D01*
X109061484Y-91131632D01*
X109055317Y-91136069D01*
X109033308Y-91155889D01*
X109014087Y-91181953D01*
X109000732Y-91212004D01*
X108995087Y-91234254D01*
X109074221Y-91240116D01*
X109082845Y-91211700D01*
X109099434Y-91187048D01*
X109107194Y-91179739D01*
X109134539Y-91164612D01*
X109164764Y-91158389D01*
X109182226Y-91157611D01*
X109212588Y-91160185D01*
X109241556Y-91169233D01*
X109267299Y-91186927D01*
X109277627Y-91198790D01*
X109292291Y-91225905D01*
X109301296Y-91256780D01*
X109306066Y-91289026D01*
X109307843Y-91320549D01*
X109307962Y-91331854D01*
X109306901Y-91365043D01*
X109303717Y-91394708D01*
X109297319Y-91424864D01*
X109286470Y-91453454D01*
X109277773Y-91468141D01*
X109255451Y-91490784D01*
X109226402Y-91505041D01*
X109194508Y-91510702D01*
X109182665Y-91511079D01*
X109151417Y-91507864D01*
X109122448Y-91497126D01*
X109108953Y-91488218D01*
X109088815Y-91465653D01*
X109076753Y-91437739D01*
X109072609Y-91418316D01*
X108994207Y-91423445D01*
X109000953Y-91452880D01*
X109013057Y-91480295D01*
X109024103Y-91497450D01*
X109044704Y-91520380D01*
X109069798Y-91539271D01*
X109089023Y-91549621D01*
X109117938Y-91560300D01*
X109149070Y-91566547D01*
X109179295Y-91568378D01*
X109209671Y-91566912D01*
X109243014Y-91561279D01*
X109272968Y-91551421D01*
X109299532Y-91537339D01*
X109322706Y-91519032D01*
X109333021Y-91508295D01*
X109350950Y-91483797D01*
X109365170Y-91455476D01*
X109375680Y-91423333D01*
X109381604Y-91393627D01*
X109384953Y-91361266D01*
X109385778Y-91333466D01*
G37*
G36*
X108888255Y-91568378D02*
G01*
X108549881Y-90949369D01*
X108476608Y-90949369D01*
X108813224Y-91568378D01*
X108888255Y-91568378D01*
G37*
G36*
X111599351Y-92567000D02*
G01*
X111599351Y-92314062D01*
X111814480Y-92314062D01*
X111814480Y-92567000D01*
X111893175Y-92567000D01*
X111893175Y-92013643D01*
X111814480Y-92013643D01*
X111814480Y-92248116D01*
X111599351Y-92248116D01*
X111599351Y-92013643D01*
X111520655Y-92013643D01*
X111520655Y-92567000D01*
X111599351Y-92567000D01*
G37*
G36*
X111236348Y-92109544D02*
G01*
X111267866Y-92115881D01*
X111296180Y-92126443D01*
X111325162Y-92144104D01*
X111349783Y-92167516D01*
X111361804Y-92183306D01*
X111376831Y-92210014D01*
X111388251Y-92240349D01*
X111396065Y-92274311D01*
X111399822Y-92305383D01*
X111401074Y-92338974D01*
X111400257Y-92366761D01*
X111396936Y-92399169D01*
X111391060Y-92428994D01*
X111380638Y-92461374D01*
X111366537Y-92490035D01*
X111348757Y-92514976D01*
X111338553Y-92525949D01*
X111315770Y-92544658D01*
X111289825Y-92559049D01*
X111260716Y-92569123D01*
X111228444Y-92574879D01*
X111199134Y-92576378D01*
X111174624Y-92575441D01*
X111143996Y-92571273D01*
X111112342Y-92562600D01*
X111083656Y-92549707D01*
X111074828Y-92544473D01*
X111051542Y-92526296D01*
X111031298Y-92501750D01*
X111016978Y-92472624D01*
X111082044Y-92454452D01*
X111084237Y-92460108D01*
X111100803Y-92484947D01*
X111124689Y-92502959D01*
X111139171Y-92509868D01*
X111168744Y-92518197D01*
X111199134Y-92520691D01*
X111209719Y-92520319D01*
X111238908Y-92514735D01*
X111266826Y-92500673D01*
X111289993Y-92478339D01*
X111306002Y-92451955D01*
X111315835Y-92424200D01*
X111321527Y-92392398D01*
X111323112Y-92361249D01*
X111004961Y-92361249D01*
X111004961Y-92351138D01*
X111005742Y-92321478D01*
X111007320Y-92304390D01*
X111081605Y-92304390D01*
X111322379Y-92304390D01*
X111321005Y-92284381D01*
X111315754Y-92255239D01*
X111305359Y-92226680D01*
X111288234Y-92200196D01*
X111281987Y-92193413D01*
X111258242Y-92175621D01*
X111230003Y-92165243D01*
X111200746Y-92162240D01*
X111187676Y-92162796D01*
X111158280Y-92169042D01*
X111129192Y-92185700D01*
X111106853Y-92212353D01*
X111093392Y-92242199D01*
X111085999Y-92271073D01*
X111081605Y-92304390D01*
X111007320Y-92304390D01*
X111008914Y-92287128D01*
X111014526Y-92255805D01*
X111024481Y-92222212D01*
X111037951Y-92192978D01*
X111054933Y-92168102D01*
X111078983Y-92144462D01*
X111107535Y-92126629D01*
X111135591Y-92115964D01*
X111166954Y-92109565D01*
X111201625Y-92107432D01*
X111236348Y-92109544D01*
G37*
G36*
X110741573Y-92109372D02*
G01*
X110774042Y-92115190D01*
X110808626Y-92127918D01*
X110836541Y-92146706D01*
X110857787Y-92171555D01*
X110872365Y-92202465D01*
X110879225Y-92231556D01*
X110801702Y-92238737D01*
X110801429Y-92236366D01*
X110794056Y-92207258D01*
X110776203Y-92182170D01*
X110765481Y-92175033D01*
X110736253Y-92166017D01*
X110706008Y-92163852D01*
X110689005Y-92164723D01*
X110660469Y-92171688D01*
X110636399Y-92188618D01*
X110624884Y-92207111D01*
X110616696Y-92237501D01*
X110614563Y-92269658D01*
X110614563Y-92295011D01*
X110711870Y-92296623D01*
X110745313Y-92298259D01*
X110775468Y-92302400D01*
X110810556Y-92311815D01*
X110839797Y-92325682D01*
X110868123Y-92349276D01*
X110887312Y-92379824D01*
X110896085Y-92409271D01*
X110899009Y-92443168D01*
X110898719Y-92454559D01*
X110894372Y-92485951D01*
X110883424Y-92515935D01*
X110866036Y-92540768D01*
X110854945Y-92551027D01*
X110828040Y-92566328D01*
X110798442Y-92574153D01*
X110767850Y-92576378D01*
X110736080Y-92574246D01*
X110704967Y-92566975D01*
X110677871Y-92554543D01*
X110673348Y-92551704D01*
X110649819Y-92532182D01*
X110630413Y-92508695D01*
X110614563Y-92482882D01*
X110612072Y-92482882D01*
X110610896Y-92497326D01*
X110604834Y-92526913D01*
X110590823Y-92553810D01*
X110587109Y-92557844D01*
X110560644Y-92572654D01*
X110530886Y-92576378D01*
X110503771Y-92574929D01*
X110473586Y-92569784D01*
X110473586Y-92523622D01*
X110497913Y-92526553D01*
X110506484Y-92525950D01*
X110530886Y-92509407D01*
X110537370Y-92488085D01*
X110539532Y-92458409D01*
X110539532Y-92383817D01*
X110614563Y-92383817D01*
X110614829Y-92392285D01*
X110619942Y-92421417D01*
X110631563Y-92449763D01*
X110635989Y-92457550D01*
X110654834Y-92481669D01*
X110678897Y-92500907D01*
X110688644Y-92506396D01*
X110718297Y-92516814D01*
X110748946Y-92519958D01*
X110776695Y-92516003D01*
X110802728Y-92499295D01*
X110816467Y-92475189D01*
X110821046Y-92444487D01*
X110818325Y-92417219D01*
X110806831Y-92389826D01*
X110793419Y-92374898D01*
X110767117Y-92359344D01*
X110752857Y-92354930D01*
X110723549Y-92350178D01*
X110692819Y-92348500D01*
X110614563Y-92346888D01*
X110614563Y-92383817D01*
X110539532Y-92383817D01*
X110539532Y-92261305D01*
X110541516Y-92230290D01*
X110548645Y-92198966D01*
X110560957Y-92172038D01*
X110581004Y-92147000D01*
X110589115Y-92139928D01*
X110614282Y-92124472D01*
X110644596Y-92113962D01*
X110675344Y-92108823D01*
X110704836Y-92107432D01*
X110741573Y-92109372D01*
G37*
G36*
X110016950Y-92183196D02*
G01*
X110048097Y-92178774D01*
X110078068Y-92176188D01*
X110104291Y-92175429D01*
X110135890Y-92178589D01*
X110164302Y-92188069D01*
X110189526Y-92203868D01*
X110211563Y-92225988D01*
X110229386Y-92252989D01*
X110242117Y-92283434D01*
X110249080Y-92312898D01*
X110252143Y-92344999D01*
X110252302Y-92354655D01*
X110252302Y-92567000D01*
X110326454Y-92567000D01*
X110326454Y-92275374D01*
X110327520Y-92245545D01*
X110330419Y-92214029D01*
X110332023Y-92200928D01*
X110336406Y-92171616D01*
X110341897Y-92142720D01*
X110347850Y-92116811D01*
X110277362Y-92116811D01*
X110269161Y-92147619D01*
X110263024Y-92176734D01*
X110258624Y-92207099D01*
X110257578Y-92218660D01*
X110255526Y-92218660D01*
X110242698Y-92192213D01*
X110227530Y-92166824D01*
X110215080Y-92150956D01*
X110191992Y-92130972D01*
X110168185Y-92118423D01*
X110137960Y-92110180D01*
X110106645Y-92107475D01*
X110101800Y-92107432D01*
X110072467Y-92108263D01*
X110040666Y-92111066D01*
X110016950Y-92114466D01*
X110016950Y-92183196D01*
G37*
G36*
X109865275Y-92175283D02*
G01*
X109865275Y-92116811D01*
X109795080Y-92116811D01*
X109771193Y-92004264D01*
X109721807Y-92004264D01*
X109721807Y-92116811D01*
X109543754Y-92116811D01*
X109543754Y-92175283D01*
X109721807Y-92175283D01*
X109721807Y-92449763D01*
X109716885Y-92480228D01*
X109704368Y-92499002D01*
X109677490Y-92511918D01*
X109646775Y-92514976D01*
X109614760Y-92513863D01*
X109584725Y-92511005D01*
X109553206Y-92506389D01*
X109524410Y-92500907D01*
X109524410Y-92557474D01*
X109554808Y-92564840D01*
X109585093Y-92570397D01*
X109615267Y-92574145D01*
X109645328Y-92576083D01*
X109662456Y-92576378D01*
X109693716Y-92574583D01*
X109723913Y-92568272D01*
X109751293Y-92555930D01*
X109762547Y-92547655D01*
X109781569Y-92523960D01*
X109792011Y-92495567D01*
X109795829Y-92464434D01*
X109795959Y-92456797D01*
X109795959Y-92175283D01*
X109865275Y-92175283D01*
G37*
G36*
X109341667Y-92567000D02*
G01*
X109341667Y-92013643D01*
X109262972Y-92013643D01*
X109262972Y-92502666D01*
X108986001Y-92502666D01*
X108986001Y-92567000D01*
X109341667Y-92567000D01*
G37*
G36*
X108868471Y-92567000D02*
G01*
X108868471Y-92013643D01*
X108489797Y-92013643D01*
X108489797Y-92077976D01*
X108789776Y-92077976D01*
X108789776Y-92248116D01*
X108514417Y-92248116D01*
X108514417Y-92311570D01*
X108789776Y-92311570D01*
X108789776Y-92502666D01*
X108472798Y-92502666D01*
X108472798Y-92567000D01*
X108868471Y-92567000D01*
G37*
G36*
X108364354Y-92567000D02*
G01*
X108211946Y-92567000D01*
X108197414Y-92566714D01*
X108162958Y-92563500D01*
X108131177Y-92556716D01*
X108102072Y-92546361D01*
X108075644Y-92532436D01*
X108051892Y-92514940D01*
X108030816Y-92493873D01*
X108012578Y-92469448D01*
X107997431Y-92441967D01*
X107985375Y-92411430D01*
X107976411Y-92377839D01*
X107971465Y-92348765D01*
X107968497Y-92317737D01*
X107967508Y-92284752D01*
X108046643Y-92284752D01*
X108046684Y-92291514D01*
X108048137Y-92323722D01*
X108052619Y-92358859D01*
X108060090Y-92390162D01*
X108072582Y-92421839D01*
X108089141Y-92448297D01*
X108103474Y-92463960D01*
X108127232Y-92481428D01*
X108155294Y-92493693D01*
X108187663Y-92500755D01*
X108218834Y-92502666D01*
X108285659Y-92502666D01*
X108285659Y-92077976D01*
X108235833Y-92077976D01*
X108206358Y-92079182D01*
X108174415Y-92083812D01*
X108141876Y-92093602D01*
X108114429Y-92108119D01*
X108092072Y-92127362D01*
X108086571Y-92133747D01*
X108070112Y-92159719D01*
X108058000Y-92191330D01*
X108051079Y-92222911D01*
X108047752Y-92252394D01*
X108046643Y-92284752D01*
X107967508Y-92284752D01*
X107968093Y-92259830D01*
X107970692Y-92228480D01*
X107976864Y-92192312D01*
X107986285Y-92159500D01*
X107998955Y-92130044D01*
X108014873Y-92103944D01*
X108034040Y-92081200D01*
X108051751Y-92065367D01*
X108076924Y-92048543D01*
X108105467Y-92035019D01*
X108137380Y-92024793D01*
X108172663Y-92017865D01*
X108203316Y-92014698D01*
X108236127Y-92013643D01*
X108364354Y-92013643D01*
X108364354Y-92567000D01*
G37*
G36*
X107797662Y-92287830D02*
G01*
X107796803Y-92321581D01*
X107794227Y-92352585D01*
X107788869Y-92386162D01*
X107781038Y-92415783D01*
X107768776Y-92445339D01*
X107762491Y-92456357D01*
X107742506Y-92480913D01*
X107717868Y-92498453D01*
X107688577Y-92508977D01*
X107659131Y-92512430D01*
X107654633Y-92512484D01*
X107624511Y-92508590D01*
X107596574Y-92496905D01*
X107579162Y-92484787D01*
X107557118Y-92461991D01*
X107539212Y-92434926D01*
X107524834Y-92405404D01*
X107521863Y-92398179D01*
X107456357Y-92424704D01*
X107468540Y-92451810D01*
X107486867Y-92483803D01*
X107507576Y-92511058D01*
X107530666Y-92533572D01*
X107556137Y-92551346D01*
X107583990Y-92564381D01*
X107614224Y-92572675D01*
X107646840Y-92576230D01*
X107655366Y-92576378D01*
X107688031Y-92574561D01*
X107718249Y-92569108D01*
X107751280Y-92557767D01*
X107780787Y-92541191D01*
X107806770Y-92519381D01*
X107822135Y-92501933D01*
X107838938Y-92477038D01*
X107852892Y-92448974D01*
X107863999Y-92417739D01*
X107872258Y-92383334D01*
X107876815Y-92353528D01*
X107879549Y-92321693D01*
X107880460Y-92287830D01*
X107879597Y-92253492D01*
X107877009Y-92221369D01*
X107872696Y-92191462D01*
X107862991Y-92150755D01*
X107849404Y-92115032D01*
X107831935Y-92084294D01*
X107810584Y-92058540D01*
X107785350Y-92037771D01*
X107756235Y-92021987D01*
X107723238Y-92011187D01*
X107686359Y-92005372D01*
X107659616Y-92004264D01*
X107626032Y-92006474D01*
X107595181Y-92013103D01*
X107567065Y-92024151D01*
X107541683Y-92039618D01*
X107519035Y-92059505D01*
X107499121Y-92083811D01*
X107481940Y-92112536D01*
X107467494Y-92145681D01*
X107536810Y-92173085D01*
X107548010Y-92144849D01*
X107564198Y-92118385D01*
X107584438Y-92096734D01*
X107610129Y-92079588D01*
X107638623Y-92070356D01*
X107659176Y-92068598D01*
X107692140Y-92071913D01*
X107720542Y-92081860D01*
X107747043Y-92100976D01*
X107763663Y-92121647D01*
X107778538Y-92151927D01*
X107788066Y-92184583D01*
X107793644Y-92217151D01*
X107796466Y-92247517D01*
X107797629Y-92280818D01*
X107797662Y-92287830D01*
G37*
G36*
X107346741Y-91957369D02*
G01*
X107272149Y-91957369D01*
X107272149Y-92113147D01*
X107273065Y-92144618D01*
X107274757Y-92175393D01*
X107275812Y-92191842D01*
X107274640Y-92191842D01*
X107256509Y-92163156D01*
X107234647Y-92140405D01*
X107209055Y-92123589D01*
X107179733Y-92112708D01*
X107146682Y-92107762D01*
X107134836Y-92107432D01*
X107101038Y-92109914D01*
X107071748Y-92117361D01*
X107041471Y-92133650D01*
X107018235Y-92157695D01*
X107002041Y-92189497D01*
X106994155Y-92220524D01*
X106990775Y-92256514D01*
X106990635Y-92266288D01*
X106990635Y-92567000D01*
X107065226Y-92567000D01*
X107065226Y-92276692D01*
X107066942Y-92247027D01*
X107073698Y-92217067D01*
X107086915Y-92192282D01*
X107110701Y-92173449D01*
X107141629Y-92165404D01*
X107155792Y-92164732D01*
X107185968Y-92168424D01*
X107215030Y-92181014D01*
X107237693Y-92200214D01*
X107239762Y-92202540D01*
X107256996Y-92228804D01*
X107267049Y-92256944D01*
X107271931Y-92289350D01*
X107272442Y-92305122D01*
X107272442Y-92567000D01*
X107346741Y-92567000D01*
X107346741Y-91957369D01*
G37*
G36*
X106708635Y-92109372D02*
G01*
X106741104Y-92115190D01*
X106775688Y-92127918D01*
X106803603Y-92146706D01*
X106824850Y-92171555D01*
X106839427Y-92202465D01*
X106846287Y-92231556D01*
X106768764Y-92238737D01*
X106768491Y-92236366D01*
X106761118Y-92207258D01*
X106743265Y-92182170D01*
X106732543Y-92175033D01*
X106703315Y-92166017D01*
X106673070Y-92163852D01*
X106656067Y-92164723D01*
X106627531Y-92171688D01*
X106603461Y-92188618D01*
X106591946Y-92207111D01*
X106583758Y-92237501D01*
X106581625Y-92269658D01*
X106581625Y-92295011D01*
X106678932Y-92296623D01*
X106712376Y-92298259D01*
X106742530Y-92302400D01*
X106777618Y-92311815D01*
X106806859Y-92325682D01*
X106835185Y-92349276D01*
X106854375Y-92379824D01*
X106863147Y-92409271D01*
X106866071Y-92443168D01*
X106865781Y-92454559D01*
X106861434Y-92485951D01*
X106850486Y-92515935D01*
X106833098Y-92540768D01*
X106822007Y-92551027D01*
X106795102Y-92566328D01*
X106765504Y-92574153D01*
X106734912Y-92576378D01*
X106703142Y-92574246D01*
X106672029Y-92566975D01*
X106644933Y-92554543D01*
X106640410Y-92551704D01*
X106616881Y-92532182D01*
X106597476Y-92508695D01*
X106581625Y-92482882D01*
X106579134Y-92482882D01*
X106577959Y-92497326D01*
X106571896Y-92526913D01*
X106557885Y-92553810D01*
X106554171Y-92557844D01*
X106527706Y-92572654D01*
X106497948Y-92576378D01*
X106470833Y-92574929D01*
X106440648Y-92569784D01*
X106440648Y-92523622D01*
X106464975Y-92526553D01*
X106473546Y-92525950D01*
X106497948Y-92509407D01*
X106504433Y-92488085D01*
X106506594Y-92458409D01*
X106506594Y-92383817D01*
X106581625Y-92383817D01*
X106581891Y-92392285D01*
X106587004Y-92421417D01*
X106598625Y-92449763D01*
X106603051Y-92457550D01*
X106621896Y-92481669D01*
X106645959Y-92500907D01*
X106655706Y-92506396D01*
X106685359Y-92516814D01*
X106716008Y-92519958D01*
X106743757Y-92516003D01*
X106769790Y-92499295D01*
X106783529Y-92475189D01*
X106788108Y-92444487D01*
X106785388Y-92417219D01*
X106773893Y-92389826D01*
X106760481Y-92374898D01*
X106734180Y-92359344D01*
X106719919Y-92354930D01*
X106690611Y-92350178D01*
X106659881Y-92348500D01*
X106581625Y-92346888D01*
X106581625Y-92383817D01*
X106506594Y-92383817D01*
X106506594Y-92261305D01*
X106508579Y-92230290D01*
X106515707Y-92198966D01*
X106528019Y-92172038D01*
X106548066Y-92147000D01*
X106556177Y-92139928D01*
X106581344Y-92124472D01*
X106611658Y-92113962D01*
X106642406Y-92108823D01*
X106671898Y-92107432D01*
X106708635Y-92109372D01*
G37*
G36*
X105977857Y-92438479D02*
G01*
X105980861Y-92469043D01*
X105991423Y-92499245D01*
X106009589Y-92525019D01*
X106025924Y-92539742D01*
X106052192Y-92555770D01*
X106083077Y-92567219D01*
X106113888Y-92573480D01*
X106143110Y-92576056D01*
X106158695Y-92576378D01*
X106189136Y-92575456D01*
X106221031Y-92572049D01*
X106252707Y-92565081D01*
X106282257Y-92553323D01*
X106287948Y-92550147D01*
X106312617Y-92530698D01*
X106331305Y-92505324D01*
X106343009Y-92477422D01*
X106345833Y-92467055D01*
X106280327Y-92454452D01*
X106269085Y-92482891D01*
X106248363Y-92504141D01*
X106246769Y-92505157D01*
X106217216Y-92516077D01*
X106187555Y-92520132D01*
X106158695Y-92521131D01*
X106126651Y-92519360D01*
X106095368Y-92512559D01*
X106068756Y-92498179D01*
X106051377Y-92473243D01*
X106047466Y-92448591D01*
X106055366Y-92419075D01*
X106067690Y-92405213D01*
X106093262Y-92390192D01*
X106121916Y-92380254D01*
X106129532Y-92378249D01*
X106161573Y-92370017D01*
X106194903Y-92360894D01*
X106226730Y-92351293D01*
X106256480Y-92340598D01*
X106267578Y-92335457D01*
X106293370Y-92318018D01*
X106312421Y-92296769D01*
X106324656Y-92268745D01*
X106328101Y-92238591D01*
X106324647Y-92206090D01*
X106314284Y-92177833D01*
X106297012Y-92153818D01*
X106284431Y-92142310D01*
X106256771Y-92125450D01*
X106226988Y-92115096D01*
X106196915Y-92109612D01*
X106163099Y-92107466D01*
X106157962Y-92107432D01*
X106127628Y-92108715D01*
X106096395Y-92113325D01*
X106065638Y-92122517D01*
X106042191Y-92134250D01*
X106018271Y-92153295D01*
X106000734Y-92177092D01*
X105989580Y-92205640D01*
X105988115Y-92211919D01*
X106054940Y-92219979D01*
X106066450Y-92192519D01*
X106084249Y-92177188D01*
X106112708Y-92166774D01*
X106143218Y-92163034D01*
X106157962Y-92162680D01*
X106192276Y-92164936D01*
X106223336Y-92173273D01*
X106249071Y-92193018D01*
X106258833Y-92222918D01*
X106258932Y-92226867D01*
X106251611Y-92255595D01*
X106241933Y-92267167D01*
X106216059Y-92282175D01*
X106186831Y-92291347D01*
X106137739Y-92304390D01*
X106106533Y-92312724D01*
X106077055Y-92322057D01*
X106049117Y-92333401D01*
X106041165Y-92337509D01*
X106016319Y-92354594D01*
X105995922Y-92376865D01*
X105994856Y-92378395D01*
X105982107Y-92405653D01*
X105977874Y-92436264D01*
X105977857Y-92438479D01*
G37*
G36*
X105691059Y-92109544D02*
G01*
X105722577Y-92115881D01*
X105750890Y-92126443D01*
X105779873Y-92144104D01*
X105804494Y-92167516D01*
X105816515Y-92183306D01*
X105831542Y-92210014D01*
X105842962Y-92240349D01*
X105850776Y-92274311D01*
X105854532Y-92305383D01*
X105855785Y-92338974D01*
X105854967Y-92366761D01*
X105851646Y-92399169D01*
X105845771Y-92428994D01*
X105835348Y-92461374D01*
X105821247Y-92490035D01*
X105803468Y-92514976D01*
X105793263Y-92525949D01*
X105770481Y-92544658D01*
X105744535Y-92559049D01*
X105715427Y-92569123D01*
X105683154Y-92574879D01*
X105653845Y-92576378D01*
X105629335Y-92575441D01*
X105598707Y-92571273D01*
X105567053Y-92562600D01*
X105538367Y-92549707D01*
X105529538Y-92544473D01*
X105506252Y-92526296D01*
X105486008Y-92501750D01*
X105471688Y-92472624D01*
X105536755Y-92454452D01*
X105538947Y-92460108D01*
X105555513Y-92484947D01*
X105579399Y-92502959D01*
X105593881Y-92509868D01*
X105623455Y-92518197D01*
X105653845Y-92520691D01*
X105664429Y-92520319D01*
X105693618Y-92514735D01*
X105721536Y-92500673D01*
X105744703Y-92478339D01*
X105760713Y-92451955D01*
X105770545Y-92424200D01*
X105776237Y-92392398D01*
X105777822Y-92361249D01*
X105459672Y-92361249D01*
X105459672Y-92351138D01*
X105460452Y-92321478D01*
X105462030Y-92304390D01*
X105536315Y-92304390D01*
X105777090Y-92304390D01*
X105775715Y-92284381D01*
X105770464Y-92255239D01*
X105760069Y-92226680D01*
X105742944Y-92200196D01*
X105736697Y-92193413D01*
X105712952Y-92175621D01*
X105684713Y-92165243D01*
X105655457Y-92162240D01*
X105642386Y-92162796D01*
X105612990Y-92169042D01*
X105583902Y-92185700D01*
X105561563Y-92212353D01*
X105548103Y-92242199D01*
X105540709Y-92271073D01*
X105536315Y-92304390D01*
X105462030Y-92304390D01*
X105463624Y-92287128D01*
X105469236Y-92255805D01*
X105479192Y-92222212D01*
X105492661Y-92192978D01*
X105509644Y-92168102D01*
X105533693Y-92144462D01*
X105562245Y-92126629D01*
X105590301Y-92115964D01*
X105621665Y-92109565D01*
X105656336Y-92107432D01*
X105691059Y-92109544D01*
G37*
G36*
X104975778Y-92183196D02*
G01*
X105006925Y-92178774D01*
X105036895Y-92176188D01*
X105063119Y-92175429D01*
X105094718Y-92178589D01*
X105123129Y-92188069D01*
X105148353Y-92203868D01*
X105170390Y-92225988D01*
X105188214Y-92252989D01*
X105200945Y-92283434D01*
X105207907Y-92312898D01*
X105210971Y-92344999D01*
X105211130Y-92354655D01*
X105211130Y-92567000D01*
X105285282Y-92567000D01*
X105285282Y-92275374D01*
X105286348Y-92245545D01*
X105289247Y-92214029D01*
X105290851Y-92200928D01*
X105295233Y-92171616D01*
X105300724Y-92142720D01*
X105306678Y-92116811D01*
X105236189Y-92116811D01*
X105227989Y-92147619D01*
X105221851Y-92176734D01*
X105217452Y-92207099D01*
X105216406Y-92218660D01*
X105214354Y-92218660D01*
X105201526Y-92192213D01*
X105186358Y-92166824D01*
X105173907Y-92150956D01*
X105150819Y-92130972D01*
X105127013Y-92118423D01*
X105096788Y-92110180D01*
X105065472Y-92107475D01*
X105060628Y-92107432D01*
X105031295Y-92108263D01*
X104999494Y-92111066D01*
X104975778Y-92114466D01*
X104975778Y-92183196D01*
G37*
G36*
X148279504Y-81585000D02*
G01*
X148279504Y-81163436D01*
X148638052Y-81163436D01*
X148638052Y-81585000D01*
X148769211Y-81585000D01*
X148769211Y-80662739D01*
X148638052Y-80662739D01*
X148638052Y-81053527D01*
X148279504Y-81053527D01*
X148279504Y-80662739D01*
X148148345Y-80662739D01*
X148148345Y-81585000D01*
X148279504Y-81585000D01*
G37*
G36*
X147690070Y-80822286D02*
G01*
X147744185Y-80831984D01*
X147801825Y-80853196D01*
X147848350Y-80884510D01*
X147883761Y-80925925D01*
X147908056Y-80977442D01*
X147919490Y-81025928D01*
X147790285Y-81037896D01*
X147789830Y-81033944D01*
X147777541Y-80985431D01*
X147747787Y-80943618D01*
X147729917Y-80931722D01*
X147681204Y-80916695D01*
X147630795Y-80913087D01*
X147602456Y-80914539D01*
X147554897Y-80926148D01*
X147514779Y-80954364D01*
X147495588Y-80985186D01*
X147481941Y-81035836D01*
X147478387Y-81089431D01*
X147478387Y-81131685D01*
X147640565Y-81134371D01*
X147696304Y-81137099D01*
X147746561Y-81144000D01*
X147805042Y-81159693D01*
X147853776Y-81182804D01*
X147900987Y-81222126D01*
X147932969Y-81273040D01*
X147947589Y-81322118D01*
X147952463Y-81378614D01*
X147951980Y-81397599D01*
X147944735Y-81449918D01*
X147926488Y-81499892D01*
X147897508Y-81541280D01*
X147879023Y-81558378D01*
X147834181Y-81583881D01*
X147784851Y-81596922D01*
X147733865Y-81600631D01*
X147680914Y-81597077D01*
X147629059Y-81584958D01*
X147583900Y-81564239D01*
X147576361Y-81559508D01*
X147537147Y-81526971D01*
X147504804Y-81487825D01*
X147478387Y-81444804D01*
X147474235Y-81444804D01*
X147472276Y-81468878D01*
X147462172Y-81518188D01*
X147438820Y-81563018D01*
X147432630Y-81569740D01*
X147388521Y-81594423D01*
X147338925Y-81600631D01*
X147293734Y-81598216D01*
X147243426Y-81589640D01*
X147243426Y-81512704D01*
X147283970Y-81517588D01*
X147298255Y-81516584D01*
X147338925Y-81489012D01*
X147349732Y-81453475D01*
X147353335Y-81404016D01*
X147353335Y-81279696D01*
X147478387Y-81279696D01*
X147478830Y-81293809D01*
X147487352Y-81342361D01*
X147506719Y-81389605D01*
X147514096Y-81402584D01*
X147545505Y-81442782D01*
X147585610Y-81474846D01*
X147601855Y-81483993D01*
X147651276Y-81501357D01*
X147702358Y-81506598D01*
X147748607Y-81500006D01*
X147791995Y-81472159D01*
X147814893Y-81431981D01*
X147822525Y-81380812D01*
X147817991Y-81335365D01*
X147798834Y-81289710D01*
X147776481Y-81264830D01*
X147732644Y-81238907D01*
X147708876Y-81231550D01*
X147660030Y-81223630D01*
X147608813Y-81220833D01*
X147478387Y-81218147D01*
X147478387Y-81279696D01*
X147353335Y-81279696D01*
X147353335Y-81075509D01*
X147356643Y-81023817D01*
X147368523Y-80971610D01*
X147389043Y-80926731D01*
X147422456Y-80885000D01*
X147435973Y-80873214D01*
X147477918Y-80847454D01*
X147528442Y-80829938D01*
X147579688Y-80821372D01*
X147628841Y-80819054D01*
X147690070Y-80822286D01*
G37*
G36*
X146761580Y-80821099D02*
G01*
X146811097Y-80830592D01*
X146859720Y-80851782D01*
X146888183Y-80873185D01*
X146921505Y-80911458D01*
X146947403Y-80956318D01*
X146950090Y-80956318D01*
X146950092Y-80955279D01*
X146951800Y-80906249D01*
X146951906Y-80904143D01*
X146954975Y-80854958D01*
X146956929Y-80834685D01*
X147077341Y-80834685D01*
X147074502Y-80882978D01*
X147073448Y-80936306D01*
X147073188Y-80990268D01*
X147073188Y-81881999D01*
X146948869Y-81881999D01*
X146948869Y-81589152D01*
X146948879Y-81575909D01*
X146949186Y-81526330D01*
X146951555Y-81474357D01*
X146948136Y-81474357D01*
X146940407Y-81489648D01*
X146912034Y-81529602D01*
X146869099Y-81564993D01*
X146823871Y-81585710D01*
X146770862Y-81597548D01*
X146720746Y-81600631D01*
X146657605Y-81594483D01*
X146602884Y-81576039D01*
X146556580Y-81545299D01*
X146518696Y-81502262D01*
X146489230Y-81446930D01*
X146472656Y-81397361D01*
X146460817Y-81340876D01*
X146453714Y-81277474D01*
X146451346Y-81207156D01*
X146451350Y-81206912D01*
X146579085Y-81206912D01*
X146579249Y-81226737D01*
X146581711Y-81281955D01*
X146588316Y-81338302D01*
X146600787Y-81392051D01*
X146621095Y-81438942D01*
X146655696Y-81478990D01*
X146702073Y-81502415D01*
X146754452Y-81509284D01*
X146773146Y-81508677D01*
X146823305Y-81499564D01*
X146868614Y-81476614D01*
X146902951Y-81440163D01*
X146908512Y-81431212D01*
X146929094Y-81383234D01*
X146941291Y-81330012D01*
X146947255Y-81275279D01*
X146948869Y-81222299D01*
X146948689Y-81203249D01*
X146945999Y-81149774D01*
X146938779Y-81094354D01*
X146925148Y-81040205D01*
X146902951Y-80991001D01*
X146893789Y-80977339D01*
X146855932Y-80941504D01*
X146806816Y-80920600D01*
X146752986Y-80914553D01*
X146701380Y-80921136D01*
X146655523Y-80943584D01*
X146621095Y-80981964D01*
X146611249Y-81000225D01*
X146593895Y-81051610D01*
X146584993Y-81101433D01*
X146580562Y-81151004D01*
X146579085Y-81206912D01*
X146451350Y-81206912D01*
X146451932Y-81170880D01*
X146455514Y-81114466D01*
X146462351Y-81063108D01*
X146474853Y-81008153D01*
X146492043Y-80960480D01*
X146518024Y-80914064D01*
X146526630Y-80902559D01*
X146566472Y-80863961D01*
X146614985Y-80837240D01*
X146664546Y-80823600D01*
X146720746Y-80819054D01*
X146761580Y-80821099D01*
G37*
G36*
X145921385Y-80821099D02*
G01*
X145970902Y-80830592D01*
X146019525Y-80851782D01*
X146047987Y-80873185D01*
X146081309Y-80911458D01*
X146107208Y-80956318D01*
X146109895Y-80956318D01*
X146109896Y-80955279D01*
X146111604Y-80906249D01*
X146111711Y-80904143D01*
X146114779Y-80854958D01*
X146116733Y-80834685D01*
X146237145Y-80834685D01*
X146234307Y-80882978D01*
X146233253Y-80936306D01*
X146232993Y-80990268D01*
X146232993Y-81881999D01*
X146108673Y-81881999D01*
X146108673Y-81589152D01*
X146108684Y-81575909D01*
X146108991Y-81526330D01*
X146111360Y-81474357D01*
X146107941Y-81474357D01*
X146100212Y-81489648D01*
X146071839Y-81529602D01*
X146028904Y-81564993D01*
X145983675Y-81585710D01*
X145930667Y-81597548D01*
X145880551Y-81600631D01*
X145817410Y-81594483D01*
X145762688Y-81576039D01*
X145716385Y-81545299D01*
X145678501Y-81502262D01*
X145649035Y-81446930D01*
X145632461Y-81397361D01*
X145620622Y-81340876D01*
X145613519Y-81277474D01*
X145611151Y-81207156D01*
X145611155Y-81206912D01*
X145738890Y-81206912D01*
X145739054Y-81226737D01*
X145741515Y-81281955D01*
X145748120Y-81338302D01*
X145760592Y-81392051D01*
X145780900Y-81438942D01*
X145815501Y-81478990D01*
X145861877Y-81502415D01*
X145914256Y-81509284D01*
X145932951Y-81508677D01*
X145983110Y-81499564D01*
X146028419Y-81476614D01*
X146062756Y-81440163D01*
X146068316Y-81431212D01*
X146088898Y-81383234D01*
X146101095Y-81330012D01*
X146107059Y-81275279D01*
X146108673Y-81222299D01*
X146108494Y-81203249D01*
X146105804Y-81149774D01*
X146098584Y-81094354D01*
X146084952Y-81040205D01*
X146062756Y-80991001D01*
X146053594Y-80977339D01*
X146015736Y-80941504D01*
X145966620Y-80920600D01*
X145912791Y-80914553D01*
X145861185Y-80921136D01*
X145815328Y-80943584D01*
X145780900Y-80981964D01*
X145771053Y-81000225D01*
X145753700Y-81051610D01*
X145744797Y-81101433D01*
X145740367Y-81151004D01*
X145738890Y-81206912D01*
X145611155Y-81206912D01*
X145611737Y-81170880D01*
X145615318Y-81114466D01*
X145622155Y-81063108D01*
X145634657Y-81008153D01*
X145651848Y-80960480D01*
X145677829Y-80914064D01*
X145686435Y-80902559D01*
X145726277Y-80863961D01*
X145774790Y-80837240D01*
X145824351Y-80823600D01*
X145880551Y-80819054D01*
X145921385Y-80821099D01*
G37*
G36*
X145319036Y-81881999D02*
G01*
X145368396Y-81879862D01*
X145404277Y-81874427D01*
X145404277Y-81781615D01*
X145354429Y-81785702D01*
X145346636Y-81785767D01*
X145297252Y-81776966D01*
X145253775Y-81752870D01*
X145244786Y-81745711D01*
X145210978Y-81709006D01*
X145183668Y-81663653D01*
X145163942Y-81618217D01*
X145151486Y-81585000D01*
X145474375Y-80834685D01*
X145342484Y-80834685D01*
X145161255Y-81286290D01*
X145143123Y-81332187D01*
X145125080Y-81378464D01*
X145107326Y-81425232D01*
X145093844Y-81464832D01*
X145065756Y-81387407D01*
X144852777Y-80834685D01*
X144722351Y-80834685D01*
X145035470Y-81586709D01*
X145054665Y-81635322D01*
X145077998Y-81687391D01*
X145101657Y-81732626D01*
X145129672Y-81776761D01*
X145162232Y-81815809D01*
X145201100Y-81847805D01*
X145249090Y-81871075D01*
X145302136Y-81881417D01*
X145319036Y-81881999D01*
G37*
G36*
X150911465Y-83265000D02*
G01*
X151047508Y-83265000D01*
X151394333Y-82342739D01*
X151256335Y-82342739D01*
X151036273Y-82958963D01*
X151019875Y-83007922D01*
X151003796Y-83060858D01*
X150989634Y-83110046D01*
X150978631Y-83149473D01*
X150964771Y-83099372D01*
X150950543Y-83050921D01*
X150935950Y-83004118D01*
X150920990Y-82958963D01*
X150702637Y-82342739D01*
X150564396Y-82342739D01*
X150911465Y-83265000D01*
G37*
G36*
X150210656Y-82502286D02*
G01*
X150264771Y-82511984D01*
X150322411Y-82533196D01*
X150368936Y-82564510D01*
X150404347Y-82605925D01*
X150428642Y-82657442D01*
X150440076Y-82705928D01*
X150310871Y-82717896D01*
X150310416Y-82713944D01*
X150298127Y-82665431D01*
X150268373Y-82623618D01*
X150250503Y-82611722D01*
X150201790Y-82596695D01*
X150151381Y-82593087D01*
X150123042Y-82594539D01*
X150075483Y-82606148D01*
X150035365Y-82634364D01*
X150016174Y-82665186D01*
X150002527Y-82715836D01*
X149998973Y-82769431D01*
X149998973Y-82811685D01*
X150161151Y-82814371D01*
X150216890Y-82817099D01*
X150267147Y-82824000D01*
X150325628Y-82839693D01*
X150374362Y-82862804D01*
X150421573Y-82902126D01*
X150453555Y-82953040D01*
X150468175Y-83002118D01*
X150473049Y-83058614D01*
X150472566Y-83077599D01*
X150465321Y-83129918D01*
X150447074Y-83179892D01*
X150418094Y-83221280D01*
X150399609Y-83238378D01*
X150354767Y-83263881D01*
X150305437Y-83276922D01*
X150254451Y-83280631D01*
X150201500Y-83277077D01*
X150149645Y-83264958D01*
X150104486Y-83244239D01*
X150096947Y-83239508D01*
X150057733Y-83206971D01*
X150025390Y-83167825D01*
X149998973Y-83124804D01*
X149994821Y-83124804D01*
X149992862Y-83148878D01*
X149982758Y-83198188D01*
X149959406Y-83243018D01*
X149953216Y-83249740D01*
X149909107Y-83274423D01*
X149859511Y-83280631D01*
X149814320Y-83278216D01*
X149764012Y-83269640D01*
X149764012Y-83192704D01*
X149804556Y-83197588D01*
X149818841Y-83196584D01*
X149859511Y-83169012D01*
X149870318Y-83133475D01*
X149873921Y-83084016D01*
X149873921Y-82959696D01*
X149998973Y-82959696D01*
X149999416Y-82973809D01*
X150007938Y-83022361D01*
X150027305Y-83069605D01*
X150034682Y-83082584D01*
X150066091Y-83122782D01*
X150106196Y-83154846D01*
X150122441Y-83163993D01*
X150171862Y-83181357D01*
X150222944Y-83186598D01*
X150269193Y-83180006D01*
X150312581Y-83152159D01*
X150335479Y-83111981D01*
X150343111Y-83060812D01*
X150338577Y-83015365D01*
X150319420Y-82969710D01*
X150297067Y-82944830D01*
X150253230Y-82918907D01*
X150229462Y-82911550D01*
X150180616Y-82903630D01*
X150129399Y-82900833D01*
X149998973Y-82898147D01*
X149998973Y-82959696D01*
X149873921Y-82959696D01*
X149873921Y-82755509D01*
X149877229Y-82703817D01*
X149889109Y-82651610D01*
X149909629Y-82606731D01*
X149943042Y-82565000D01*
X149956559Y-82553214D01*
X149998504Y-82527454D01*
X150049028Y-82509938D01*
X150100274Y-82501372D01*
X150149427Y-82499054D01*
X150210656Y-82502286D01*
G37*
G36*
X149537354Y-82343227D02*
G01*
X149338785Y-82343227D01*
X149338785Y-83087679D01*
X149338489Y-83098911D01*
X149335021Y-83150723D01*
X149321688Y-83200519D01*
X149301233Y-83222333D01*
X149256793Y-83248730D01*
X149208359Y-83262313D01*
X148954102Y-83265000D01*
X148954102Y-83167547D01*
X149147299Y-83164127D01*
X149151762Y-83163722D01*
X149198101Y-83148251D01*
X149215198Y-83102090D01*
X149215198Y-82245530D01*
X149537354Y-82245530D01*
X149537354Y-82343227D01*
G37*
G36*
X148514695Y-82502574D02*
G01*
X148567226Y-82513136D01*
X148614415Y-82530739D01*
X148662719Y-82560174D01*
X148703753Y-82599193D01*
X148723789Y-82625511D01*
X148748833Y-82670024D01*
X148767867Y-82720582D01*
X148780890Y-82777185D01*
X148787151Y-82828973D01*
X148789238Y-82884958D01*
X148787876Y-82931268D01*
X148782341Y-82985282D01*
X148772549Y-83034990D01*
X148755178Y-83088958D01*
X148731676Y-83136725D01*
X148702044Y-83178293D01*
X148685036Y-83196582D01*
X148647066Y-83227763D01*
X148603823Y-83251749D01*
X148555308Y-83268538D01*
X148501522Y-83278133D01*
X148452672Y-83280631D01*
X148411822Y-83279068D01*
X148360775Y-83272123D01*
X148308019Y-83257667D01*
X148260208Y-83236179D01*
X148245495Y-83227455D01*
X148206685Y-83197161D01*
X148172944Y-83156250D01*
X148149078Y-83107707D01*
X148257522Y-83077421D01*
X148261176Y-83086847D01*
X148288786Y-83128245D01*
X148328596Y-83158265D01*
X148352733Y-83169781D01*
X148402022Y-83183663D01*
X148452672Y-83187819D01*
X148470313Y-83187198D01*
X148518961Y-83177893D01*
X148565491Y-83154456D01*
X148604102Y-83117233D01*
X148630785Y-83073258D01*
X148647173Y-83027001D01*
X148656660Y-82973996D01*
X148659301Y-82922083D01*
X148129050Y-82922083D01*
X148129050Y-82905230D01*
X148130351Y-82855797D01*
X148132981Y-82827316D01*
X148256789Y-82827316D01*
X148658080Y-82827316D01*
X148655789Y-82793968D01*
X148647038Y-82745398D01*
X148629713Y-82697800D01*
X148601172Y-82653660D01*
X148590759Y-82642355D01*
X148551184Y-82612702D01*
X148504120Y-82595405D01*
X148455359Y-82590401D01*
X148433574Y-82591326D01*
X148384581Y-82601738D01*
X148336101Y-82629501D01*
X148298869Y-82673923D01*
X148276435Y-82723666D01*
X148264113Y-82771789D01*
X148256789Y-82827316D01*
X148132981Y-82827316D01*
X148135638Y-82798547D01*
X148144992Y-82746341D01*
X148161584Y-82690353D01*
X148184032Y-82641630D01*
X148212337Y-82600170D01*
X148252420Y-82560771D01*
X148300006Y-82531048D01*
X148346766Y-82513273D01*
X148399039Y-82502609D01*
X148456824Y-82499054D01*
X148514695Y-82502574D01*
G37*
G36*
X147444193Y-83265000D02*
G01*
X147444193Y-82781154D01*
X147447052Y-82731712D01*
X147458313Y-82681778D01*
X147480341Y-82640471D01*
X147519985Y-82609082D01*
X147571531Y-82595674D01*
X147595135Y-82594553D01*
X147645429Y-82600707D01*
X147693865Y-82621691D01*
X147731637Y-82653691D01*
X147735086Y-82657568D01*
X147763809Y-82701340D01*
X147780563Y-82748241D01*
X147788701Y-82802251D01*
X147789553Y-82828538D01*
X147789553Y-83265000D01*
X147913384Y-83265000D01*
X147913384Y-82674909D01*
X147913582Y-82622412D01*
X147914422Y-82569274D01*
X147917033Y-82518717D01*
X147917536Y-82514685D01*
X147800788Y-82514685D01*
X147799322Y-82533004D01*
X147797613Y-82567198D01*
X147795788Y-82617984D01*
X147795170Y-82639738D01*
X147793216Y-82639738D01*
X147762834Y-82591927D01*
X147725908Y-82554009D01*
X147682440Y-82525982D01*
X147632428Y-82507847D01*
X147575873Y-82499603D01*
X147555568Y-82499054D01*
X147506427Y-82502163D01*
X147457365Y-82513329D01*
X147411220Y-82535599D01*
X147378248Y-82564023D01*
X147350030Y-82606093D01*
X147332700Y-82652766D01*
X147323522Y-82700768D01*
X147319931Y-82755455D01*
X147319874Y-82763813D01*
X147319874Y-83265000D01*
X147444193Y-83265000D01*
G37*
G36*
X147069769Y-82612138D02*
G01*
X147069769Y-82514685D01*
X146952777Y-82514685D01*
X146912965Y-82327107D01*
X146830655Y-82327107D01*
X146830655Y-82514685D01*
X146533900Y-82514685D01*
X146533900Y-82612138D01*
X146830655Y-82612138D01*
X146830655Y-83069605D01*
X146822452Y-83120380D01*
X146801590Y-83151671D01*
X146756794Y-83173198D01*
X146705603Y-83178293D01*
X146652243Y-83176439D01*
X146602185Y-83171676D01*
X146549653Y-83163982D01*
X146501660Y-83154846D01*
X146501660Y-83249124D01*
X146552323Y-83261400D01*
X146602799Y-83270662D01*
X146653089Y-83276908D01*
X146703191Y-83280139D01*
X146731737Y-83280631D01*
X146783837Y-83277639D01*
X146834165Y-83267120D01*
X146879799Y-83246551D01*
X146898555Y-83232759D01*
X146930259Y-83193267D01*
X146947662Y-83145945D01*
X146954024Y-83094056D01*
X146954242Y-83081329D01*
X146954242Y-82612138D01*
X147069769Y-82612138D01*
G37*
G36*
X145848310Y-83167547D02*
G01*
X145587215Y-83167547D01*
X145587215Y-83265000D01*
X146261814Y-83265000D01*
X146261814Y-83167547D01*
X145971897Y-83167547D01*
X145971897Y-82612138D01*
X146190983Y-82612138D01*
X146190983Y-82514685D01*
X145848310Y-82514685D01*
X145848310Y-83167547D01*
G37*
G36*
X145985575Y-82380840D02*
G01*
X145985575Y-82248949D01*
X145848310Y-82248949D01*
X145848310Y-82380840D01*
X145985575Y-82380840D01*
G37*
G36*
X144923607Y-83265000D02*
G01*
X144923607Y-82781154D01*
X144926466Y-82731712D01*
X144937727Y-82681778D01*
X144959755Y-82640471D01*
X144999399Y-82609082D01*
X145050945Y-82595674D01*
X145074549Y-82594553D01*
X145124843Y-82600707D01*
X145173279Y-82621691D01*
X145211051Y-82653691D01*
X145214500Y-82657568D01*
X145243223Y-82701340D01*
X145259977Y-82748241D01*
X145268115Y-82802251D01*
X145268966Y-82828538D01*
X145268966Y-83265000D01*
X145392797Y-83265000D01*
X145392797Y-82674909D01*
X145392996Y-82622412D01*
X145393835Y-82569274D01*
X145396447Y-82518717D01*
X145396950Y-82514685D01*
X145280202Y-82514685D01*
X145278736Y-82533004D01*
X145277026Y-82567198D01*
X145275202Y-82617984D01*
X145274584Y-82639738D01*
X145272630Y-82639738D01*
X145242248Y-82591927D01*
X145205322Y-82554009D01*
X145161853Y-82525982D01*
X145111842Y-82507847D01*
X145055287Y-82499603D01*
X145034982Y-82499054D01*
X144985841Y-82502163D01*
X144936779Y-82513329D01*
X144890634Y-82535599D01*
X144857661Y-82564023D01*
X144829443Y-82606093D01*
X144812114Y-82652766D01*
X144802936Y-82700768D01*
X144799344Y-82755455D01*
X144799287Y-82763813D01*
X144799287Y-83265000D01*
X144923607Y-83265000D01*
G37*
G36*
X144313718Y-82502574D02*
G01*
X144366249Y-82513136D01*
X144413438Y-82530739D01*
X144461742Y-82560174D01*
X144502777Y-82599193D01*
X144522812Y-82625511D01*
X144547857Y-82670024D01*
X144566890Y-82720582D01*
X144579913Y-82777185D01*
X144586174Y-82828973D01*
X144588262Y-82884958D01*
X144586899Y-82931268D01*
X144581364Y-82985282D01*
X144571572Y-83034990D01*
X144554201Y-83088958D01*
X144530699Y-83136725D01*
X144501067Y-83178293D01*
X144484059Y-83196582D01*
X144446089Y-83227763D01*
X144402846Y-83251749D01*
X144354331Y-83268538D01*
X144300545Y-83278133D01*
X144251695Y-83280631D01*
X144210845Y-83279068D01*
X144159799Y-83272123D01*
X144107042Y-83257667D01*
X144059232Y-83236179D01*
X144044518Y-83227455D01*
X144005708Y-83197161D01*
X143971967Y-83156250D01*
X143948101Y-83107707D01*
X144056545Y-83077421D01*
X144060199Y-83086847D01*
X144087809Y-83128245D01*
X144127620Y-83158265D01*
X144151756Y-83169781D01*
X144201045Y-83183663D01*
X144251695Y-83187819D01*
X144269336Y-83187198D01*
X144317984Y-83177893D01*
X144364514Y-83154456D01*
X144403125Y-83117233D01*
X144429808Y-83073258D01*
X144446196Y-83027001D01*
X144455683Y-82973996D01*
X144458324Y-82922083D01*
X143928073Y-82922083D01*
X143928073Y-82905230D01*
X143929374Y-82855797D01*
X143932004Y-82827316D01*
X144055812Y-82827316D01*
X144457103Y-82827316D01*
X144454812Y-82793968D01*
X144446061Y-82745398D01*
X144428736Y-82697800D01*
X144400195Y-82653660D01*
X144389782Y-82642355D01*
X144350208Y-82612702D01*
X144303143Y-82595405D01*
X144254382Y-82590401D01*
X144232597Y-82591326D01*
X144183604Y-82601738D01*
X144135124Y-82629501D01*
X144097892Y-82673923D01*
X144075458Y-82723666D01*
X144063136Y-82771789D01*
X144055812Y-82827316D01*
X143932004Y-82827316D01*
X143934661Y-82798547D01*
X143944015Y-82746341D01*
X143960607Y-82690353D01*
X143983055Y-82641630D01*
X144011360Y-82600170D01*
X144051443Y-82560771D01*
X144099029Y-82531048D01*
X144145789Y-82513273D01*
X144198062Y-82502609D01*
X144255847Y-82499054D01*
X144313718Y-82502574D01*
G37*
G36*
X143369490Y-82686632D02*
G01*
X143466454Y-82686632D01*
X143494542Y-82248949D01*
X143340669Y-82248949D01*
X143369490Y-82686632D01*
G37*
G36*
X142271130Y-83050799D02*
G01*
X142276137Y-83101738D01*
X142293739Y-83152076D01*
X142324016Y-83195033D01*
X142351241Y-83219570D01*
X142395022Y-83246284D01*
X142446496Y-83265366D01*
X142497847Y-83275801D01*
X142546551Y-83280094D01*
X142572525Y-83280631D01*
X142623261Y-83279094D01*
X142676419Y-83273416D01*
X142729213Y-83261803D01*
X142778462Y-83242206D01*
X142787947Y-83236912D01*
X142829063Y-83204497D01*
X142860209Y-83162208D01*
X142879716Y-83115704D01*
X142884423Y-83098426D01*
X142775247Y-83077421D01*
X142756510Y-83124819D01*
X142721973Y-83160235D01*
X142719315Y-83161929D01*
X142670061Y-83180128D01*
X142620626Y-83186888D01*
X142572525Y-83188551D01*
X142519120Y-83185600D01*
X142466982Y-83174265D01*
X142422628Y-83150298D01*
X142393662Y-83108738D01*
X142387145Y-83067651D01*
X142400311Y-83018459D01*
X142420850Y-82995355D01*
X142463471Y-82970321D01*
X142511228Y-82953756D01*
X142523921Y-82950415D01*
X142577323Y-82936695D01*
X142632873Y-82921491D01*
X142685917Y-82905489D01*
X142735501Y-82887663D01*
X142753998Y-82879096D01*
X142796984Y-82850031D01*
X142828736Y-82814616D01*
X142849128Y-82767908D01*
X142854870Y-82717651D01*
X142849113Y-82663484D01*
X142831841Y-82616389D01*
X142803054Y-82576364D01*
X142782086Y-82557184D01*
X142735986Y-82529084D01*
X142686347Y-82511827D01*
X142636227Y-82502687D01*
X142579865Y-82499111D01*
X142571304Y-82499054D01*
X142520748Y-82501193D01*
X142468693Y-82508875D01*
X142417431Y-82524196D01*
X142378352Y-82543750D01*
X142338486Y-82575492D01*
X142309258Y-82615153D01*
X142290668Y-82662733D01*
X142288227Y-82673199D01*
X142399601Y-82686632D01*
X142418784Y-82640866D01*
X142448450Y-82615314D01*
X142495881Y-82597958D01*
X142546731Y-82591724D01*
X142571304Y-82591133D01*
X142628494Y-82594894D01*
X142680261Y-82608789D01*
X142723153Y-82641697D01*
X142739423Y-82691530D01*
X142739587Y-82698112D01*
X142727386Y-82745992D01*
X142711255Y-82765279D01*
X142668133Y-82790292D01*
X142619420Y-82805579D01*
X142537599Y-82827316D01*
X142485590Y-82841208D01*
X142436459Y-82856762D01*
X142389897Y-82875669D01*
X142376643Y-82882515D01*
X142335233Y-82910991D01*
X142301238Y-82948108D01*
X142299462Y-82950659D01*
X142278213Y-82996088D01*
X142271157Y-83047107D01*
X142271130Y-83050799D01*
G37*
G36*
X147508918Y-84945000D02*
G01*
X147254905Y-84945000D01*
X147230685Y-84944523D01*
X147173257Y-84939167D01*
X147120289Y-84927861D01*
X147071782Y-84910603D01*
X147027735Y-84887393D01*
X146988148Y-84858233D01*
X146953021Y-84823122D01*
X146922624Y-84782413D01*
X146897379Y-84736612D01*
X146877287Y-84685718D01*
X146862346Y-84629732D01*
X146854103Y-84581276D01*
X146849157Y-84529561D01*
X146847508Y-84474588D01*
X146979399Y-84474588D01*
X146979468Y-84485856D01*
X146981889Y-84539537D01*
X146989360Y-84598098D01*
X147001810Y-84650271D01*
X147022631Y-84703065D01*
X147050230Y-84747163D01*
X147074119Y-84773267D01*
X147113714Y-84802381D01*
X147160485Y-84822822D01*
X147214432Y-84834591D01*
X147266385Y-84837777D01*
X147377759Y-84837777D01*
X147377759Y-84129961D01*
X147294717Y-84129961D01*
X147245590Y-84131971D01*
X147192353Y-84139687D01*
X147138122Y-84156004D01*
X147092376Y-84180199D01*
X147055115Y-84212271D01*
X147045946Y-84222913D01*
X147018514Y-84266199D01*
X146998328Y-84318883D01*
X146986793Y-84371519D01*
X146981248Y-84420656D01*
X146979399Y-84474588D01*
X146847508Y-84474588D01*
X146848483Y-84433051D01*
X146852814Y-84380800D01*
X146863102Y-84320520D01*
X146878803Y-84265834D01*
X146899919Y-84216741D01*
X146926450Y-84173241D01*
X146958394Y-84135334D01*
X146987913Y-84108945D01*
X147029868Y-84080906D01*
X147077439Y-84058365D01*
X147130627Y-84041321D01*
X147189433Y-84029776D01*
X147240522Y-84024498D01*
X147295205Y-84022739D01*
X147508918Y-84022739D01*
X147508918Y-84945000D01*
G37*
G36*
X146429777Y-84182286D02*
G01*
X146483892Y-84191984D01*
X146541532Y-84213196D01*
X146588057Y-84244510D01*
X146623468Y-84285925D01*
X146647763Y-84337442D01*
X146659197Y-84385928D01*
X146529992Y-84397896D01*
X146529537Y-84393944D01*
X146517248Y-84345431D01*
X146487494Y-84303618D01*
X146469624Y-84291722D01*
X146420911Y-84276695D01*
X146370502Y-84273087D01*
X146342163Y-84274539D01*
X146294604Y-84286148D01*
X146254486Y-84314364D01*
X146235295Y-84345186D01*
X146221648Y-84395836D01*
X146218094Y-84449431D01*
X146218094Y-84491685D01*
X146380272Y-84494371D01*
X146436011Y-84497099D01*
X146486268Y-84504000D01*
X146544749Y-84519693D01*
X146593483Y-84542804D01*
X146640694Y-84582126D01*
X146672676Y-84633040D01*
X146687296Y-84682118D01*
X146692170Y-84738614D01*
X146691687Y-84757599D01*
X146684442Y-84809918D01*
X146666195Y-84859892D01*
X146637215Y-84901280D01*
X146618730Y-84918378D01*
X146573888Y-84943881D01*
X146524558Y-84956922D01*
X146473572Y-84960631D01*
X146420621Y-84957077D01*
X146368766Y-84944958D01*
X146323607Y-84924239D01*
X146316068Y-84919508D01*
X146276854Y-84886971D01*
X146244511Y-84847825D01*
X146218094Y-84804804D01*
X146213942Y-84804804D01*
X146211983Y-84828878D01*
X146201879Y-84878188D01*
X146178527Y-84923018D01*
X146172337Y-84929740D01*
X146128228Y-84954423D01*
X146078632Y-84960631D01*
X146033441Y-84958216D01*
X145983133Y-84949640D01*
X145983133Y-84872704D01*
X146023677Y-84877588D01*
X146037962Y-84876584D01*
X146078632Y-84849012D01*
X146089439Y-84813475D01*
X146093042Y-84764016D01*
X146093042Y-84639696D01*
X146218094Y-84639696D01*
X146218537Y-84653809D01*
X146227059Y-84702361D01*
X146246426Y-84749605D01*
X146253803Y-84762584D01*
X146285212Y-84802782D01*
X146325317Y-84834846D01*
X146341562Y-84843993D01*
X146390983Y-84861357D01*
X146442065Y-84866598D01*
X146488314Y-84860006D01*
X146531702Y-84832159D01*
X146554600Y-84791981D01*
X146562232Y-84740812D01*
X146557698Y-84695365D01*
X146538541Y-84649710D01*
X146516188Y-84624830D01*
X146472351Y-84598907D01*
X146448583Y-84591550D01*
X146399737Y-84583630D01*
X146348520Y-84580833D01*
X146218094Y-84578147D01*
X146218094Y-84639696D01*
X146093042Y-84639696D01*
X146093042Y-84435509D01*
X146096350Y-84383817D01*
X146108230Y-84331610D01*
X146128750Y-84286731D01*
X146162163Y-84245000D01*
X146175680Y-84233214D01*
X146217625Y-84207454D01*
X146268149Y-84189938D01*
X146319395Y-84181372D01*
X146368548Y-84179054D01*
X146429777Y-84182286D01*
G37*
G36*
X145739134Y-85241999D02*
G01*
X145788493Y-85239862D01*
X145824375Y-85234427D01*
X145824375Y-85141615D01*
X145774526Y-85145702D01*
X145766734Y-85145767D01*
X145717349Y-85136966D01*
X145673872Y-85112870D01*
X145664884Y-85105711D01*
X145631076Y-85069006D01*
X145603766Y-85023653D01*
X145584040Y-84978217D01*
X145571583Y-84945000D01*
X145894473Y-84194685D01*
X145762581Y-84194685D01*
X145581353Y-84646290D01*
X145563221Y-84692187D01*
X145545178Y-84738464D01*
X145527424Y-84785232D01*
X145513942Y-84824832D01*
X145485854Y-84747407D01*
X145272874Y-84194685D01*
X145142449Y-84194685D01*
X145455568Y-84946709D01*
X145474763Y-84995322D01*
X145498096Y-85047391D01*
X145521755Y-85092626D01*
X145549770Y-85136761D01*
X145582330Y-85175809D01*
X145621198Y-85207805D01*
X145669188Y-85231075D01*
X145722234Y-85241417D01*
X145739134Y-85241999D01*
G37*
G36*
X149357347Y-86265230D02*
G01*
X149355922Y-86323418D01*
X149351647Y-86379828D01*
X149344521Y-86434462D01*
X149334545Y-86487319D01*
X149321718Y-86538399D01*
X149306042Y-86587702D01*
X149298973Y-86606926D01*
X149278936Y-86654868D01*
X149255310Y-86703287D01*
X149228094Y-86752183D01*
X149197288Y-86801557D01*
X149162892Y-86851407D01*
X149132791Y-86891631D01*
X149108708Y-86921999D01*
X149239134Y-86921999D01*
X149270942Y-86881554D01*
X149300423Y-86841429D01*
X149334001Y-86791724D01*
X149363941Y-86742520D01*
X149390243Y-86693817D01*
X149412909Y-86645615D01*
X149428422Y-86607414D01*
X149444957Y-86558839D01*
X149458690Y-86508367D01*
X149469620Y-86455999D01*
X149477747Y-86401735D01*
X149483072Y-86345574D01*
X149485595Y-86287518D01*
X149485819Y-86263764D01*
X149484447Y-86205970D01*
X149480333Y-86149977D01*
X149473476Y-86095784D01*
X149463875Y-86043392D01*
X149451532Y-85992801D01*
X149436446Y-85944011D01*
X149429643Y-85925000D01*
X149410116Y-85877484D01*
X149386796Y-85829277D01*
X149359683Y-85780379D01*
X149328778Y-85730788D01*
X149294081Y-85680506D01*
X149263593Y-85639783D01*
X149239134Y-85608949D01*
X149108708Y-85608949D01*
X149140532Y-85649410D01*
X149170059Y-85689580D01*
X149203736Y-85739385D01*
X149233824Y-85788737D01*
X149260322Y-85837635D01*
X149283231Y-85886081D01*
X149298973Y-85924511D01*
X149315790Y-85973144D01*
X149329756Y-86023482D01*
X149340872Y-86075525D01*
X149349138Y-86129274D01*
X149354554Y-86184729D01*
X149357119Y-86241888D01*
X149357347Y-86265230D01*
G37*
G36*
X147619315Y-85796528D02*
G01*
X147669743Y-85791924D01*
X147718987Y-85776227D01*
X147761709Y-85749389D01*
X147796090Y-85713373D01*
X147820312Y-85670143D01*
X147833516Y-85624581D01*
X147746321Y-85624581D01*
X147723255Y-85670011D01*
X147705044Y-85687595D01*
X147657703Y-85706906D01*
X147619315Y-85710066D01*
X147568268Y-85704448D01*
X147531876Y-85687595D01*
X147499888Y-85648156D01*
X147490843Y-85624581D01*
X147403649Y-85624581D01*
X147419661Y-85675008D01*
X147445198Y-85717817D01*
X147476677Y-85750122D01*
X147519097Y-85776542D01*
X147568444Y-85791996D01*
X147619315Y-85796528D01*
G37*
G36*
X145727410Y-86081315D02*
G01*
X145733702Y-86132149D01*
X145754916Y-86177928D01*
X145780655Y-86205635D01*
X145826805Y-86232574D01*
X145874762Y-86245525D01*
X145925305Y-86249799D01*
X145931353Y-86249842D01*
X145988461Y-86245871D01*
X146037055Y-86233957D01*
X146084127Y-86209176D01*
X146118937Y-86172958D01*
X146141486Y-86125302D01*
X146149706Y-86087177D01*
X146056405Y-86077896D01*
X146041477Y-86126421D01*
X146006310Y-86161712D01*
X145957937Y-86176711D01*
X145931353Y-86178279D01*
X145878223Y-86170165D01*
X145836899Y-86138208D01*
X145821873Y-86088119D01*
X145821443Y-86075697D01*
X145834109Y-86025723D01*
X145872105Y-85994258D01*
X145920740Y-85982412D01*
X145951136Y-85980931D01*
X145993146Y-85980931D01*
X145993146Y-85905949D01*
X145954067Y-85905949D01*
X145904974Y-85899415D01*
X145867605Y-85879815D01*
X145840319Y-85838942D01*
X145835854Y-85806542D01*
X145846793Y-85757475D01*
X145861255Y-85738154D01*
X145907264Y-85715453D01*
X145935505Y-85712997D01*
X145984617Y-85722124D01*
X146010976Y-85738886D01*
X146038179Y-85782013D01*
X146043949Y-85812159D01*
X146136761Y-85803611D01*
X146125267Y-85754340D01*
X146100680Y-85710004D01*
X146073991Y-85683199D01*
X146028836Y-85657004D01*
X145979238Y-85643613D01*
X145932818Y-85640212D01*
X145880716Y-85644363D01*
X145832110Y-85658515D01*
X145792623Y-85682711D01*
X145759730Y-85721557D01*
X145743606Y-85769432D01*
X145741820Y-85794574D01*
X145749209Y-85844338D01*
X145771374Y-85887142D01*
X145808987Y-85919993D01*
X145855122Y-85938519D01*
X145862720Y-85940387D01*
X145862720Y-85941852D01*
X145813012Y-85952992D01*
X145770855Y-85977793D01*
X145763802Y-85984351D01*
X145736508Y-86026666D01*
X145727445Y-86077538D01*
X145727410Y-86081315D01*
G37*
G36*
X145098729Y-85796528D02*
G01*
X145149156Y-85791924D01*
X145198401Y-85776227D01*
X145241122Y-85749389D01*
X145275503Y-85713373D01*
X145299725Y-85670143D01*
X145312930Y-85624581D01*
X145225735Y-85624581D01*
X145202669Y-85670011D01*
X145184458Y-85687595D01*
X145137117Y-85706906D01*
X145098729Y-85710066D01*
X145047682Y-85704448D01*
X145011290Y-85687595D01*
X144979302Y-85648156D01*
X144970257Y-85624581D01*
X144883062Y-85624581D01*
X144899075Y-85675008D01*
X144924611Y-85717817D01*
X144956091Y-85750122D01*
X144998511Y-85776542D01*
X145047858Y-85791996D01*
X145098729Y-85796528D01*
G37*
G36*
X144071688Y-86263764D02*
G01*
X144073071Y-86322913D01*
X144077221Y-86380071D01*
X144084138Y-86435236D01*
X144093822Y-86488411D01*
X144106273Y-86539593D01*
X144121490Y-86588784D01*
X144128352Y-86607903D01*
X144147896Y-86655563D01*
X144171114Y-86703749D01*
X144198004Y-86752459D01*
X144228568Y-86801694D01*
X144262805Y-86851454D01*
X144292839Y-86891639D01*
X144316908Y-86921999D01*
X144448799Y-86921999D01*
X144416356Y-86880741D01*
X144386318Y-86839887D01*
X144358684Y-86799439D01*
X144327523Y-86749446D01*
X144300119Y-86700086D01*
X144276471Y-86651358D01*
X144256580Y-86603262D01*
X144239904Y-86554630D01*
X144226054Y-86504448D01*
X144215031Y-86452716D01*
X144206834Y-86399434D01*
X144201464Y-86344601D01*
X144198920Y-86288217D01*
X144198694Y-86265230D01*
X144200107Y-86208373D01*
X144204347Y-86153055D01*
X144211413Y-86099275D01*
X144221306Y-86047033D01*
X144234025Y-85996330D01*
X144249570Y-85947165D01*
X144256580Y-85927930D01*
X144276471Y-85879764D01*
X144300119Y-85830977D01*
X144327523Y-85781571D01*
X144358684Y-85731544D01*
X144386318Y-85691076D01*
X144416356Y-85650211D01*
X144448799Y-85608949D01*
X144316908Y-85608949D01*
X144284667Y-85649990D01*
X144254870Y-85690557D01*
X144221057Y-85740600D01*
X144191061Y-85789905D01*
X144164882Y-85838469D01*
X144142518Y-85886295D01*
X144127375Y-85924023D01*
X144111332Y-85971859D01*
X144098009Y-86021639D01*
X144087404Y-86073362D01*
X144079519Y-86127030D01*
X144074352Y-86182642D01*
X144071905Y-86240198D01*
X144071688Y-86263764D01*
G37*
G36*
X143435435Y-86625000D02*
G01*
X143444451Y-86575279D01*
X143464647Y-86527543D01*
X143476468Y-86505565D01*
X143503353Y-86461962D01*
X143533868Y-86418273D01*
X143565678Y-86376238D01*
X143596738Y-86337381D01*
X143607871Y-86323848D01*
X143645709Y-86275854D01*
X143678502Y-86230547D01*
X143706251Y-86187927D01*
X143733841Y-86138430D01*
X143753549Y-86093130D01*
X143766792Y-86044312D01*
X143769315Y-86015125D01*
X143762835Y-85966224D01*
X143746356Y-85927198D01*
X143715427Y-85888249D01*
X143684319Y-85865648D01*
X143638612Y-85847677D01*
X143601032Y-85843422D01*
X143549754Y-85852118D01*
X143505990Y-85875764D01*
X143490145Y-85888852D01*
X143456898Y-85926038D01*
X143431894Y-85969818D01*
X143419804Y-86002669D01*
X143415651Y-86002669D01*
X143396108Y-85954080D01*
X143368253Y-85912360D01*
X143345065Y-85888363D01*
X143302492Y-85859266D01*
X143252857Y-85844520D01*
X143234179Y-85843422D01*
X143183694Y-85851258D01*
X143151136Y-85865648D01*
X143112076Y-85896020D01*
X143088854Y-85927442D01*
X143070290Y-85974780D01*
X143065896Y-86015125D01*
X143073621Y-86067966D01*
X143092540Y-86119806D01*
X143116978Y-86167624D01*
X143149298Y-86219640D01*
X143180830Y-86264276D01*
X143217408Y-86311598D01*
X143227340Y-86323848D01*
X143261733Y-86367033D01*
X143293892Y-86408792D01*
X143323805Y-86450019D01*
X143332120Y-86462334D01*
X143358113Y-86504713D01*
X143381213Y-86550017D01*
X143397165Y-86598541D01*
X143399776Y-86625000D01*
X143435435Y-86625000D01*
G37*
D11*
X113486666Y-82894819D02*
X113962856Y-82894819D01*
X113962856Y-82894819D02*
X113962856Y-81894819D01*
X112629523Y-82894819D02*
X113200951Y-82894819D01*
X112915237Y-82894819D02*
X112915237Y-81894819D01*
X112915237Y-81894819D02*
X113010475Y-82037676D01*
X113010475Y-82037676D02*
X113105713Y-82132914D01*
X113105713Y-82132914D02*
X113200951Y-82180533D01*
X109879580Y-80533333D02*
X109927200Y-80485714D01*
X109927200Y-80485714D02*
X109974819Y-80342857D01*
X109974819Y-80342857D02*
X109974819Y-80247619D01*
X109974819Y-80247619D02*
X109927200Y-80104762D01*
X109927200Y-80104762D02*
X109831961Y-80009524D01*
X109831961Y-80009524D02*
X109736723Y-79961905D01*
X109736723Y-79961905D02*
X109546247Y-79914286D01*
X109546247Y-79914286D02*
X109403390Y-79914286D01*
X109403390Y-79914286D02*
X109212914Y-79961905D01*
X109212914Y-79961905D02*
X109117676Y-80009524D01*
X109117676Y-80009524D02*
X109022438Y-80104762D01*
X109022438Y-80104762D02*
X108974819Y-80247619D01*
X108974819Y-80247619D02*
X108974819Y-80342857D01*
X108974819Y-80342857D02*
X109022438Y-80485714D01*
X109022438Y-80485714D02*
X109070057Y-80533333D01*
X108974819Y-80866667D02*
X108974819Y-81485714D01*
X108974819Y-81485714D02*
X109355771Y-81152381D01*
X109355771Y-81152381D02*
X109355771Y-81295238D01*
X109355771Y-81295238D02*
X109403390Y-81390476D01*
X109403390Y-81390476D02*
X109451009Y-81438095D01*
X109451009Y-81438095D02*
X109546247Y-81485714D01*
X109546247Y-81485714D02*
X109784342Y-81485714D01*
X109784342Y-81485714D02*
X109879580Y-81438095D01*
X109879580Y-81438095D02*
X109927200Y-81390476D01*
X109927200Y-81390476D02*
X109974819Y-81295238D01*
X109974819Y-81295238D02*
X109974819Y-81009524D01*
X109974819Y-81009524D02*
X109927200Y-80914286D01*
X109927200Y-80914286D02*
X109879580Y-80866667D01*
X117996666Y-88739580D02*
X118044285Y-88787200D01*
X118044285Y-88787200D02*
X118187142Y-88834819D01*
X118187142Y-88834819D02*
X118282380Y-88834819D01*
X118282380Y-88834819D02*
X118425237Y-88787200D01*
X118425237Y-88787200D02*
X118520475Y-88691961D01*
X118520475Y-88691961D02*
X118568094Y-88596723D01*
X118568094Y-88596723D02*
X118615713Y-88406247D01*
X118615713Y-88406247D02*
X118615713Y-88263390D01*
X118615713Y-88263390D02*
X118568094Y-88072914D01*
X118568094Y-88072914D02*
X118520475Y-87977676D01*
X118520475Y-87977676D02*
X118425237Y-87882438D01*
X118425237Y-87882438D02*
X118282380Y-87834819D01*
X118282380Y-87834819D02*
X118187142Y-87834819D01*
X118187142Y-87834819D02*
X118044285Y-87882438D01*
X118044285Y-87882438D02*
X117996666Y-87930057D01*
X117139523Y-88168152D02*
X117139523Y-88834819D01*
X117377618Y-87787200D02*
X117615713Y-88501485D01*
X117615713Y-88501485D02*
X116996666Y-88501485D01*
X122542866Y-113854580D02*
X122590485Y-113902200D01*
X122590485Y-113902200D02*
X122733342Y-113949819D01*
X122733342Y-113949819D02*
X122828580Y-113949819D01*
X122828580Y-113949819D02*
X122971437Y-113902200D01*
X122971437Y-113902200D02*
X123066675Y-113806961D01*
X123066675Y-113806961D02*
X123114294Y-113711723D01*
X123114294Y-113711723D02*
X123161913Y-113521247D01*
X123161913Y-113521247D02*
X123161913Y-113378390D01*
X123161913Y-113378390D02*
X123114294Y-113187914D01*
X123114294Y-113187914D02*
X123066675Y-113092676D01*
X123066675Y-113092676D02*
X122971437Y-112997438D01*
X122971437Y-112997438D02*
X122828580Y-112949819D01*
X122828580Y-112949819D02*
X122733342Y-112949819D01*
X122733342Y-112949819D02*
X122590485Y-112997438D01*
X122590485Y-112997438D02*
X122542866Y-113045057D01*
X121590485Y-113949819D02*
X122161913Y-113949819D01*
X121876199Y-113949819D02*
X121876199Y-112949819D01*
X121876199Y-112949819D02*
X121971437Y-113092676D01*
X121971437Y-113092676D02*
X122066675Y-113187914D01*
X122066675Y-113187914D02*
X122161913Y-113235533D01*
X122536666Y-112524819D02*
X122869999Y-112048628D01*
X123108094Y-112524819D02*
X123108094Y-111524819D01*
X123108094Y-111524819D02*
X122727142Y-111524819D01*
X122727142Y-111524819D02*
X122631904Y-111572438D01*
X122631904Y-111572438D02*
X122584285Y-111620057D01*
X122584285Y-111620057D02*
X122536666Y-111715295D01*
X122536666Y-111715295D02*
X122536666Y-111858152D01*
X122536666Y-111858152D02*
X122584285Y-111953390D01*
X122584285Y-111953390D02*
X122631904Y-112001009D01*
X122631904Y-112001009D02*
X122727142Y-112048628D01*
X122727142Y-112048628D02*
X123108094Y-112048628D01*
X122155713Y-111620057D02*
X122108094Y-111572438D01*
X122108094Y-111572438D02*
X122012856Y-111524819D01*
X122012856Y-111524819D02*
X121774761Y-111524819D01*
X121774761Y-111524819D02*
X121679523Y-111572438D01*
X121679523Y-111572438D02*
X121631904Y-111620057D01*
X121631904Y-111620057D02*
X121584285Y-111715295D01*
X121584285Y-111715295D02*
X121584285Y-111810533D01*
X121584285Y-111810533D02*
X121631904Y-111953390D01*
X121631904Y-111953390D02*
X122203332Y-112524819D01*
X122203332Y-112524819D02*
X121584285Y-112524819D01*
X143935714Y-91571009D02*
X143792857Y-91618628D01*
X143792857Y-91618628D02*
X143745238Y-91666247D01*
X143745238Y-91666247D02*
X143697619Y-91761485D01*
X143697619Y-91761485D02*
X143697619Y-91904342D01*
X143697619Y-91904342D02*
X143745238Y-91999580D01*
X143745238Y-91999580D02*
X143792857Y-92047200D01*
X143792857Y-92047200D02*
X143888095Y-92094819D01*
X143888095Y-92094819D02*
X144269047Y-92094819D01*
X144269047Y-92094819D02*
X144269047Y-91094819D01*
X144269047Y-91094819D02*
X143935714Y-91094819D01*
X143935714Y-91094819D02*
X143840476Y-91142438D01*
X143840476Y-91142438D02*
X143792857Y-91190057D01*
X143792857Y-91190057D02*
X143745238Y-91285295D01*
X143745238Y-91285295D02*
X143745238Y-91380533D01*
X143745238Y-91380533D02*
X143792857Y-91475771D01*
X143792857Y-91475771D02*
X143840476Y-91523390D01*
X143840476Y-91523390D02*
X143935714Y-91571009D01*
X143935714Y-91571009D02*
X144269047Y-91571009D01*
X143411904Y-91094819D02*
X142840476Y-91094819D01*
X143126190Y-92094819D02*
X143126190Y-91094819D01*
X141983333Y-92094819D02*
X142554761Y-92094819D01*
X142269047Y-92094819D02*
X142269047Y-91094819D01*
X142269047Y-91094819D02*
X142364285Y-91237676D01*
X142364285Y-91237676D02*
X142459523Y-91332914D01*
X142459523Y-91332914D02*
X142554761Y-91380533D01*
X120414819Y-80978095D02*
X121224342Y-80978095D01*
X121224342Y-80978095D02*
X121319580Y-81025714D01*
X121319580Y-81025714D02*
X121367200Y-81073333D01*
X121367200Y-81073333D02*
X121414819Y-81168571D01*
X121414819Y-81168571D02*
X121414819Y-81359047D01*
X121414819Y-81359047D02*
X121367200Y-81454285D01*
X121367200Y-81454285D02*
X121319580Y-81501904D01*
X121319580Y-81501904D02*
X121224342Y-81549523D01*
X121224342Y-81549523D02*
X120414819Y-81549523D01*
X120414819Y-81930476D02*
X120414819Y-82549523D01*
X120414819Y-82549523D02*
X120795771Y-82216190D01*
X120795771Y-82216190D02*
X120795771Y-82359047D01*
X120795771Y-82359047D02*
X120843390Y-82454285D01*
X120843390Y-82454285D02*
X120891009Y-82501904D01*
X120891009Y-82501904D02*
X120986247Y-82549523D01*
X120986247Y-82549523D02*
X121224342Y-82549523D01*
X121224342Y-82549523D02*
X121319580Y-82501904D01*
X121319580Y-82501904D02*
X121367200Y-82454285D01*
X121367200Y-82454285D02*
X121414819Y-82359047D01*
X121414819Y-82359047D02*
X121414819Y-82073333D01*
X121414819Y-82073333D02*
X121367200Y-81978095D01*
X121367200Y-81978095D02*
X121319580Y-81930476D01*
D10*
X130876115Y-108872419D02*
X130876115Y-109681942D01*
X130876115Y-109681942D02*
X130828496Y-109777180D01*
X130828496Y-109777180D02*
X130780877Y-109824800D01*
X130780877Y-109824800D02*
X130685639Y-109872419D01*
X130685639Y-109872419D02*
X130495163Y-109872419D01*
X130495163Y-109872419D02*
X130399925Y-109824800D01*
X130399925Y-109824800D02*
X130352306Y-109777180D01*
X130352306Y-109777180D02*
X130304687Y-109681942D01*
X130304687Y-109681942D02*
X130304687Y-108872419D01*
X129304687Y-109872419D02*
X129876115Y-109872419D01*
X129590401Y-109872419D02*
X129590401Y-108872419D01*
X129590401Y-108872419D02*
X129685639Y-109015276D01*
X129685639Y-109015276D02*
X129780877Y-109110514D01*
X129780877Y-109110514D02*
X129876115Y-109158133D01*
D11*
X138206666Y-113774819D02*
X138539999Y-113298628D01*
X138778094Y-113774819D02*
X138778094Y-112774819D01*
X138778094Y-112774819D02*
X138397142Y-112774819D01*
X138397142Y-112774819D02*
X138301904Y-112822438D01*
X138301904Y-112822438D02*
X138254285Y-112870057D01*
X138254285Y-112870057D02*
X138206666Y-112965295D01*
X138206666Y-112965295D02*
X138206666Y-113108152D01*
X138206666Y-113108152D02*
X138254285Y-113203390D01*
X138254285Y-113203390D02*
X138301904Y-113251009D01*
X138301904Y-113251009D02*
X138397142Y-113298628D01*
X138397142Y-113298628D02*
X138778094Y-113298628D01*
X137254285Y-113774819D02*
X137825713Y-113774819D01*
X137539999Y-113774819D02*
X137539999Y-112774819D01*
X137539999Y-112774819D02*
X137635237Y-112917676D01*
X137635237Y-112917676D02*
X137730475Y-113012914D01*
X137730475Y-113012914D02*
X137825713Y-113060533D01*
X116031904Y-86107200D02*
X115889047Y-86154819D01*
X115889047Y-86154819D02*
X115650952Y-86154819D01*
X115650952Y-86154819D02*
X115555714Y-86107200D01*
X115555714Y-86107200D02*
X115508095Y-86059580D01*
X115508095Y-86059580D02*
X115460476Y-85964342D01*
X115460476Y-85964342D02*
X115460476Y-85869104D01*
X115460476Y-85869104D02*
X115508095Y-85773866D01*
X115508095Y-85773866D02*
X115555714Y-85726247D01*
X115555714Y-85726247D02*
X115650952Y-85678628D01*
X115650952Y-85678628D02*
X115841428Y-85631009D01*
X115841428Y-85631009D02*
X115936666Y-85583390D01*
X115936666Y-85583390D02*
X115984285Y-85535771D01*
X115984285Y-85535771D02*
X116031904Y-85440533D01*
X116031904Y-85440533D02*
X116031904Y-85345295D01*
X116031904Y-85345295D02*
X115984285Y-85250057D01*
X115984285Y-85250057D02*
X115936666Y-85202438D01*
X115936666Y-85202438D02*
X115841428Y-85154819D01*
X115841428Y-85154819D02*
X115603333Y-85154819D01*
X115603333Y-85154819D02*
X115460476Y-85202438D01*
X114508095Y-86154819D02*
X115079523Y-86154819D01*
X114793809Y-86154819D02*
X114793809Y-85154819D01*
X114793809Y-85154819D02*
X114889047Y-85297676D01*
X114889047Y-85297676D02*
X114984285Y-85392914D01*
X114984285Y-85392914D02*
X115079523Y-85440533D01*
%TO.C,L1*%
X112750000Y-78930000D02*
X112890000Y-78770000D01*
X112750000Y-79690000D02*
X112750000Y-78920000D01*
X112750000Y-80710000D02*
X112750000Y-81470000D01*
X112890000Y-78770000D02*
X113900000Y-78770000D01*
X112900000Y-81620000D02*
X112750000Y-81470000D01*
X113900000Y-78770000D02*
X114050000Y-78930000D01*
X113920000Y-81620000D02*
X112900000Y-81620000D01*
X114050000Y-79690000D02*
X114050000Y-78920000D01*
X114050000Y-80710000D02*
X114050000Y-81470000D01*
X114050000Y-81470000D02*
X113920000Y-81620000D01*
D12*
%TO.C,C3*%
X110360000Y-80390000D02*
X111960000Y-80390000D01*
X110360000Y-82310000D02*
X110360000Y-79110000D01*
X111960000Y-82280000D02*
X111960000Y-79130000D01*
%TO.C,C4*%
X117050000Y-85140000D02*
X118650000Y-85140000D01*
X117050000Y-87060000D02*
X117050000Y-83860000D01*
X118650000Y-87030000D02*
X118650000Y-83880000D01*
D13*
%TO.C,C1*%
X123566200Y-113925000D02*
X123566200Y-113125000D01*
X123876200Y-112815000D02*
X124676200Y-112815000D01*
X123876200Y-114235000D02*
X124676200Y-114235000D01*
X126036200Y-112815000D02*
X125236200Y-112815000D01*
X126036200Y-114235000D02*
X125236200Y-114235000D01*
X126346200Y-113125000D02*
X126346200Y-113925000D01*
X123566200Y-113125000D02*
G75*
G02*
X123876200Y-112815000I310000J0D01*
G01*
X123876200Y-114235000D02*
G75*
G02*
X123566200Y-113925000I0J310000D01*
G01*
X126036200Y-112815000D02*
G75*
G02*
X126346200Y-113125000I0J-310000D01*
G01*
X126346200Y-113925000D02*
G75*
G02*
X126036200Y-114235000I-310000J0D01*
G01*
D11*
%TO.C,R2*%
X124450000Y-111560000D02*
X124450000Y-112560000D01*
X124450000Y-112560000D02*
X125160000Y-112560000D01*
X125160000Y-111560000D02*
X124450000Y-111560000D01*
X125620000Y-111560000D02*
X126330000Y-111560000D01*
X126330000Y-111560000D02*
X126330000Y-112560000D01*
X126330000Y-112560000D02*
X125620000Y-112560000D01*
D14*
%TO.C,BT1*%
X115380000Y-95770000D02*
X118580000Y-95770000D01*
X115380000Y-97320000D02*
X115380000Y-95770000D01*
X115380000Y-101920000D02*
X115380000Y-103470000D01*
X115380000Y-103470000D02*
X118580000Y-103470000D01*
X118580000Y-91270000D02*
X141280000Y-91270000D01*
X118580000Y-95770000D02*
X118580000Y-91270000D01*
X118580000Y-103470000D02*
X118580000Y-107970000D01*
X139480000Y-107970000D02*
X118580000Y-107970000D01*
X141280000Y-95770000D02*
X141280000Y-91270000D01*
X141280000Y-103470000D02*
X141280000Y-106170000D01*
X141280000Y-106170000D02*
X139480000Y-107970000D01*
X142930000Y-106620000D02*
X142930000Y-104620000D01*
X143930000Y-105620000D02*
X141930000Y-105620000D01*
X144480000Y-95770000D02*
X141280000Y-95770000D01*
X144480000Y-97320000D02*
X144480000Y-95770000D01*
X144480000Y-101920000D02*
X144480000Y-103470000D01*
X144480000Y-103470000D02*
X141280000Y-103470000D01*
D13*
%TO.C,U3*%
X117310000Y-82070000D02*
X117310000Y-81310000D01*
X118620000Y-83090000D02*
X117780000Y-83090000D01*
X118900000Y-80170000D02*
X117500000Y-80170000D01*
D15*
%TO.C,U1*%
X128794600Y-115184200D02*
X131537800Y-115184200D01*
X129861400Y-110205800D02*
X128794600Y-110205800D01*
X130471000Y-110205800D02*
X129861400Y-110205800D01*
X131537800Y-110205800D02*
X130471000Y-110205800D01*
X130471000Y-110205800D02*
G75*
G02*
X129861400Y-110205800I-304800J0D01*
G01*
D11*
%TO.C,R1*%
X136906200Y-113995000D02*
X135946200Y-113995000D01*
X136906200Y-112675000D02*
X136906200Y-113995000D01*
X135946200Y-112675000D02*
X136906200Y-112675000D01*
X135086200Y-112675000D02*
X134126200Y-112675000D01*
X134126200Y-113995000D02*
X135086200Y-113995000D01*
X134126200Y-112675000D02*
X134126200Y-113995000D01*
%TO.C,S1*%
X114390000Y-81170000D02*
X114390000Y-83990000D01*
X114390000Y-83410000D02*
X116130000Y-83410000D01*
X114390000Y-83550000D02*
X116130000Y-83550000D01*
X114390000Y-83990000D02*
X114500000Y-83990000D01*
X114390000Y-84160000D02*
X114390000Y-83990000D01*
X114500000Y-83990000D02*
X114500000Y-84160000D01*
X114500000Y-84160000D02*
X114390000Y-84160000D01*
X114560000Y-81170000D02*
X114390000Y-81170000D01*
X115960000Y-81170000D02*
X116130000Y-81170000D01*
X116020000Y-83990000D02*
X116020000Y-84160000D01*
X116020000Y-83990000D02*
X116130000Y-83990000D01*
X116130000Y-81170000D02*
X116130000Y-83990000D01*
X116130000Y-83990000D02*
X116130000Y-84160000D01*
X116130000Y-84160000D02*
X116020000Y-84160000D01*
%TD*%
M02*
