%TF.GenerationSoftware,KiCad,Pcbnew,8.0.7-8.0.7-0~ubuntu24.04.1*%
%TF.CreationDate,2025-01-10T15:07:11-06:00*%
%TF.ProjectId,HeartLEDChaser_PCB,48656172-744c-4454-9443-68617365725f,rev?*%
%TF.SameCoordinates,Original*%
%TF.FileFunction,Soldermask,Top*%
%TF.FilePolarity,Negative*%
%FSLAX46Y46*%
G04 Gerber Fmt 4.6, Leading zero omitted, Abs format (unit mm)*
G04 Created by KiCad (PCBNEW 8.0.7-8.0.7-0~ubuntu24.04.1) date 2025-01-10 15:07:11*
%MOMM*%
%LPD*%
G01*
G04 APERTURE LIST*
G04 Aperture macros list*
%AMRoundRect*
0 Rectangle with rounded corners*
0 $1 Rounding radius*
0 $2 $3 $4 $5 $6 $7 $8 $9 X,Y pos of 4 corners*
0 Add a 4 corners polygon primitive as box body*
4,1,4,$2,$3,$4,$5,$6,$7,$8,$9,$2,$3,0*
0 Add four circle primitives for the rounded corners*
1,1,$1+$1,$2,$3*
1,1,$1+$1,$4,$5*
1,1,$1+$1,$6,$7*
1,1,$1+$1,$8,$9*
0 Add four rect primitives between the rounded corners*
20,1,$1+$1,$2,$3,$4,$5,0*
20,1,$1+$1,$4,$5,$6,$7,0*
20,1,$1+$1,$6,$7,$8,$9,0*
20,1,$1+$1,$8,$9,$2,$3,0*%
G04 Aperture macros list end*
%ADD10R,0.540000X0.570000*%
%ADD11R,1.800000X1.800000*%
%ADD12C,1.800000*%
%ADD13RoundRect,0.100500X-0.986500X-0.301500X0.986500X-0.301500X0.986500X0.301500X-0.986500X0.301500X0*%
%ADD14C,1.600000*%
%ADD15O,2.300000X1.300000*%
%ADD16R,0.570000X0.540000*%
%ADD17C,2.100000*%
G04 APERTURE END LIST*
D10*
%TO.C,R11*%
X156820000Y-87260000D03*
X156820000Y-88120000D03*
%TD*%
D11*
%TO.C,D3*%
X103660000Y-84140000D03*
D12*
X106200000Y-84140000D03*
%TD*%
D10*
%TO.C,R9*%
X143440000Y-112790000D03*
X143440000Y-113650000D03*
%TD*%
D11*
%TO.C,D9*%
X156190000Y-84140000D03*
D12*
X153650000Y-84140000D03*
%TD*%
D11*
%TO.C,D8*%
X152740000Y-99050000D03*
D12*
X150200000Y-99050000D03*
%TD*%
D11*
%TO.C,D2*%
X115640000Y-76240000D03*
D12*
X118180000Y-76240000D03*
%TD*%
D11*
%TO.C,D4*%
X107120000Y-99030000D03*
D12*
X109660000Y-99030000D03*
%TD*%
D10*
%TO.C,R5*%
X103050000Y-87260000D03*
X103050000Y-88120000D03*
%TD*%
D13*
%TO.C,U2*%
X127670000Y-96370000D03*
X127670000Y-97640000D03*
X127670000Y-98910000D03*
X127670000Y-100180000D03*
X127670000Y-101450000D03*
X127670000Y-102720000D03*
X127670000Y-103990000D03*
X127670000Y-105260000D03*
X132620000Y-105260000D03*
X132620000Y-103990000D03*
X132620000Y-102720000D03*
X132620000Y-101450000D03*
X132620000Y-100180000D03*
X132620000Y-98910000D03*
X132620000Y-97640000D03*
X132620000Y-96370000D03*
%TD*%
D10*
%TO.C,R6*%
X106500000Y-102080000D03*
X106500000Y-102940000D03*
%TD*%
D14*
%TO.C,U4*%
X136250000Y-85870000D03*
X136250000Y-82870000D03*
X136250000Y-79870000D03*
D15*
X136250000Y-77020000D03*
X136250000Y-88720000D03*
%TD*%
D11*
%TO.C,D7*%
X142850000Y-109600000D03*
D12*
X140310000Y-109600000D03*
%TD*%
D10*
%TO.C,R7*%
X116350000Y-112930000D03*
X116350000Y-113790000D03*
%TD*%
D11*
%TO.C,D10*%
X144440000Y-76260000D03*
D12*
X141900000Y-76260000D03*
%TD*%
D16*
%TO.C,R4*%
X113660000Y-76240000D03*
X112800000Y-76240000D03*
%TD*%
D17*
%TO.C,H1*%
X130000000Y-82600000D03*
%TD*%
D11*
%TO.C,D5*%
X116940000Y-109910000D03*
D12*
X119480000Y-109910000D03*
%TD*%
D16*
%TO.C,R12*%
X146610000Y-76260000D03*
X147470000Y-76260000D03*
%TD*%
D10*
%TO.C,R10*%
X153360000Y-102080000D03*
X153360000Y-102940000D03*
%TD*%
D11*
%TO.C,D6*%
X128695000Y-120200000D03*
D12*
X131235000Y-120200000D03*
%TD*%
D16*
%TO.C,R8*%
X127581200Y-115795000D03*
X128441200Y-115795000D03*
%TD*%
D11*
%TO.C,D1*%
X128740000Y-87580000D03*
D12*
X131280000Y-87580000D03*
%TD*%
D16*
%TO.C,R3*%
X129610000Y-91830000D03*
X130470000Y-91830000D03*
%TD*%
M02*
