%TF.GenerationSoftware,KiCad,Pcbnew,8.0.7-8.0.7-0~ubuntu24.04.1*%
%TF.CreationDate,2025-01-10T15:07:17-06:00*%
%TF.ProjectId,HeartLEDChaser_PCB,48656172-744c-4454-9443-68617365725f,rev?*%
%TF.SameCoordinates,Original*%
%TF.FileFunction,Profile,NP*%
%FSLAX46Y46*%
G04 Gerber Fmt 4.6, Leading zero omitted, Abs format (unit mm)*
G04 Created by KiCad (PCBNEW 8.0.7-8.0.7-0~ubuntu24.04.1) date 2025-01-10 15:07:17*
%MOMM*%
%LPD*%
G01*
G04 APERTURE LIST*
%TA.AperFunction,Profile*%
%ADD10C,0.014800*%
%TD*%
G04 APERTURE END LIST*
D10*
X159380000Y-90264000D02*
X159339361Y-87818967D01*
X101189882Y-84559471D02*
X101096462Y-84867692D01*
X118088000Y-72504000D02*
X115572000Y-72504000D01*
X133036000Y-76056000D02*
X132148000Y-76944000D01*
X131796197Y-77403164D02*
X131573760Y-77697320D01*
X100731361Y-91296967D02*
X101094118Y-93439471D01*
X102340800Y-97508600D02*
X102755200Y-98485400D01*
X134504615Y-121992923D02*
X134675385Y-121879077D01*
X156511077Y-79596615D02*
X155993077Y-78856615D01*
X114109226Y-113259544D02*
X116031671Y-114961718D01*
X158964462Y-85226308D02*
X158761882Y-84424529D01*
X158444118Y-95154529D02*
X158909882Y-93365471D01*
X101096462Y-84867692D02*
X100624000Y-87674000D01*
X150999628Y-108007669D02*
X152959760Y-105595320D01*
X132148000Y-76944000D02*
X131796197Y-77403164D01*
X147917400Y-73221800D02*
X146055000Y-72756000D01*
X152959760Y-105595320D02*
X153960240Y-104236680D01*
X130093760Y-79917320D02*
X130002000Y-80052000D01*
X103601077Y-79397385D02*
X103231760Y-79917320D01*
X152854680Y-75777760D02*
X151306600Y-74738800D01*
X128078000Y-77240000D02*
X126611320Y-75816240D01*
X102414800Y-81317400D02*
X101719200Y-82856600D01*
X135396600Y-74413200D02*
X133789320Y-75481760D01*
X140227320Y-117957760D02*
X143676329Y-115183718D01*
X134675385Y-121879077D02*
X138276680Y-119402240D01*
X129565400Y-124585200D02*
X129624600Y-124614800D01*
X129706000Y-124674000D02*
X130298000Y-124674000D01*
X137542600Y-73443800D02*
X135855400Y-74146800D01*
X124370600Y-74294800D02*
X124074600Y-74146800D01*
X126611320Y-75816240D02*
X125770680Y-75185760D01*
X143676329Y-115183718D02*
X145484558Y-113592398D01*
X145484558Y-113592398D02*
X146430000Y-112760000D01*
X151306600Y-74738800D02*
X149841400Y-73969200D01*
X124074600Y-74146800D02*
X122372600Y-73414200D01*
X107118240Y-105743320D02*
X109263664Y-108336044D01*
X144358000Y-72504000D02*
X141916000Y-72504000D01*
X130002000Y-80052000D02*
X128078000Y-77240000D01*
X111435400Y-73414200D02*
X109881400Y-74072800D01*
X103897077Y-100834615D02*
X104457200Y-101815400D01*
X113949000Y-72756000D02*
X112100529Y-73196118D01*
X100624000Y-90486000D02*
X100731361Y-91296967D01*
X159339361Y-87818967D02*
X159272639Y-87085033D01*
X100624000Y-87674000D02*
X100624000Y-90486000D01*
X135855400Y-74146800D02*
X135396600Y-74413200D01*
X157293200Y-98322600D02*
X157766800Y-97153400D01*
X119785000Y-72756000D02*
X118088000Y-72504000D01*
X131573760Y-77697320D02*
X130093760Y-79917320D01*
X104457200Y-101815400D02*
X105969760Y-104162680D01*
X130298000Y-124674000D02*
X134504615Y-121992923D01*
X158329200Y-83093400D02*
X157618800Y-81450600D01*
X146430000Y-112760000D02*
X149686000Y-109504000D01*
X103231760Y-79917320D02*
X102414800Y-81317400D01*
X106381561Y-76333951D02*
X104916000Y-77684000D01*
X108234615Y-75002923D02*
X106706439Y-76074049D01*
X141916000Y-72504000D02*
X140135000Y-72770000D01*
X155993077Y-78856615D02*
X155310000Y-77980000D01*
X121720529Y-73217882D02*
X119785000Y-72756000D01*
X101719200Y-82856600D02*
X101189882Y-84559471D01*
X125351385Y-121918923D02*
X129565400Y-124585200D01*
X138276680Y-119402240D02*
X140227320Y-117957760D01*
X115572000Y-72504000D02*
X113949000Y-72756000D01*
X155310000Y-77980000D02*
X153904000Y-76574000D01*
X158909882Y-93365471D02*
X159272317Y-91149193D01*
X156106923Y-100760615D02*
X157293200Y-98322600D01*
X133789320Y-75481760D02*
X133540680Y-75668240D01*
X153904000Y-76574000D02*
X152854680Y-75777760D01*
X104916000Y-77684000D02*
X103601077Y-79397385D01*
X157618800Y-81450600D02*
X156511077Y-79596615D01*
X155736923Y-101426615D02*
X156106923Y-100760615D01*
X109881400Y-74072800D02*
X109792600Y-74117200D01*
X148494600Y-73414200D02*
X147917400Y-73221800D01*
X102755200Y-98485400D02*
X103897077Y-100834615D01*
X122372600Y-73414200D02*
X121720529Y-73217882D01*
X112982000Y-112242000D02*
X114109226Y-113259544D01*
X125129385Y-121770923D02*
X125351385Y-121918923D01*
X109263664Y-108336044D02*
X110836000Y-110096000D01*
X101538118Y-95215471D02*
X102340800Y-97508600D01*
X153960240Y-104236680D02*
X155736923Y-101426615D01*
X159272639Y-87085033D02*
X158964462Y-85226308D01*
X106706439Y-76074049D02*
X106381561Y-76333951D01*
X121579320Y-119328240D02*
X125129385Y-121770923D01*
X158761882Y-84424529D02*
X158329200Y-83093400D01*
X110836000Y-110096000D02*
X112982000Y-112242000D01*
X133540680Y-75668240D02*
X133036000Y-76056000D01*
X125770680Y-75185760D02*
X124370600Y-74294800D01*
X149841400Y-73969200D02*
X148494600Y-73414200D01*
X138296529Y-73196118D02*
X137542600Y-73443800D01*
X129624600Y-124614800D02*
X129706000Y-124674000D01*
X108405385Y-74889077D02*
X108234615Y-75002923D01*
X119258680Y-117587760D02*
X121579320Y-119328240D01*
X109792600Y-74117200D02*
X108405385Y-74889077D01*
X146055000Y-72756000D02*
X144358000Y-72504000D01*
X101094118Y-93439471D02*
X101538118Y-95215471D01*
X105969760Y-104162680D02*
X107118240Y-105743320D01*
X149686000Y-109504000D02*
X150999628Y-108007669D01*
X140135000Y-72770000D02*
X138296529Y-73196118D01*
X157766800Y-97153400D02*
X158444118Y-95154529D01*
X116031671Y-114961718D02*
X119258680Y-117587760D01*
X112100529Y-73196118D02*
X111435400Y-73414200D01*
X159272317Y-91149193D02*
X159380000Y-90264000D01*
M02*
