%TF.GenerationSoftware,KiCad,Pcbnew,8.0.7-8.0.7-0~ubuntu24.04.1*%
%TF.CreationDate,2025-01-10T15:06:56-06:00*%
%TF.ProjectId,HeartLEDChaser_PCB,48656172-744c-4454-9443-68617365725f,rev?*%
%TF.SameCoordinates,Original*%
%TF.FileFunction,Copper,L1,Top*%
%TF.FilePolarity,Positive*%
%FSLAX46Y46*%
G04 Gerber Fmt 4.6, Leading zero omitted, Abs format (unit mm)*
G04 Created by KiCad (PCBNEW 8.0.7-8.0.7-0~ubuntu24.04.1) date 2025-01-10 15:06:56*
%MOMM*%
%LPD*%
G01*
G04 APERTURE LIST*
G04 Aperture macros list*
%AMRoundRect*
0 Rectangle with rounded corners*
0 $1 Rounding radius*
0 $2 $3 $4 $5 $6 $7 $8 $9 X,Y pos of 4 corners*
0 Add a 4 corners polygon primitive as box body*
4,1,4,$2,$3,$4,$5,$6,$7,$8,$9,$2,$3,0*
0 Add four circle primitives for the rounded corners*
1,1,$1+$1,$2,$3*
1,1,$1+$1,$4,$5*
1,1,$1+$1,$6,$7*
1,1,$1+$1,$8,$9*
0 Add four rect primitives between the rounded corners*
20,1,$1+$1,$2,$3,$4,$5,0*
20,1,$1+$1,$4,$5,$6,$7,0*
20,1,$1+$1,$6,$7,$8,$9,0*
20,1,$1+$1,$8,$9,$2,$3,0*%
G04 Aperture macros list end*
%TA.AperFunction,SMDPad,CuDef*%
%ADD10R,0.540000X0.570000*%
%TD*%
%TA.AperFunction,ComponentPad*%
%ADD11R,1.800000X1.800000*%
%TD*%
%TA.AperFunction,ComponentPad*%
%ADD12C,1.800000*%
%TD*%
%TA.AperFunction,SMDPad,CuDef*%
%ADD13RoundRect,0.075000X-0.910000X-0.225000X0.910000X-0.225000X0.910000X0.225000X-0.910000X0.225000X0*%
%TD*%
%TA.AperFunction,ComponentPad*%
%ADD14C,1.600000*%
%TD*%
%TA.AperFunction,ComponentPad*%
%ADD15O,2.300000X1.300000*%
%TD*%
%TA.AperFunction,SMDPad,CuDef*%
%ADD16R,0.570000X0.540000*%
%TD*%
%TA.AperFunction,ViaPad*%
%ADD17C,0.600000*%
%TD*%
%TA.AperFunction,Conductor*%
%ADD18C,0.600000*%
%TD*%
G04 APERTURE END LIST*
D10*
%TO.P,R11,1*%
%TO.N,Net-(D9-K)*%
X156820000Y-87260000D03*
%TO.P,R11,2*%
%TO.N,GND*%
X156820000Y-88120000D03*
%TD*%
D11*
%TO.P,D3,1,K*%
%TO.N,Net-(D3-K)*%
X103660000Y-84140000D03*
D12*
%TO.P,D3,2,A*%
%TO.N,Net-(D3-A)*%
X106200000Y-84140000D03*
%TD*%
D10*
%TO.P,R9,1*%
%TO.N,Net-(D7-K)*%
X143440000Y-112790000D03*
%TO.P,R9,2*%
%TO.N,GND*%
X143440000Y-113650000D03*
%TD*%
D11*
%TO.P,D9,1,K*%
%TO.N,Net-(D9-K)*%
X156190000Y-84140000D03*
D12*
%TO.P,D9,2,A*%
%TO.N,Net-(D9-A)*%
X153650000Y-84140000D03*
%TD*%
D11*
%TO.P,D8,1,K*%
%TO.N,Net-(D8-K)*%
X152740000Y-99050000D03*
D12*
%TO.P,D8,2,A*%
%TO.N,Net-(D8-A)*%
X150200000Y-99050000D03*
%TD*%
D11*
%TO.P,D2,1,K*%
%TO.N,Net-(D2-K)*%
X115640000Y-76240000D03*
D12*
%TO.P,D2,2,A*%
%TO.N,Net-(D2-A)*%
X118180000Y-76240000D03*
%TD*%
D11*
%TO.P,D4,1,K*%
%TO.N,Net-(D4-K)*%
X107120000Y-99030000D03*
D12*
%TO.P,D4,2,A*%
%TO.N,Net-(D4-A)*%
X109660000Y-99030000D03*
%TD*%
D10*
%TO.P,R5,1*%
%TO.N,Net-(D3-K)*%
X103050000Y-87260000D03*
%TO.P,R5,2*%
%TO.N,GND*%
X103050000Y-88120000D03*
%TD*%
D13*
%TO.P,U2,1,5*%
%TO.N,Net-(D1-A)*%
X127670000Y-96370000D03*
%TO.P,U2,2,1*%
%TO.N,Net-(D2-A)*%
X127670000Y-97640000D03*
%TO.P,U2,3,0*%
%TO.N,Net-(D3-A)*%
X127670000Y-98910000D03*
%TO.P,U2,4,2*%
%TO.N,Net-(D4-A)*%
X127670000Y-100180000D03*
%TO.P,U2,5,6*%
%TO.N,Net-(D5-A)*%
X127670000Y-101450000D03*
%TO.P,U2,6,7*%
%TO.N,Net-(D6-A)*%
X127670000Y-102720000D03*
%TO.P,U2,7,3*%
%TO.N,Net-(D7-A)*%
X127670000Y-103990000D03*
%TO.P,U2,8,VSS*%
%TO.N,GND*%
X127670000Y-105260000D03*
%TO.P,U2,9,8*%
%TO.N,Net-(D8-A)*%
X132620000Y-105260000D03*
%TO.P,U2,10,4*%
%TO.N,Net-(D9-A)*%
X132620000Y-103990000D03*
%TO.P,U2,11,9*%
%TO.N,Net-(D10-A)*%
X132620000Y-102720000D03*
%TO.P,U2,12,CARRY_OUT*%
%TO.N,unconnected-(U2-CARRY_OUT-Pad12)*%
X132620000Y-101450000D03*
%TO.P,U2,13,CLOCK_INHIBIT*%
%TO.N,GND*%
X132620000Y-100180000D03*
%TO.P,U2,14,CLOCK*%
%TO.N,ASTABLE_OUTPUT*%
X132620000Y-98910000D03*
%TO.P,U2,15,RESET*%
%TO.N,unconnected-(U2-RESET-Pad15)*%
X132620000Y-97640000D03*
%TO.P,U2,16,VDD*%
%TO.N,+5V*%
X132620000Y-96370000D03*
%TD*%
D10*
%TO.P,R6,1*%
%TO.N,Net-(D4-K)*%
X106500000Y-102080000D03*
%TO.P,R6,2*%
%TO.N,GND*%
X106500000Y-102940000D03*
%TD*%
D14*
%TO.P,U4,1,1*%
%TO.N,unconnected-(U4-Pad1)*%
X136250000Y-85870000D03*
%TO.P,U4,2,2*%
%TO.N,Net-(BT1-+)*%
X136250000Y-82870000D03*
%TO.P,U4,3,3*%
%TO.N,+3V0*%
X136250000Y-79870000D03*
D15*
%TO.P,U4,4,4*%
%TO.N,unconnected-(U4-Pad4)*%
X136250000Y-77020000D03*
%TO.P,U4,5,5*%
%TO.N,unconnected-(U4-Pad5)*%
X136250000Y-88720000D03*
%TD*%
D11*
%TO.P,D7,1,K*%
%TO.N,Net-(D7-K)*%
X142850000Y-109600000D03*
D12*
%TO.P,D7,2,A*%
%TO.N,Net-(D7-A)*%
X140310000Y-109600000D03*
%TD*%
D10*
%TO.P,R7,1*%
%TO.N,unconnected-(R7-Pad1)*%
X116350000Y-112930000D03*
%TO.P,R7,2*%
%TO.N,unconnected-(R7-Pad2)*%
X116350000Y-113790000D03*
%TD*%
D11*
%TO.P,D10,1,K*%
%TO.N,Net-(D10-K)*%
X144440000Y-76260000D03*
D12*
%TO.P,D10,2,A*%
%TO.N,Net-(D10-A)*%
X141900000Y-76260000D03*
%TD*%
D16*
%TO.P,R4,1*%
%TO.N,Net-(D2-K)*%
X113660000Y-76240000D03*
%TO.P,R4,2*%
%TO.N,GND*%
X112800000Y-76240000D03*
%TD*%
D11*
%TO.P,D5,1,K*%
%TO.N,unconnected-(D5-K-Pad1)*%
X116940000Y-109910000D03*
D12*
%TO.P,D5,2,A*%
%TO.N,Net-(D5-A)*%
X119480000Y-109910000D03*
%TD*%
D16*
%TO.P,R12,1*%
%TO.N,Net-(D10-K)*%
X146610000Y-76260000D03*
%TO.P,R12,2*%
%TO.N,GND*%
X147470000Y-76260000D03*
%TD*%
D10*
%TO.P,R10,1*%
%TO.N,Net-(D8-K)*%
X153360000Y-102080000D03*
%TO.P,R10,2*%
%TO.N,GND*%
X153360000Y-102940000D03*
%TD*%
D11*
%TO.P,D6,1,K*%
%TO.N,Net-(D6-K)*%
X128695000Y-120200000D03*
D12*
%TO.P,D6,2,A*%
%TO.N,Net-(D6-A)*%
X131235000Y-120200000D03*
%TD*%
D16*
%TO.P,R8,2*%
%TO.N,GND*%
X127581200Y-115795000D03*
%TO.P,R8,1*%
%TO.N,Net-(D6-K)*%
X128441200Y-115795000D03*
%TD*%
D11*
%TO.P,D1,1,K*%
%TO.N,Net-(D1-K)*%
X128740000Y-87580000D03*
D12*
%TO.P,D1,2,A*%
%TO.N,Net-(D1-A)*%
X131280000Y-87580000D03*
%TD*%
D16*
%TO.P,R3,1*%
%TO.N,Net-(D1-K)*%
X129610000Y-91830000D03*
%TO.P,R3,2*%
%TO.N,GND*%
X130470000Y-91830000D03*
%TD*%
D17*
%TO.N,GND*%
X112110000Y-98690000D03*
%TO.N,+5V*%
X130810000Y-96380000D03*
%TO.N,ASTABLE_OUTPUT*%
X130860000Y-98900000D03*
%TD*%
D18*
%TO.N,Net-(D6-K)*%
X128441200Y-115795000D02*
X128441200Y-119946200D01*
X128441200Y-119946200D02*
X128695000Y-120200000D01*
%TO.N,+5V*%
X130810000Y-96380000D02*
X132610000Y-96380000D01*
X132610000Y-96380000D02*
X132620000Y-96370000D01*
%TO.N,ASTABLE_OUTPUT*%
X130860000Y-98900000D02*
X132610000Y-98900000D01*
X132610000Y-98900000D02*
X132620000Y-98910000D01*
%TO.N,Net-(D7-A)*%
X127670000Y-103990000D02*
X129442176Y-103990000D01*
X129442176Y-103990000D02*
X135052176Y-109600000D01*
X135052176Y-109600000D02*
X140310000Y-109600000D01*
%TO.N,Net-(D1-A)*%
X131280000Y-92760000D02*
X131280000Y-87580000D01*
X127670000Y-96370000D02*
X131280000Y-92760000D01*
%TO.N,Net-(D2-A)*%
X118180000Y-89134999D02*
X118180000Y-76240000D01*
X126685001Y-97640000D02*
X118180000Y-89134999D01*
X127670000Y-97640000D02*
X126685001Y-97640000D01*
%TO.N,Net-(D3-A)*%
X120970000Y-98910000D02*
X106200000Y-84140000D01*
X127670000Y-98910000D02*
X120970000Y-98910000D01*
%TO.N,Net-(D4-A)*%
X127670000Y-100180000D02*
X110810000Y-100180000D01*
X110810000Y-100180000D02*
X109660000Y-99030000D01*
%TO.N,Net-(D5-A)*%
X119480000Y-108655001D02*
X119480000Y-109910000D01*
X126685001Y-101450000D02*
X119480000Y-108655001D01*
X127670000Y-101450000D02*
X126685001Y-101450000D01*
%TO.N,Net-(D6-A)*%
X127670000Y-102720000D02*
X126685001Y-102720000D01*
X131235000Y-115115000D02*
X131235000Y-120200000D01*
X126140000Y-103265001D02*
X126140000Y-110020000D01*
X126140000Y-110020000D02*
X131235000Y-115115000D01*
X126685001Y-102720000D02*
X126140000Y-103265001D01*
%TO.N,Net-(D8-A)*%
X143990000Y-105260000D02*
X150200000Y-99050000D01*
X132620000Y-105260000D02*
X143990000Y-105260000D01*
%TO.N,Net-(D9-A)*%
X133800000Y-103990000D02*
X153650000Y-84140000D01*
X132620000Y-103990000D02*
X133800000Y-103990000D01*
%TO.N,Net-(D10-A)*%
X133604999Y-102720000D02*
X141900000Y-94424999D01*
X141900000Y-94424999D02*
X141900000Y-76260000D01*
X132620000Y-102720000D02*
X133604999Y-102720000D01*
%TO.N,Net-(D2-K)*%
X113660000Y-76240000D02*
X115640000Y-76240000D01*
%TO.N,Net-(D3-K)*%
X103050000Y-87260000D02*
X103050000Y-84750000D01*
X103050000Y-84750000D02*
X103660000Y-84140000D01*
%TO.N,Net-(D4-K)*%
X106500000Y-99650000D02*
X107120000Y-99030000D01*
X106500000Y-102080000D02*
X106500000Y-99650000D01*
%TO.N,Net-(D7-K)*%
X143440000Y-112790000D02*
X143440000Y-110190000D01*
%TO.N,Net-(D8-K)*%
X153360000Y-99670000D02*
X152740000Y-99050000D01*
X153360000Y-102080000D02*
X153360000Y-99670000D01*
%TO.N,Net-(D9-K)*%
X156820000Y-84770000D02*
X156190000Y-84140000D01*
X156820000Y-87260000D02*
X156820000Y-84770000D01*
%TO.N,Net-(D10-K)*%
X146610000Y-76260000D02*
X144440000Y-76260000D01*
%TO.N,Net-(D1-K)*%
X129610000Y-91830000D02*
X129610000Y-88450000D01*
X129610000Y-88450000D02*
X128740000Y-87580000D01*
%TD*%
%TA.AperFunction,Conductor*%
%TO.N,GND*%
G36*
X118060096Y-73005845D02*
G01*
X118280416Y-73038561D01*
X119684659Y-73247087D01*
X119695210Y-73249126D01*
X120938513Y-73545820D01*
X121586678Y-73700494D01*
X121593644Y-73702372D01*
X121629377Y-73713130D01*
X122188979Y-73881609D01*
X122194181Y-73883175D01*
X122207458Y-73888013D01*
X123860334Y-74599468D01*
X123866721Y-74602436D01*
X124117958Y-74728055D01*
X124129069Y-74734346D01*
X125481737Y-75595134D01*
X125489564Y-75600548D01*
X126279240Y-76192805D01*
X126291202Y-76203025D01*
X126767615Y-76665496D01*
X127684382Y-77555435D01*
X127700350Y-77574387D01*
X129562268Y-80295653D01*
X129571630Y-80311831D01*
X129579741Y-80328658D01*
X129579743Y-80328662D01*
X129600121Y-80352326D01*
X129608493Y-80363214D01*
X129626138Y-80389002D01*
X129626145Y-80389009D01*
X129640320Y-80401167D01*
X129653553Y-80414374D01*
X129665737Y-80428523D01*
X129665736Y-80428523D01*
X129691546Y-80446107D01*
X129702452Y-80454457D01*
X129726172Y-80474802D01*
X129743011Y-80482876D01*
X129759215Y-80492211D01*
X129774640Y-80502721D01*
X129774641Y-80502721D01*
X129774645Y-80502724D01*
X129804145Y-80513035D01*
X129816836Y-80518278D01*
X129844999Y-80531784D01*
X129844998Y-80531784D01*
X129858198Y-80534258D01*
X129863344Y-80535223D01*
X129881414Y-80540045D01*
X129899048Y-80546210D01*
X129930211Y-80548534D01*
X129943816Y-80550311D01*
X129974528Y-80556071D01*
X129985874Y-80555201D01*
X129993143Y-80554645D01*
X130011845Y-80554626D01*
X130030467Y-80556016D01*
X130061170Y-80550195D01*
X130074766Y-80548392D01*
X130105926Y-80546006D01*
X130123550Y-80539805D01*
X130141599Y-80534951D01*
X130159946Y-80531474D01*
X130188100Y-80517903D01*
X130200759Y-80512645D01*
X130230243Y-80502275D01*
X130245655Y-80491729D01*
X130261838Y-80482365D01*
X130264842Y-80480916D01*
X130278661Y-80474257D01*
X130302342Y-80453863D01*
X130313210Y-80445507D01*
X130339006Y-80427858D01*
X130351172Y-80413672D01*
X130364368Y-80400450D01*
X130378522Y-80388263D01*
X130396107Y-80362451D01*
X130404454Y-80351549D01*
X130424802Y-80327828D01*
X130432877Y-80310986D01*
X130442204Y-80294792D01*
X130465946Y-80259946D01*
X130472600Y-80251348D01*
X130473648Y-80249775D01*
X130473651Y-80249773D01*
X130508552Y-80197419D01*
X130509098Y-80196609D01*
X130544484Y-80144675D01*
X130544484Y-80144672D01*
X130545542Y-80143121D01*
X130551026Y-80133709D01*
X130726833Y-79869999D01*
X135044357Y-79869999D01*
X135044357Y-79870000D01*
X135064884Y-80091535D01*
X135064885Y-80091537D01*
X135125769Y-80305523D01*
X135125775Y-80305538D01*
X135224938Y-80504683D01*
X135224943Y-80504691D01*
X135359020Y-80682238D01*
X135523437Y-80832123D01*
X135523439Y-80832125D01*
X135712595Y-80949245D01*
X135712596Y-80949245D01*
X135712599Y-80949247D01*
X135920060Y-81029618D01*
X136138757Y-81070500D01*
X136138759Y-81070500D01*
X136361241Y-81070500D01*
X136361243Y-81070500D01*
X136579940Y-81029618D01*
X136787401Y-80949247D01*
X136976562Y-80832124D01*
X137140981Y-80682236D01*
X137275058Y-80504689D01*
X137374229Y-80305528D01*
X137435115Y-80091536D01*
X137455643Y-79870000D01*
X137455195Y-79865170D01*
X137435115Y-79648464D01*
X137435114Y-79648462D01*
X137434340Y-79645743D01*
X137374229Y-79434472D01*
X137374224Y-79434461D01*
X137275061Y-79235316D01*
X137275056Y-79235308D01*
X137140979Y-79057761D01*
X136976562Y-78907876D01*
X136976560Y-78907874D01*
X136787404Y-78790754D01*
X136787398Y-78790752D01*
X136579940Y-78710382D01*
X136361243Y-78669500D01*
X136138757Y-78669500D01*
X135920060Y-78710382D01*
X135788864Y-78761207D01*
X135712601Y-78790752D01*
X135712595Y-78790754D01*
X135523439Y-78907874D01*
X135523437Y-78907876D01*
X135359020Y-79057761D01*
X135224943Y-79235308D01*
X135224938Y-79235316D01*
X135125775Y-79434461D01*
X135125769Y-79434476D01*
X135064885Y-79648462D01*
X135064884Y-79648464D01*
X135044357Y-79869999D01*
X130726833Y-79869999D01*
X131979922Y-77990364D01*
X131984170Y-77984387D01*
X132009462Y-77950941D01*
X132194223Y-77706608D01*
X132194607Y-77706102D01*
X132520269Y-77281057D01*
X132531004Y-77268808D01*
X132883282Y-76916530D01*
X134699500Y-76916530D01*
X134699500Y-77123469D01*
X134739868Y-77326412D01*
X134739870Y-77326420D01*
X134798534Y-77468048D01*
X134819059Y-77517598D01*
X134837800Y-77545646D01*
X134934024Y-77689657D01*
X135080342Y-77835975D01*
X135080345Y-77835977D01*
X135252402Y-77950941D01*
X135443580Y-78030130D01*
X135646530Y-78070499D01*
X135646534Y-78070500D01*
X135646535Y-78070500D01*
X136853466Y-78070500D01*
X136853467Y-78070499D01*
X137056420Y-78030130D01*
X137247598Y-77950941D01*
X137419655Y-77835977D01*
X137565977Y-77689655D01*
X137680941Y-77517598D01*
X137760130Y-77326420D01*
X137800500Y-77123465D01*
X137800500Y-76916535D01*
X137760130Y-76713580D01*
X137680941Y-76522402D01*
X137565977Y-76350345D01*
X137565975Y-76350342D01*
X137419657Y-76204024D01*
X137257381Y-76095596D01*
X137247598Y-76089059D01*
X137233897Y-76083384D01*
X137056420Y-76009870D01*
X137056412Y-76009868D01*
X136853469Y-75969500D01*
X136853465Y-75969500D01*
X135646535Y-75969500D01*
X135646530Y-75969500D01*
X135443587Y-76009868D01*
X135443579Y-76009870D01*
X135252403Y-76089058D01*
X135080342Y-76204024D01*
X134934024Y-76350342D01*
X134819058Y-76522403D01*
X134739870Y-76713579D01*
X134739868Y-76713587D01*
X134699500Y-76916530D01*
X132883282Y-76916530D01*
X133361110Y-76438702D01*
X133373226Y-76428070D01*
X133842837Y-76067254D01*
X133843819Y-76066508D01*
X134075473Y-75892769D01*
X134081154Y-75888755D01*
X135657950Y-74840462D01*
X135664264Y-74836535D01*
X136071221Y-74600236D01*
X136085782Y-74593014D01*
X137712792Y-73915093D01*
X137721754Y-73911760D01*
X138426133Y-73680355D01*
X138436814Y-73677370D01*
X140223833Y-73263177D01*
X140233470Y-73261344D01*
X141944063Y-73005859D01*
X141962380Y-73004500D01*
X144311882Y-73004500D01*
X144330096Y-73005845D01*
X144772565Y-73071550D01*
X145951298Y-73246588D01*
X145963165Y-73248947D01*
X147150143Y-73545820D01*
X147772734Y-73701535D01*
X147781859Y-73704193D01*
X148315839Y-73882186D01*
X148323872Y-73885176D01*
X148392006Y-73913253D01*
X149623921Y-74420910D01*
X149634313Y-74425768D01*
X150678756Y-74974364D01*
X151044134Y-75166280D01*
X151055574Y-75173096D01*
X151642676Y-75567117D01*
X152560746Y-76183260D01*
X152566583Y-76187429D01*
X153523536Y-76913580D01*
X153567501Y-76946941D01*
X153580226Y-76958040D01*
X154928792Y-78306605D01*
X154938922Y-78318069D01*
X155588454Y-79151634D01*
X155592228Y-79156742D01*
X156088126Y-79865170D01*
X156092988Y-79872679D01*
X157168228Y-81672296D01*
X157175595Y-81686679D01*
X157526285Y-82497648D01*
X157851436Y-83249559D01*
X157858164Y-83265116D01*
X157862275Y-83275998D01*
X158272771Y-84538869D01*
X158279448Y-84559411D01*
X158281743Y-84567367D01*
X158472846Y-85323723D01*
X158474954Y-85333817D01*
X158775116Y-87144204D01*
X158776277Y-87153259D01*
X158838822Y-87841246D01*
X158839314Y-87850412D01*
X158878852Y-90229266D01*
X158877962Y-90246301D01*
X158777026Y-91076031D01*
X158776307Y-91081069D01*
X158420613Y-93256135D01*
X158418239Y-93267364D01*
X157965429Y-95006661D01*
X157962870Y-95015215D01*
X157298600Y-96975579D01*
X157296088Y-96982338D01*
X156837287Y-98115006D01*
X156833859Y-98122706D01*
X155664297Y-100526368D01*
X155661192Y-100532334D01*
X155308004Y-101168073D01*
X155304417Y-101174119D01*
X153549034Y-103950494D01*
X153544074Y-103957755D01*
X152565555Y-105286572D01*
X152561942Y-105291241D01*
X150618704Y-107682799D01*
X150615654Y-107686410D01*
X149323255Y-109158560D01*
X149317750Y-109164434D01*
X146090117Y-112392067D01*
X146084377Y-112397454D01*
X145529381Y-112886092D01*
X145155539Y-113215235D01*
X144458421Y-113828729D01*
X143356077Y-114798839D01*
X143351872Y-114802377D01*
X139923368Y-117559927D01*
X139919447Y-117562954D01*
X137987585Y-118993528D01*
X137984059Y-118996045D01*
X134395448Y-121464159D01*
X134393963Y-121465164D01*
X134232323Y-121572924D01*
X134230186Y-121574317D01*
X130182553Y-124154067D01*
X130115907Y-124173500D01*
X129894500Y-124173500D01*
X129850005Y-124165242D01*
X129832368Y-124158462D01*
X129821410Y-124153629D01*
X129817309Y-124151578D01*
X129806479Y-124145464D01*
X125625288Y-121499956D01*
X125622805Y-121498343D01*
X125410838Y-121357032D01*
X125409332Y-121356012D01*
X121873545Y-118923154D01*
X121869434Y-118920200D01*
X119568870Y-117194778D01*
X119565003Y-117191756D01*
X116497699Y-114695677D01*
X116458126Y-114638095D01*
X116455966Y-114568259D01*
X116491905Y-114508341D01*
X116554533Y-114477365D01*
X116575966Y-114475499D01*
X116651517Y-114475499D01*
X116651518Y-114475499D01*
X116745304Y-114460646D01*
X116858342Y-114403050D01*
X116948050Y-114313342D01*
X117005646Y-114200304D01*
X117005646Y-114200302D01*
X117005647Y-114200301D01*
X117020499Y-114106524D01*
X117020500Y-114106519D01*
X117020499Y-113473482D01*
X117020499Y-113473481D01*
X117020499Y-113473476D01*
X117005599Y-113379397D01*
X117005599Y-113340601D01*
X117007062Y-113331361D01*
X117020500Y-113246519D01*
X117020499Y-112613482D01*
X117005646Y-112519696D01*
X116948050Y-112406658D01*
X116948046Y-112406654D01*
X116948045Y-112406652D01*
X116858347Y-112316954D01*
X116858344Y-112316952D01*
X116858342Y-112316950D01*
X116781517Y-112277805D01*
X116745301Y-112259352D01*
X116651524Y-112244500D01*
X116048482Y-112244500D01*
X115967519Y-112257323D01*
X115954696Y-112259354D01*
X115841658Y-112316950D01*
X115841657Y-112316951D01*
X115841652Y-112316954D01*
X115751954Y-112406652D01*
X115751951Y-112406657D01*
X115694352Y-112519698D01*
X115679500Y-112613475D01*
X115679500Y-113246518D01*
X115694401Y-113340603D01*
X115694400Y-113379396D01*
X115679500Y-113473474D01*
X115679500Y-113705991D01*
X115659815Y-113773030D01*
X115607011Y-113818785D01*
X115537853Y-113828729D01*
X115474297Y-113799704D01*
X115473299Y-113798829D01*
X114443344Y-112886885D01*
X114442456Y-112886092D01*
X113329197Y-111881156D01*
X113324605Y-111876792D01*
X111202345Y-109754531D01*
X111197554Y-109749464D01*
X109644767Y-108011390D01*
X109641705Y-108007828D01*
X108021860Y-106050260D01*
X107516369Y-105439379D01*
X107511590Y-105433220D01*
X107062032Y-104814499D01*
X106659488Y-104260481D01*
X106384929Y-103882609D01*
X106381012Y-103876887D01*
X105996829Y-103280690D01*
X104886963Y-101558335D01*
X104883540Y-101552698D01*
X104341988Y-100604431D01*
X104338144Y-100597148D01*
X104303740Y-100526368D01*
X103212318Y-98280955D01*
X103209696Y-98275187D01*
X103205365Y-98264978D01*
X102809416Y-97331672D01*
X102806542Y-97324239D01*
X102019982Y-95077166D01*
X102016724Y-95066282D01*
X102003957Y-95015215D01*
X101585525Y-93341490D01*
X101583565Y-93332123D01*
X101226711Y-91224483D01*
X101226055Y-91220127D01*
X101125573Y-90461120D01*
X101124500Y-90444846D01*
X101124500Y-87726202D01*
X101126221Y-87705615D01*
X101147369Y-87580000D01*
X101583400Y-84990079D01*
X101587004Y-84974724D01*
X101668296Y-84706515D01*
X101668410Y-84706144D01*
X102117089Y-83262701D01*
X102155785Y-83204527D01*
X102219791Y-83176508D01*
X102288784Y-83187541D01*
X102340860Y-83234123D01*
X102359500Y-83299509D01*
X102359500Y-84618523D01*
X102357117Y-84642715D01*
X102349500Y-84681007D01*
X102349500Y-87328993D01*
X102349500Y-87328995D01*
X102349499Y-87328995D01*
X102377117Y-87467832D01*
X102379500Y-87492023D01*
X102379500Y-87576517D01*
X102388313Y-87632160D01*
X102394354Y-87670304D01*
X102451950Y-87783342D01*
X102451952Y-87783344D01*
X102451954Y-87783347D01*
X102541652Y-87873045D01*
X102541654Y-87873046D01*
X102541658Y-87873050D01*
X102654694Y-87930645D01*
X102654698Y-87930647D01*
X102748475Y-87945499D01*
X102748481Y-87945500D01*
X102893382Y-87945499D01*
X102917575Y-87947881D01*
X102938843Y-87952112D01*
X102981006Y-87960500D01*
X102981007Y-87960500D01*
X103118994Y-87960500D01*
X103182427Y-87947882D01*
X103206619Y-87945499D01*
X103351517Y-87945499D01*
X103351518Y-87945499D01*
X103445304Y-87930646D01*
X103558342Y-87873050D01*
X103648050Y-87783342D01*
X103705646Y-87670304D01*
X103705646Y-87670302D01*
X103705647Y-87670301D01*
X103716282Y-87603147D01*
X103720500Y-87576519D01*
X103720499Y-87492023D01*
X103722882Y-87467835D01*
X103750500Y-87328995D01*
X103750500Y-85564499D01*
X103770185Y-85497460D01*
X103822989Y-85451705D01*
X103874500Y-85440499D01*
X104591517Y-85440499D01*
X104591518Y-85440499D01*
X104685304Y-85425646D01*
X104798342Y-85368050D01*
X104888050Y-85278342D01*
X104945646Y-85165304D01*
X104945646Y-85165302D01*
X104945647Y-85165301D01*
X104960499Y-85071525D01*
X104960500Y-85071519D01*
X104960499Y-85030441D01*
X104980182Y-84963405D01*
X105032985Y-84917649D01*
X105102143Y-84907704D01*
X105165700Y-84936727D01*
X105186073Y-84959317D01*
X105199954Y-84979141D01*
X105360858Y-85140045D01*
X105360861Y-85140047D01*
X105547266Y-85270568D01*
X105753504Y-85366739D01*
X105753509Y-85366740D01*
X105753511Y-85366741D01*
X105806415Y-85380916D01*
X105973308Y-85425635D01*
X106135230Y-85439801D01*
X106199998Y-85445468D01*
X106200000Y-85445468D01*
X106200001Y-85445468D01*
X106218304Y-85443866D01*
X106426692Y-85425635D01*
X106426697Y-85425633D01*
X106431881Y-85425180D01*
X106500381Y-85438946D01*
X106530370Y-85461027D01*
X120337163Y-99267819D01*
X120370648Y-99329142D01*
X120365664Y-99398834D01*
X120323792Y-99454767D01*
X120258328Y-99479184D01*
X120249482Y-99479500D01*
X111151519Y-99479500D01*
X111084480Y-99459815D01*
X111063838Y-99443181D01*
X110981027Y-99360370D01*
X110947542Y-99299047D01*
X110945180Y-99261881D01*
X110945633Y-99256697D01*
X110945635Y-99256692D01*
X110965468Y-99030000D01*
X110963377Y-99006105D01*
X110958458Y-98949873D01*
X110945635Y-98803308D01*
X110886739Y-98583504D01*
X110790568Y-98377266D01*
X110660047Y-98190861D01*
X110660045Y-98190858D01*
X110499141Y-98029954D01*
X110312734Y-97899432D01*
X110312732Y-97899431D01*
X110106497Y-97803261D01*
X110106488Y-97803258D01*
X109886697Y-97744366D01*
X109886693Y-97744365D01*
X109886692Y-97744365D01*
X109886691Y-97744364D01*
X109886686Y-97744364D01*
X109660002Y-97724532D01*
X109659998Y-97724532D01*
X109433313Y-97744364D01*
X109433302Y-97744366D01*
X109213511Y-97803258D01*
X109213502Y-97803261D01*
X109007267Y-97899431D01*
X109007265Y-97899432D01*
X108820858Y-98029954D01*
X108659954Y-98190858D01*
X108646074Y-98210682D01*
X108591498Y-98254307D01*
X108521999Y-98261501D01*
X108459644Y-98229979D01*
X108424230Y-98169749D01*
X108420499Y-98139559D01*
X108420499Y-98098482D01*
X108419983Y-98095226D01*
X108405646Y-98004696D01*
X108348050Y-97891658D01*
X108348046Y-97891654D01*
X108348045Y-97891652D01*
X108258347Y-97801954D01*
X108258344Y-97801952D01*
X108258342Y-97801950D01*
X108181517Y-97762805D01*
X108145301Y-97744352D01*
X108051524Y-97729500D01*
X106188482Y-97729500D01*
X106107519Y-97742323D01*
X106094696Y-97744354D01*
X105981658Y-97801950D01*
X105981657Y-97801951D01*
X105981652Y-97801954D01*
X105891954Y-97891652D01*
X105891951Y-97891657D01*
X105891950Y-97891658D01*
X105872751Y-97929337D01*
X105834352Y-98004698D01*
X105819500Y-98098475D01*
X105819500Y-99468242D01*
X105817118Y-99492432D01*
X105799500Y-99581007D01*
X105799500Y-102148993D01*
X105799500Y-102148995D01*
X105799499Y-102148995D01*
X105827117Y-102287832D01*
X105829500Y-102312023D01*
X105829500Y-102396517D01*
X105840292Y-102464657D01*
X105844354Y-102490304D01*
X105901950Y-102603342D01*
X105901952Y-102603344D01*
X105901954Y-102603347D01*
X105991652Y-102693045D01*
X105991654Y-102693046D01*
X105991658Y-102693050D01*
X106104694Y-102750645D01*
X106104698Y-102750647D01*
X106198475Y-102765499D01*
X106198481Y-102765500D01*
X106343382Y-102765499D01*
X106367575Y-102767881D01*
X106388843Y-102772112D01*
X106431006Y-102780500D01*
X106431007Y-102780500D01*
X106568994Y-102780500D01*
X106632427Y-102767882D01*
X106656619Y-102765499D01*
X106801517Y-102765499D01*
X106801518Y-102765499D01*
X106895304Y-102750646D01*
X107008342Y-102693050D01*
X107098050Y-102603342D01*
X107155646Y-102490304D01*
X107155646Y-102490302D01*
X107155647Y-102490301D01*
X107170499Y-102396524D01*
X107170500Y-102396519D01*
X107170499Y-102312023D01*
X107172882Y-102287835D01*
X107177470Y-102264774D01*
X107200500Y-102148993D01*
X107200500Y-100454499D01*
X107220185Y-100387460D01*
X107272989Y-100341705D01*
X107324500Y-100330499D01*
X108051517Y-100330499D01*
X108051518Y-100330499D01*
X108145304Y-100315646D01*
X108258342Y-100258050D01*
X108348050Y-100168342D01*
X108405646Y-100055304D01*
X108405646Y-100055302D01*
X108405647Y-100055301D01*
X108420499Y-99961525D01*
X108420500Y-99961519D01*
X108420499Y-99920441D01*
X108440182Y-99853405D01*
X108492985Y-99807649D01*
X108562143Y-99797704D01*
X108625700Y-99826727D01*
X108646073Y-99849317D01*
X108659954Y-99869141D01*
X108820858Y-100030045D01*
X108820861Y-100030047D01*
X109007266Y-100160568D01*
X109213504Y-100256739D01*
X109213509Y-100256740D01*
X109213511Y-100256741D01*
X109266415Y-100270916D01*
X109433308Y-100315635D01*
X109595230Y-100329801D01*
X109659998Y-100335468D01*
X109660000Y-100335468D01*
X109660001Y-100335468D01*
X109678304Y-100333866D01*
X109886692Y-100315635D01*
X109886697Y-100315633D01*
X109891881Y-100315180D01*
X109960381Y-100328946D01*
X109990370Y-100351027D01*
X110363453Y-100724111D01*
X110363454Y-100724112D01*
X110478192Y-100800777D01*
X110605667Y-100853578D01*
X110605672Y-100853580D01*
X110605676Y-100853580D01*
X110605677Y-100853581D01*
X110741003Y-100880500D01*
X110741006Y-100880500D01*
X110741007Y-100880500D01*
X125964481Y-100880500D01*
X126031520Y-100900185D01*
X126077275Y-100952989D01*
X126087219Y-101022147D01*
X126058194Y-101085703D01*
X126052162Y-101092181D01*
X118935888Y-108208454D01*
X118935887Y-108208455D01*
X118900428Y-108261523D01*
X118865129Y-108314354D01*
X118859225Y-108323190D01*
X118859223Y-108323193D01*
X118806421Y-108450668D01*
X118806418Y-108450678D01*
X118779500Y-108586005D01*
X118779500Y-108748326D01*
X118759815Y-108815365D01*
X118726624Y-108849901D01*
X118640863Y-108909951D01*
X118479951Y-109070862D01*
X118466074Y-109090682D01*
X118411498Y-109134307D01*
X118341999Y-109141501D01*
X118279644Y-109109979D01*
X118244230Y-109049749D01*
X118240499Y-109019559D01*
X118240499Y-108978482D01*
X118235341Y-108945916D01*
X118225646Y-108884696D01*
X118168050Y-108771658D01*
X118168046Y-108771654D01*
X118168045Y-108771652D01*
X118078347Y-108681954D01*
X118078344Y-108681952D01*
X118078342Y-108681950D01*
X118001517Y-108642805D01*
X117965301Y-108624352D01*
X117871524Y-108609500D01*
X116008482Y-108609500D01*
X115927519Y-108622323D01*
X115914696Y-108624354D01*
X115801658Y-108681950D01*
X115801657Y-108681951D01*
X115801652Y-108681954D01*
X115711954Y-108771652D01*
X115711951Y-108771657D01*
X115654352Y-108884698D01*
X115639500Y-108978475D01*
X115639500Y-110841517D01*
X115648842Y-110900499D01*
X115654354Y-110935304D01*
X115711950Y-111048342D01*
X115711952Y-111048344D01*
X115711954Y-111048347D01*
X115801652Y-111138045D01*
X115801654Y-111138046D01*
X115801658Y-111138050D01*
X115914674Y-111195635D01*
X115914698Y-111195647D01*
X116008475Y-111210499D01*
X116008481Y-111210500D01*
X117871518Y-111210499D01*
X117965304Y-111195646D01*
X118078342Y-111138050D01*
X118168050Y-111048342D01*
X118225646Y-110935304D01*
X118225646Y-110935302D01*
X118225647Y-110935301D01*
X118240499Y-110841525D01*
X118240500Y-110841519D01*
X118240499Y-110800441D01*
X118260182Y-110733405D01*
X118312985Y-110687649D01*
X118382143Y-110677704D01*
X118445700Y-110706727D01*
X118466073Y-110729317D01*
X118479954Y-110749141D01*
X118640858Y-110910045D01*
X118640861Y-110910047D01*
X118827266Y-111040568D01*
X119033504Y-111136739D01*
X119033509Y-111136740D01*
X119033511Y-111136741D01*
X119086415Y-111150916D01*
X119253308Y-111195635D01*
X119415230Y-111209801D01*
X119479998Y-111215468D01*
X119480000Y-111215468D01*
X119480002Y-111215468D01*
X119536796Y-111210499D01*
X119706692Y-111195635D01*
X119926496Y-111136739D01*
X120132734Y-111040568D01*
X120319139Y-110910047D01*
X120480047Y-110749139D01*
X120610568Y-110562734D01*
X120706739Y-110356496D01*
X120765635Y-110136692D01*
X120785468Y-109910000D01*
X120783168Y-109883716D01*
X120775586Y-109797053D01*
X120765635Y-109683308D01*
X120706739Y-109463504D01*
X120610568Y-109257266D01*
X120480047Y-109070861D01*
X120480045Y-109070858D01*
X120355103Y-108945916D01*
X120321618Y-108884593D01*
X120326602Y-108814901D01*
X120355103Y-108770554D01*
X121442858Y-107682799D01*
X125227821Y-103897836D01*
X125289142Y-103864353D01*
X125358834Y-103869337D01*
X125414767Y-103911209D01*
X125439184Y-103976673D01*
X125439500Y-103985519D01*
X125439500Y-109951006D01*
X125439500Y-110088994D01*
X125439500Y-110088996D01*
X125439499Y-110088996D01*
X125466418Y-110224322D01*
X125466421Y-110224332D01*
X125519222Y-110351807D01*
X125595887Y-110466545D01*
X125595888Y-110466546D01*
X130498181Y-115368838D01*
X130531666Y-115430161D01*
X130534500Y-115456519D01*
X130534500Y-119038326D01*
X130514815Y-119105365D01*
X130481624Y-119139901D01*
X130395863Y-119199951D01*
X130234951Y-119360862D01*
X130221074Y-119380682D01*
X130166498Y-119424307D01*
X130096999Y-119431501D01*
X130034644Y-119399979D01*
X129999230Y-119339749D01*
X129995499Y-119309559D01*
X129995499Y-119268482D01*
X129995498Y-119268475D01*
X129980646Y-119174696D01*
X129923050Y-119061658D01*
X129923046Y-119061654D01*
X129923045Y-119061652D01*
X129833347Y-118971954D01*
X129833344Y-118971952D01*
X129833342Y-118971950D01*
X129734759Y-118921719D01*
X129720301Y-118914352D01*
X129626524Y-118899500D01*
X129626519Y-118899500D01*
X129265700Y-118899500D01*
X129198661Y-118879815D01*
X129152906Y-118827011D01*
X129141700Y-118775500D01*
X129141700Y-115726004D01*
X129129082Y-115662572D01*
X129126699Y-115638380D01*
X129126699Y-115493482D01*
X129120845Y-115456519D01*
X129111846Y-115399696D01*
X129054250Y-115286658D01*
X129054246Y-115286654D01*
X129054245Y-115286652D01*
X128964547Y-115196954D01*
X128964544Y-115196952D01*
X128964542Y-115196950D01*
X128887717Y-115157805D01*
X128851501Y-115139352D01*
X128757724Y-115124500D01*
X128757719Y-115124500D01*
X128673226Y-115124500D01*
X128649035Y-115122117D01*
X128510196Y-115094500D01*
X128510193Y-115094500D01*
X128372207Y-115094500D01*
X128372202Y-115094500D01*
X128233362Y-115122117D01*
X128209172Y-115124500D01*
X128124682Y-115124500D01*
X128043719Y-115137323D01*
X128030896Y-115139354D01*
X127917858Y-115196950D01*
X127917857Y-115196951D01*
X127917852Y-115196954D01*
X127828154Y-115286652D01*
X127828151Y-115286657D01*
X127828150Y-115286658D01*
X127808951Y-115324337D01*
X127770552Y-115399698D01*
X127755700Y-115493475D01*
X127755700Y-115638384D01*
X127753317Y-115662575D01*
X127740700Y-115726003D01*
X127740700Y-118802188D01*
X127721015Y-118869227D01*
X127672996Y-118912672D01*
X127556659Y-118971949D01*
X127556652Y-118971954D01*
X127466954Y-119061652D01*
X127466951Y-119061657D01*
X127409352Y-119174698D01*
X127394500Y-119268475D01*
X127394500Y-121131517D01*
X127405292Y-121199657D01*
X127409354Y-121225304D01*
X127466950Y-121338342D01*
X127466952Y-121338344D01*
X127466954Y-121338347D01*
X127556652Y-121428045D01*
X127556654Y-121428046D01*
X127556658Y-121428050D01*
X127669674Y-121485635D01*
X127669698Y-121485647D01*
X127763475Y-121500499D01*
X127763481Y-121500500D01*
X129626518Y-121500499D01*
X129720304Y-121485646D01*
X129833342Y-121428050D01*
X129923050Y-121338342D01*
X129980646Y-121225304D01*
X129980646Y-121225302D01*
X129980647Y-121225301D01*
X129995499Y-121131525D01*
X129995500Y-121131519D01*
X129995499Y-121090441D01*
X130015182Y-121023405D01*
X130067985Y-120977649D01*
X130137143Y-120967704D01*
X130200700Y-120996727D01*
X130221073Y-121019317D01*
X130234954Y-121039141D01*
X130395858Y-121200045D01*
X130395861Y-121200047D01*
X130582266Y-121330568D01*
X130788504Y-121426739D01*
X130788509Y-121426740D01*
X130788511Y-121426741D01*
X130841415Y-121440916D01*
X131008308Y-121485635D01*
X131153561Y-121498343D01*
X131234998Y-121505468D01*
X131235000Y-121505468D01*
X131235002Y-121505468D01*
X131307009Y-121499168D01*
X131461692Y-121485635D01*
X131681496Y-121426739D01*
X131887734Y-121330568D01*
X132074139Y-121200047D01*
X132235047Y-121039139D01*
X132365568Y-120852734D01*
X132461739Y-120646496D01*
X132520635Y-120426692D01*
X132540468Y-120200000D01*
X132520635Y-119973308D01*
X132461739Y-119753504D01*
X132365568Y-119547266D01*
X132279472Y-119424307D01*
X132235048Y-119360862D01*
X132183745Y-119309559D01*
X132074139Y-119199953D01*
X131988376Y-119139901D01*
X131944751Y-119085324D01*
X131935500Y-119038326D01*
X131935500Y-115046005D01*
X131925777Y-114997129D01*
X131925777Y-114997127D01*
X131918860Y-114962357D01*
X131908580Y-114910672D01*
X131855775Y-114783189D01*
X131779114Y-114668457D01*
X131779112Y-114668454D01*
X126876819Y-109766161D01*
X126843334Y-109704838D01*
X126840500Y-109678480D01*
X126840500Y-104814499D01*
X126860185Y-104747460D01*
X126912989Y-104701705D01*
X126964500Y-104690499D01*
X127591005Y-104690499D01*
X127591017Y-104690500D01*
X127601007Y-104690500D01*
X129100657Y-104690500D01*
X129167696Y-104710185D01*
X129188338Y-104726819D01*
X134605629Y-110144111D01*
X134605630Y-110144112D01*
X134720368Y-110220777D01*
X134847843Y-110273578D01*
X134847848Y-110273580D01*
X134847852Y-110273580D01*
X134847853Y-110273581D01*
X134983179Y-110300500D01*
X134983182Y-110300500D01*
X134983183Y-110300500D01*
X139148327Y-110300500D01*
X139215366Y-110320185D01*
X139249902Y-110353377D01*
X139309954Y-110439141D01*
X139470858Y-110600045D01*
X139470861Y-110600047D01*
X139657266Y-110730568D01*
X139863504Y-110826739D01*
X139863509Y-110826740D01*
X139863511Y-110826741D01*
X139916415Y-110840916D01*
X140083308Y-110885635D01*
X140245230Y-110899801D01*
X140309998Y-110905468D01*
X140310000Y-110905468D01*
X140310002Y-110905468D01*
X140366796Y-110900499D01*
X140536692Y-110885635D01*
X140756496Y-110826739D01*
X140962734Y-110730568D01*
X141149139Y-110600047D01*
X141310047Y-110439139D01*
X141323924Y-110419319D01*
X141378498Y-110375694D01*
X141447996Y-110368499D01*
X141510352Y-110400019D01*
X141545768Y-110460248D01*
X141549500Y-110490438D01*
X141549500Y-110531516D01*
X141557973Y-110585014D01*
X141564354Y-110625304D01*
X141621950Y-110738342D01*
X141621952Y-110738344D01*
X141621954Y-110738347D01*
X141711652Y-110828045D01*
X141711654Y-110828046D01*
X141711658Y-110828050D01*
X141824674Y-110885635D01*
X141824698Y-110885647D01*
X141918475Y-110900499D01*
X141918481Y-110900500D01*
X142615500Y-110900499D01*
X142682539Y-110920183D01*
X142728294Y-110972987D01*
X142739500Y-111024499D01*
X142739500Y-112858993D01*
X142739500Y-112858995D01*
X142739499Y-112858995D01*
X142767117Y-112997832D01*
X142769500Y-113022023D01*
X142769500Y-113106517D01*
X142778050Y-113160500D01*
X142784354Y-113200304D01*
X142841950Y-113313342D01*
X142841952Y-113313344D01*
X142841954Y-113313347D01*
X142931652Y-113403045D01*
X142931654Y-113403046D01*
X142931658Y-113403050D01*
X143044694Y-113460645D01*
X143044698Y-113460647D01*
X143138475Y-113475499D01*
X143138481Y-113475500D01*
X143283382Y-113475499D01*
X143307575Y-113477881D01*
X143328843Y-113482112D01*
X143371006Y-113490500D01*
X143371007Y-113490500D01*
X143508994Y-113490500D01*
X143572427Y-113477882D01*
X143596619Y-113475499D01*
X143741517Y-113475499D01*
X143741518Y-113475499D01*
X143835304Y-113460646D01*
X143948342Y-113403050D01*
X144038050Y-113313342D01*
X144095646Y-113200304D01*
X144095646Y-113200302D01*
X144095647Y-113200301D01*
X144110499Y-113106524D01*
X144110500Y-113106519D01*
X144110499Y-113022023D01*
X144112882Y-112997835D01*
X144140500Y-112858995D01*
X144140500Y-110604412D01*
X144142027Y-110585014D01*
X144150500Y-110531519D01*
X144150499Y-108668482D01*
X144135646Y-108574696D01*
X144078050Y-108461658D01*
X144078046Y-108461654D01*
X144078045Y-108461652D01*
X143988347Y-108371954D01*
X143988344Y-108371952D01*
X143988342Y-108371950D01*
X143907365Y-108330690D01*
X143875301Y-108314352D01*
X143781524Y-108299500D01*
X141918482Y-108299500D01*
X141837519Y-108312323D01*
X141824696Y-108314354D01*
X141711658Y-108371950D01*
X141711657Y-108371951D01*
X141711652Y-108371954D01*
X141621954Y-108461652D01*
X141621951Y-108461657D01*
X141621950Y-108461658D01*
X141617989Y-108469432D01*
X141564352Y-108574698D01*
X141549500Y-108668475D01*
X141549500Y-108709557D01*
X141529815Y-108776596D01*
X141477011Y-108822351D01*
X141407853Y-108832295D01*
X141344297Y-108803270D01*
X141323925Y-108780681D01*
X141310043Y-108760856D01*
X141149141Y-108599954D01*
X140962734Y-108469432D01*
X140962732Y-108469431D01*
X140756497Y-108373261D01*
X140756488Y-108373258D01*
X140536697Y-108314366D01*
X140536693Y-108314365D01*
X140536692Y-108314365D01*
X140536691Y-108314364D01*
X140536686Y-108314364D01*
X140310002Y-108294532D01*
X140309998Y-108294532D01*
X140083313Y-108314364D01*
X140083302Y-108314366D01*
X139863511Y-108373258D01*
X139863502Y-108373261D01*
X139657267Y-108469431D01*
X139657265Y-108469432D01*
X139470858Y-108599954D01*
X139309954Y-108760858D01*
X139249902Y-108846623D01*
X139195325Y-108890248D01*
X139148327Y-108899500D01*
X135393695Y-108899500D01*
X135326656Y-108879815D01*
X135306014Y-108863181D01*
X132615014Y-106172181D01*
X132581529Y-106110858D01*
X132586513Y-106041166D01*
X132628385Y-105985233D01*
X132693849Y-105960816D01*
X132702695Y-105960500D01*
X144058996Y-105960500D01*
X144150040Y-105942389D01*
X144194328Y-105933580D01*
X144271308Y-105901694D01*
X144321807Y-105880777D01*
X144321808Y-105880776D01*
X144321811Y-105880775D01*
X144436543Y-105804114D01*
X149869630Y-100371025D01*
X149930951Y-100337542D01*
X149968117Y-100335180D01*
X149973303Y-100335633D01*
X149973308Y-100335635D01*
X150178263Y-100353566D01*
X150199999Y-100355468D01*
X150200000Y-100355468D01*
X150200002Y-100355468D01*
X150256796Y-100350499D01*
X150426692Y-100335635D01*
X150646496Y-100276739D01*
X150852734Y-100180568D01*
X151039139Y-100050047D01*
X151200047Y-99889139D01*
X151213924Y-99869319D01*
X151268498Y-99825694D01*
X151337996Y-99818499D01*
X151400352Y-99850019D01*
X151435768Y-99910248D01*
X151439500Y-99940438D01*
X151439500Y-99981516D01*
X151449649Y-100045596D01*
X151454354Y-100075304D01*
X151511950Y-100188342D01*
X151511952Y-100188344D01*
X151511954Y-100188347D01*
X151601652Y-100278045D01*
X151601654Y-100278046D01*
X151601658Y-100278050D01*
X151714674Y-100335635D01*
X151714698Y-100335647D01*
X151808475Y-100350499D01*
X151808481Y-100350500D01*
X152535500Y-100350499D01*
X152602539Y-100370183D01*
X152648294Y-100422987D01*
X152659500Y-100474499D01*
X152659500Y-102148993D01*
X152659500Y-102148995D01*
X152659499Y-102148995D01*
X152687117Y-102287832D01*
X152689500Y-102312023D01*
X152689500Y-102396517D01*
X152700292Y-102464657D01*
X152704354Y-102490304D01*
X152761950Y-102603342D01*
X152761952Y-102603344D01*
X152761954Y-102603347D01*
X152851652Y-102693045D01*
X152851654Y-102693046D01*
X152851658Y-102693050D01*
X152964694Y-102750645D01*
X152964698Y-102750647D01*
X153058475Y-102765499D01*
X153058481Y-102765500D01*
X153203382Y-102765499D01*
X153227575Y-102767881D01*
X153248843Y-102772112D01*
X153291006Y-102780500D01*
X153291007Y-102780500D01*
X153428994Y-102780500D01*
X153492427Y-102767882D01*
X153516619Y-102765499D01*
X153661517Y-102765499D01*
X153661518Y-102765499D01*
X153755304Y-102750646D01*
X153868342Y-102693050D01*
X153958050Y-102603342D01*
X154015646Y-102490304D01*
X154015646Y-102490302D01*
X154015647Y-102490301D01*
X154030499Y-102396524D01*
X154030500Y-102396519D01*
X154030499Y-102312023D01*
X154032882Y-102287835D01*
X154037470Y-102264774D01*
X154060500Y-102148993D01*
X154060500Y-99601007D01*
X154060500Y-99601004D01*
X154042882Y-99512438D01*
X154040499Y-99488246D01*
X154040499Y-98118482D01*
X154040498Y-98118475D01*
X154025646Y-98024696D01*
X153968050Y-97911658D01*
X153968046Y-97911654D01*
X153968045Y-97911652D01*
X153878347Y-97821954D01*
X153878344Y-97821952D01*
X153878342Y-97821950D01*
X153765328Y-97764366D01*
X153765301Y-97764352D01*
X153671524Y-97749500D01*
X151808482Y-97749500D01*
X151727519Y-97762323D01*
X151714696Y-97764354D01*
X151601658Y-97821950D01*
X151601657Y-97821951D01*
X151601652Y-97821954D01*
X151511954Y-97911652D01*
X151511951Y-97911657D01*
X151511950Y-97911658D01*
X151507989Y-97919432D01*
X151454352Y-98024698D01*
X151439500Y-98118475D01*
X151439500Y-98159557D01*
X151419815Y-98226596D01*
X151367011Y-98272351D01*
X151297853Y-98282295D01*
X151234297Y-98253270D01*
X151213925Y-98230681D01*
X151210941Y-98226419D01*
X151200047Y-98210861D01*
X151200044Y-98210858D01*
X151200043Y-98210856D01*
X151039141Y-98049954D01*
X150852734Y-97919432D01*
X150852732Y-97919431D01*
X150646497Y-97823261D01*
X150646488Y-97823258D01*
X150426697Y-97764366D01*
X150426693Y-97764365D01*
X150426692Y-97764365D01*
X150426691Y-97764364D01*
X150426686Y-97764364D01*
X150200002Y-97744532D01*
X150199998Y-97744532D01*
X149973313Y-97764364D01*
X149973302Y-97764366D01*
X149753511Y-97823258D01*
X149753502Y-97823261D01*
X149547267Y-97919431D01*
X149547265Y-97919432D01*
X149360858Y-98049954D01*
X149199954Y-98210858D01*
X149069432Y-98397265D01*
X149069431Y-98397267D01*
X148973261Y-98603502D01*
X148973258Y-98603511D01*
X148914366Y-98823302D01*
X148914364Y-98823313D01*
X148894532Y-99049998D01*
X148894532Y-99050001D01*
X148914819Y-99281881D01*
X148901052Y-99350381D01*
X148878972Y-99380369D01*
X143736162Y-104523181D01*
X143674839Y-104556666D01*
X143648481Y-104559500D01*
X134520520Y-104559500D01*
X134453481Y-104539815D01*
X134407726Y-104487011D01*
X134397782Y-104417853D01*
X134426807Y-104354297D01*
X134432839Y-104347819D01*
X150166482Y-88614174D01*
X153319630Y-85461025D01*
X153380951Y-85427542D01*
X153418117Y-85425180D01*
X153423303Y-85425633D01*
X153423308Y-85425635D01*
X153628263Y-85443566D01*
X153649999Y-85445468D01*
X153650000Y-85445468D01*
X153650002Y-85445468D01*
X153706796Y-85440499D01*
X153876692Y-85425635D01*
X154096496Y-85366739D01*
X154302734Y-85270568D01*
X154489139Y-85140047D01*
X154650047Y-84979139D01*
X154663924Y-84959319D01*
X154718498Y-84915694D01*
X154787996Y-84908499D01*
X154850352Y-84940019D01*
X154885768Y-85000248D01*
X154889500Y-85030438D01*
X154889500Y-85071516D01*
X154890755Y-85079438D01*
X154904354Y-85165304D01*
X154961950Y-85278342D01*
X154961952Y-85278344D01*
X154961954Y-85278347D01*
X155051652Y-85368045D01*
X155051654Y-85368046D01*
X155051658Y-85368050D01*
X155164674Y-85425635D01*
X155164698Y-85425647D01*
X155258475Y-85440499D01*
X155258481Y-85440500D01*
X155995500Y-85440499D01*
X156062539Y-85460183D01*
X156108294Y-85512987D01*
X156119500Y-85564499D01*
X156119500Y-87328993D01*
X156119500Y-87328995D01*
X156119499Y-87328995D01*
X156147117Y-87467832D01*
X156149500Y-87492023D01*
X156149500Y-87576517D01*
X156158313Y-87632160D01*
X156164354Y-87670304D01*
X156221950Y-87783342D01*
X156221952Y-87783344D01*
X156221954Y-87783347D01*
X156311652Y-87873045D01*
X156311654Y-87873046D01*
X156311658Y-87873050D01*
X156424694Y-87930645D01*
X156424698Y-87930647D01*
X156518475Y-87945499D01*
X156518481Y-87945500D01*
X156663382Y-87945499D01*
X156687575Y-87947881D01*
X156708843Y-87952112D01*
X156751006Y-87960500D01*
X156751007Y-87960500D01*
X156888994Y-87960500D01*
X156952427Y-87947882D01*
X156976619Y-87945499D01*
X157121517Y-87945499D01*
X157121518Y-87945499D01*
X157215304Y-87930646D01*
X157328342Y-87873050D01*
X157418050Y-87783342D01*
X157475646Y-87670304D01*
X157475646Y-87670302D01*
X157475647Y-87670301D01*
X157486282Y-87603147D01*
X157490500Y-87576519D01*
X157490499Y-87492023D01*
X157492882Y-87467835D01*
X157520500Y-87328995D01*
X157520500Y-84701002D01*
X157516753Y-84682172D01*
X157516752Y-84682171D01*
X157516751Y-84682162D01*
X157493580Y-84565672D01*
X157493579Y-84565671D01*
X157492881Y-84562158D01*
X157490499Y-84537968D01*
X157490499Y-83208482D01*
X157489873Y-83204527D01*
X157475646Y-83114696D01*
X157418050Y-83001658D01*
X157418046Y-83001654D01*
X157418045Y-83001652D01*
X157328347Y-82911954D01*
X157328344Y-82911952D01*
X157328342Y-82911950D01*
X157226807Y-82860215D01*
X157215301Y-82854352D01*
X157121524Y-82839500D01*
X155258482Y-82839500D01*
X155177519Y-82852323D01*
X155164696Y-82854354D01*
X155051658Y-82911950D01*
X155051657Y-82911951D01*
X155051652Y-82911954D01*
X154961954Y-83001652D01*
X154961951Y-83001657D01*
X154961950Y-83001658D01*
X154957989Y-83009432D01*
X154904352Y-83114698D01*
X154889500Y-83208475D01*
X154889500Y-83249557D01*
X154869815Y-83316596D01*
X154817011Y-83362351D01*
X154747853Y-83372295D01*
X154684297Y-83343270D01*
X154663925Y-83320681D01*
X154661065Y-83316596D01*
X154650047Y-83300861D01*
X154650044Y-83300858D01*
X154650043Y-83300856D01*
X154489141Y-83139954D01*
X154302734Y-83009432D01*
X154302732Y-83009431D01*
X154096497Y-82913261D01*
X154096488Y-82913258D01*
X153876697Y-82854366D01*
X153876693Y-82854365D01*
X153876692Y-82854365D01*
X153876691Y-82854364D01*
X153876686Y-82854364D01*
X153650002Y-82834532D01*
X153649998Y-82834532D01*
X153423313Y-82854364D01*
X153423302Y-82854366D01*
X153203511Y-82913258D01*
X153203502Y-82913261D01*
X152997267Y-83009431D01*
X152997265Y-83009432D01*
X152810858Y-83139954D01*
X152649954Y-83300858D01*
X152519432Y-83487265D01*
X152519431Y-83487267D01*
X152423261Y-83693502D01*
X152423258Y-83693511D01*
X152364366Y-83913302D01*
X152364364Y-83913313D01*
X152344532Y-84139998D01*
X152344532Y-84140001D01*
X152364819Y-84371881D01*
X152351052Y-84440381D01*
X152328972Y-84470369D01*
X142812181Y-93987161D01*
X142750858Y-94020646D01*
X142681166Y-94015662D01*
X142625233Y-93973790D01*
X142600816Y-93908326D01*
X142600500Y-93899480D01*
X142600500Y-77421672D01*
X142620185Y-77354633D01*
X142653375Y-77320098D01*
X142739139Y-77260047D01*
X142900047Y-77099139D01*
X142913924Y-77079319D01*
X142968498Y-77035694D01*
X143037996Y-77028499D01*
X143100352Y-77060019D01*
X143135768Y-77120248D01*
X143139500Y-77150438D01*
X143139500Y-77191516D01*
X143149649Y-77255596D01*
X143154354Y-77285304D01*
X143211950Y-77398342D01*
X143211952Y-77398344D01*
X143211954Y-77398347D01*
X143301652Y-77488045D01*
X143301654Y-77488046D01*
X143301658Y-77488050D01*
X143414694Y-77545645D01*
X143414698Y-77545647D01*
X143508475Y-77560499D01*
X143508481Y-77560500D01*
X145371518Y-77560499D01*
X145465304Y-77545646D01*
X145578342Y-77488050D01*
X145668050Y-77398342D01*
X145725646Y-77285304D01*
X145725646Y-77285302D01*
X145725647Y-77285301D01*
X145740500Y-77191524D01*
X145740500Y-77084500D01*
X145760185Y-77017461D01*
X145812989Y-76971706D01*
X145864500Y-76960500D01*
X146678995Y-76960500D01*
X146678996Y-76960499D01*
X146721439Y-76952057D01*
X146817842Y-76932882D01*
X146842033Y-76930499D01*
X146926517Y-76930499D01*
X146926518Y-76930499D01*
X147020304Y-76915646D01*
X147133342Y-76858050D01*
X147223050Y-76768342D01*
X147280646Y-76655304D01*
X147280646Y-76655302D01*
X147280647Y-76655301D01*
X147295499Y-76561524D01*
X147295500Y-76561519D01*
X147295499Y-76416616D01*
X147297882Y-76392422D01*
X147306253Y-76350345D01*
X147310500Y-76328993D01*
X147310500Y-76191007D01*
X147310500Y-76191004D01*
X147297882Y-76127572D01*
X147295499Y-76103380D01*
X147295499Y-75958482D01*
X147288295Y-75912996D01*
X147280646Y-75864696D01*
X147223050Y-75751658D01*
X147223046Y-75751654D01*
X147223045Y-75751652D01*
X147133347Y-75661954D01*
X147133344Y-75661952D01*
X147133342Y-75661950D01*
X147056517Y-75622805D01*
X147020301Y-75604352D01*
X146926524Y-75589500D01*
X146926519Y-75589500D01*
X146842026Y-75589500D01*
X146817835Y-75587117D01*
X146678996Y-75559500D01*
X146678993Y-75559500D01*
X145864499Y-75559500D01*
X145797460Y-75539815D01*
X145751705Y-75487011D01*
X145740499Y-75435500D01*
X145740499Y-75328482D01*
X145737525Y-75309702D01*
X145725646Y-75234696D01*
X145668050Y-75121658D01*
X145668046Y-75121654D01*
X145668045Y-75121652D01*
X145578347Y-75031954D01*
X145578344Y-75031952D01*
X145578342Y-75031950D01*
X145465328Y-74974366D01*
X145465301Y-74974352D01*
X145371524Y-74959500D01*
X143508482Y-74959500D01*
X143427519Y-74972323D01*
X143414696Y-74974354D01*
X143301658Y-75031950D01*
X143301657Y-75031951D01*
X143301652Y-75031954D01*
X143211954Y-75121652D01*
X143211951Y-75121657D01*
X143211950Y-75121658D01*
X143207989Y-75129432D01*
X143154352Y-75234698D01*
X143139500Y-75328475D01*
X143139500Y-75369557D01*
X143119815Y-75436596D01*
X143067011Y-75482351D01*
X142997853Y-75492295D01*
X142934297Y-75463270D01*
X142913925Y-75440681D01*
X142900043Y-75420856D01*
X142739141Y-75259954D01*
X142552734Y-75129432D01*
X142552732Y-75129431D01*
X142346497Y-75033261D01*
X142346488Y-75033258D01*
X142126697Y-74974366D01*
X142126693Y-74974365D01*
X142126692Y-74974365D01*
X142126691Y-74974364D01*
X142126686Y-74974364D01*
X141900002Y-74954532D01*
X141899998Y-74954532D01*
X141673313Y-74974364D01*
X141673302Y-74974366D01*
X141453511Y-75033258D01*
X141453502Y-75033261D01*
X141247267Y-75129431D01*
X141247265Y-75129432D01*
X141060858Y-75259954D01*
X140899954Y-75420858D01*
X140769432Y-75607265D01*
X140769431Y-75607267D01*
X140673261Y-75813502D01*
X140673258Y-75813511D01*
X140614366Y-76033302D01*
X140614364Y-76033313D01*
X140594532Y-76259998D01*
X140594532Y-76260001D01*
X140614364Y-76486686D01*
X140614366Y-76486697D01*
X140673258Y-76706488D01*
X140673261Y-76706497D01*
X140769431Y-76912732D01*
X140769432Y-76912734D01*
X140899954Y-77099141D01*
X141060857Y-77260044D01*
X141060860Y-77260046D01*
X141060861Y-77260047D01*
X141146623Y-77320097D01*
X141190248Y-77374673D01*
X141199500Y-77421672D01*
X141199500Y-94083479D01*
X141179815Y-94150518D01*
X141163181Y-94171160D01*
X134193449Y-101140891D01*
X134132126Y-101174376D01*
X134062434Y-101169392D01*
X134006501Y-101127520D01*
X133989588Y-101096548D01*
X133951628Y-100994774D01*
X133869687Y-100885313D01*
X133787576Y-100823846D01*
X133760228Y-100803373D01*
X133760226Y-100803372D01*
X133632114Y-100755588D01*
X133632112Y-100755587D01*
X133632110Y-100755587D01*
X133575493Y-100749500D01*
X131664518Y-100749500D01*
X131664509Y-100749501D01*
X131607885Y-100755587D01*
X131479773Y-100803372D01*
X131370313Y-100885313D01*
X131288373Y-100994771D01*
X131240587Y-101122889D01*
X131234500Y-101179498D01*
X131234500Y-101720481D01*
X131234501Y-101720490D01*
X131240587Y-101777114D01*
X131288372Y-101905226D01*
X131367320Y-102010690D01*
X131391736Y-102076155D01*
X131376884Y-102144428D01*
X131367320Y-102159310D01*
X131288373Y-102264772D01*
X131240587Y-102392889D01*
X131234500Y-102449498D01*
X131234500Y-102990481D01*
X131234501Y-102990490D01*
X131240587Y-103047114D01*
X131288372Y-103175226D01*
X131367320Y-103280690D01*
X131391736Y-103346155D01*
X131376884Y-103414428D01*
X131367320Y-103429310D01*
X131288373Y-103534772D01*
X131240587Y-103662889D01*
X131234500Y-103719498D01*
X131234500Y-104260481D01*
X131234501Y-104260490D01*
X131240587Y-104317114D01*
X131288372Y-104445226D01*
X131367320Y-104550690D01*
X131391736Y-104616155D01*
X131376884Y-104684428D01*
X131367322Y-104699306D01*
X131356681Y-104713522D01*
X131300750Y-104755396D01*
X131231058Y-104760383D01*
X131169734Y-104726901D01*
X131169730Y-104726897D01*
X129888722Y-103445888D01*
X129888721Y-103445887D01*
X129773983Y-103369222D01*
X129646508Y-103316421D01*
X129646498Y-103316418D01*
X129511172Y-103289500D01*
X129511170Y-103289500D01*
X129511169Y-103289500D01*
X129137600Y-103289500D01*
X129070561Y-103269815D01*
X129024806Y-103217011D01*
X129014862Y-103147853D01*
X129021416Y-103122171D01*
X129049412Y-103047114D01*
X129051687Y-103025944D01*
X129055499Y-102990501D01*
X129055499Y-102990490D01*
X129055500Y-102990485D01*
X129055499Y-102449516D01*
X129049412Y-102392886D01*
X129001628Y-102264774D01*
X128922678Y-102159308D01*
X128898262Y-102093846D01*
X128913114Y-102025573D01*
X128922673Y-102010697D01*
X129001628Y-101905226D01*
X129049412Y-101777114D01*
X129054770Y-101727279D01*
X129055499Y-101720501D01*
X129055499Y-101720490D01*
X129055500Y-101720485D01*
X129055499Y-101179516D01*
X129049412Y-101122886D01*
X129037959Y-101092181D01*
X129018067Y-101038849D01*
X129001628Y-100994774D01*
X128922678Y-100889308D01*
X128898262Y-100823846D01*
X128913114Y-100755573D01*
X128922673Y-100740697D01*
X129001628Y-100635226D01*
X129049412Y-100507114D01*
X129051687Y-100485944D01*
X129055499Y-100450501D01*
X129055499Y-100450494D01*
X129055500Y-100450485D01*
X129055499Y-99909516D01*
X129049412Y-99852886D01*
X129001628Y-99724774D01*
X128922678Y-99619308D01*
X128898262Y-99553846D01*
X128913114Y-99485573D01*
X128922673Y-99470697D01*
X129001628Y-99365226D01*
X129049412Y-99237114D01*
X129051687Y-99215944D01*
X129055499Y-99180501D01*
X129055499Y-99180494D01*
X129055500Y-99180485D01*
X129055499Y-98639516D01*
X129049479Y-98583511D01*
X129049412Y-98582885D01*
X129028299Y-98526282D01*
X129001628Y-98454774D01*
X128922678Y-98349308D01*
X128898262Y-98283846D01*
X128913114Y-98215573D01*
X128922673Y-98200697D01*
X129001628Y-98095226D01*
X129049412Y-97967114D01*
X129051687Y-97945944D01*
X129055499Y-97910501D01*
X129055499Y-97910490D01*
X129055500Y-97910485D01*
X129055499Y-97369516D01*
X129049412Y-97312886D01*
X129001628Y-97184774D01*
X128922678Y-97079308D01*
X128898262Y-97013846D01*
X128913114Y-96945573D01*
X128922673Y-96930697D01*
X129001628Y-96825226D01*
X129049412Y-96697114D01*
X129051687Y-96675944D01*
X129055499Y-96640501D01*
X129055499Y-96640494D01*
X129055500Y-96640485D01*
X129055500Y-96379999D01*
X130104355Y-96379999D01*
X130108596Y-96414926D01*
X130109500Y-96429873D01*
X130109500Y-96448991D01*
X130116882Y-96486105D01*
X130118360Y-96495347D01*
X130124859Y-96548870D01*
X130124860Y-96548871D01*
X130130678Y-96564212D01*
X130136354Y-96583995D01*
X130136420Y-96584327D01*
X130136420Y-96584329D01*
X130158046Y-96636538D01*
X130159427Y-96640019D01*
X130185182Y-96707930D01*
X130185183Y-96707931D01*
X130229983Y-96772836D01*
X130231035Y-96774385D01*
X130265885Y-96826541D01*
X130269751Y-96831252D01*
X130269371Y-96831563D01*
X130276061Y-96839590D01*
X130281817Y-96847929D01*
X130281817Y-96847930D01*
X130326845Y-96887821D01*
X130332299Y-96892955D01*
X130363458Y-96924114D01*
X130373298Y-96930689D01*
X130374154Y-96931261D01*
X130387485Y-96941543D01*
X130409148Y-96960734D01*
X130409150Y-96960735D01*
X130409151Y-96960736D01*
X130445836Y-96979990D01*
X130457097Y-96986681D01*
X130478189Y-97000775D01*
X130507398Y-97012874D01*
X130517559Y-97017633D01*
X130532093Y-97025261D01*
X130559772Y-97039789D01*
X130559774Y-97039789D01*
X130559775Y-97039790D01*
X130573457Y-97043162D01*
X130581791Y-97045216D01*
X130599571Y-97051052D01*
X130605672Y-97053580D01*
X130655023Y-97063396D01*
X130660473Y-97064609D01*
X130724944Y-97080500D01*
X130741007Y-97080500D01*
X131148670Y-97080500D01*
X131215709Y-97100185D01*
X131261464Y-97152989D01*
X131271408Y-97222147D01*
X131264853Y-97247829D01*
X131240588Y-97312885D01*
X131240587Y-97312889D01*
X131234500Y-97369498D01*
X131234500Y-97910481D01*
X131234501Y-97910490D01*
X131240588Y-97967116D01*
X131264851Y-98032166D01*
X131269836Y-98101857D01*
X131236352Y-98163181D01*
X131175029Y-98196666D01*
X131148670Y-98199500D01*
X130774940Y-98199500D01*
X130710486Y-98215386D01*
X130705006Y-98216606D01*
X130655673Y-98226419D01*
X130649566Y-98228949D01*
X130631797Y-98234781D01*
X130609776Y-98240209D01*
X130567561Y-98262365D01*
X130557393Y-98267127D01*
X130528187Y-98279225D01*
X130507091Y-98293320D01*
X130495837Y-98300008D01*
X130459147Y-98319266D01*
X130459144Y-98319268D01*
X130437486Y-98338454D01*
X130424166Y-98348729D01*
X130413464Y-98355880D01*
X130413458Y-98355886D01*
X130382287Y-98387055D01*
X130376838Y-98392183D01*
X130331820Y-98432067D01*
X130326053Y-98440421D01*
X130319391Y-98448447D01*
X130319753Y-98448744D01*
X130315887Y-98453455D01*
X130281023Y-98505631D01*
X130279973Y-98507177D01*
X130235185Y-98572063D01*
X130235181Y-98572071D01*
X130209436Y-98639953D01*
X130208058Y-98643428D01*
X130186419Y-98695673D01*
X130186418Y-98695678D01*
X130186353Y-98696006D01*
X130180680Y-98715781D01*
X130174859Y-98731129D01*
X130168362Y-98784640D01*
X130166884Y-98793881D01*
X130159500Y-98831006D01*
X130159500Y-98850125D01*
X130158596Y-98865071D01*
X130154355Y-98899999D01*
X130158596Y-98934926D01*
X130159500Y-98949873D01*
X130159500Y-98968991D01*
X130166882Y-99006105D01*
X130168360Y-99015347D01*
X130174859Y-99068870D01*
X130174860Y-99068871D01*
X130180678Y-99084212D01*
X130186354Y-99103995D01*
X130186420Y-99104327D01*
X130186420Y-99104329D01*
X130208046Y-99156538D01*
X130209427Y-99160019D01*
X130235182Y-99227930D01*
X130235183Y-99227931D01*
X130279983Y-99292836D01*
X130281035Y-99294385D01*
X130315885Y-99346541D01*
X130319751Y-99351252D01*
X130319371Y-99351563D01*
X130326061Y-99359590D01*
X130331817Y-99367929D01*
X130331817Y-99367930D01*
X130376845Y-99407821D01*
X130382299Y-99412955D01*
X130413458Y-99444114D01*
X130420573Y-99448868D01*
X130424154Y-99451261D01*
X130437485Y-99461543D01*
X130459148Y-99480734D01*
X130459150Y-99480735D01*
X130459151Y-99480736D01*
X130495836Y-99499990D01*
X130507097Y-99506681D01*
X130528189Y-99520775D01*
X130557398Y-99532874D01*
X130567559Y-99537633D01*
X130581595Y-99545000D01*
X130609772Y-99559789D01*
X130609774Y-99559789D01*
X130609775Y-99559790D01*
X130623457Y-99563162D01*
X130631791Y-99565216D01*
X130649571Y-99571052D01*
X130655672Y-99573580D01*
X130705023Y-99583396D01*
X130710473Y-99584609D01*
X130774944Y-99600500D01*
X130791007Y-99600500D01*
X131576880Y-99600500D01*
X131605396Y-99603823D01*
X131607875Y-99604408D01*
X131607886Y-99604412D01*
X131664515Y-99610500D01*
X133575484Y-99610499D01*
X133632114Y-99604412D01*
X133760226Y-99556628D01*
X133869687Y-99474687D01*
X133951628Y-99365226D01*
X133999412Y-99237114D01*
X134001687Y-99215944D01*
X134005499Y-99180501D01*
X134005499Y-99180494D01*
X134005500Y-99180485D01*
X134005499Y-98639516D01*
X133999479Y-98583511D01*
X133999412Y-98582885D01*
X133978299Y-98526282D01*
X133951628Y-98454774D01*
X133872678Y-98349308D01*
X133848262Y-98283846D01*
X133863114Y-98215573D01*
X133872673Y-98200697D01*
X133951628Y-98095226D01*
X133999412Y-97967114D01*
X134001687Y-97945944D01*
X134005499Y-97910501D01*
X134005499Y-97910490D01*
X134005500Y-97910485D01*
X134005499Y-97369516D01*
X133999412Y-97312886D01*
X133951628Y-97184774D01*
X133872678Y-97079308D01*
X133848262Y-97013846D01*
X133863114Y-96945573D01*
X133872673Y-96930697D01*
X133951628Y-96825226D01*
X133999412Y-96697114D01*
X134001687Y-96675944D01*
X134005499Y-96640501D01*
X134005499Y-96640494D01*
X134005500Y-96640485D01*
X134005499Y-96099516D01*
X133999412Y-96042886D01*
X133951628Y-95914774D01*
X133869687Y-95805313D01*
X133791959Y-95747127D01*
X133760228Y-95723373D01*
X133760226Y-95723372D01*
X133632114Y-95675588D01*
X133632112Y-95675587D01*
X133632110Y-95675587D01*
X133575493Y-95669500D01*
X131664518Y-95669500D01*
X131664509Y-95669501D01*
X131607886Y-95675587D01*
X131605402Y-95676175D01*
X131576880Y-95679500D01*
X130724940Y-95679500D01*
X130660486Y-95695386D01*
X130655006Y-95696606D01*
X130605673Y-95706419D01*
X130599566Y-95708949D01*
X130581797Y-95714781D01*
X130559776Y-95720209D01*
X130517561Y-95742365D01*
X130507393Y-95747127D01*
X130478187Y-95759225D01*
X130457091Y-95773320D01*
X130445837Y-95780008D01*
X130409147Y-95799266D01*
X130409144Y-95799268D01*
X130387486Y-95818454D01*
X130374166Y-95828729D01*
X130363464Y-95835880D01*
X130363458Y-95835886D01*
X130332287Y-95867055D01*
X130326838Y-95872183D01*
X130281820Y-95912067D01*
X130276053Y-95920421D01*
X130269391Y-95928447D01*
X130269753Y-95928744D01*
X130265887Y-95933455D01*
X130231023Y-95985631D01*
X130229973Y-95987177D01*
X130185185Y-96052063D01*
X130185181Y-96052071D01*
X130159436Y-96119953D01*
X130158058Y-96123428D01*
X130136419Y-96175673D01*
X130136418Y-96175678D01*
X130136353Y-96176006D01*
X130130680Y-96195781D01*
X130124859Y-96211129D01*
X130118362Y-96264640D01*
X130116884Y-96273881D01*
X130109500Y-96311006D01*
X130109500Y-96330125D01*
X130108596Y-96345071D01*
X130104355Y-96379999D01*
X129055500Y-96379999D01*
X129055499Y-96099516D01*
X129049769Y-96046209D01*
X129062176Y-95977452D01*
X129085375Y-95945280D01*
X131824114Y-93206543D01*
X131900775Y-93091811D01*
X131953580Y-92964328D01*
X131980500Y-92828994D01*
X131980500Y-92691006D01*
X131980500Y-88741672D01*
X132000185Y-88674633D01*
X132033375Y-88640098D01*
X132067034Y-88616530D01*
X134699500Y-88616530D01*
X134699500Y-88823469D01*
X134739868Y-89026412D01*
X134739870Y-89026420D01*
X134819058Y-89217596D01*
X134934024Y-89389657D01*
X135080342Y-89535975D01*
X135080345Y-89535977D01*
X135252402Y-89650941D01*
X135443580Y-89730130D01*
X135646530Y-89770499D01*
X135646534Y-89770500D01*
X135646535Y-89770500D01*
X136853466Y-89770500D01*
X136853467Y-89770499D01*
X137056420Y-89730130D01*
X137247598Y-89650941D01*
X137419655Y-89535977D01*
X137565977Y-89389655D01*
X137680941Y-89217598D01*
X137760130Y-89026420D01*
X137800500Y-88823465D01*
X137800500Y-88616535D01*
X137760130Y-88413580D01*
X137680941Y-88222402D01*
X137565977Y-88050345D01*
X137565975Y-88050342D01*
X137419657Y-87904024D01*
X137273995Y-87806697D01*
X137247598Y-87789059D01*
X137056420Y-87709870D01*
X137056412Y-87709868D01*
X136853469Y-87669500D01*
X136853465Y-87669500D01*
X135646535Y-87669500D01*
X135646530Y-87669500D01*
X135443587Y-87709868D01*
X135443579Y-87709870D01*
X135252403Y-87789058D01*
X135080342Y-87904024D01*
X134934024Y-88050342D01*
X134819058Y-88222403D01*
X134739870Y-88413579D01*
X134739868Y-88413587D01*
X134699500Y-88616530D01*
X132067034Y-88616530D01*
X132119139Y-88580047D01*
X132280047Y-88419139D01*
X132410568Y-88232734D01*
X132506739Y-88026496D01*
X132565635Y-87806692D01*
X132585468Y-87580000D01*
X132585163Y-87576519D01*
X132575999Y-87471765D01*
X132565635Y-87353308D01*
X132506739Y-87133504D01*
X132410568Y-86927266D01*
X132280047Y-86740861D01*
X132280045Y-86740858D01*
X132119141Y-86579954D01*
X131932734Y-86449432D01*
X131932732Y-86449431D01*
X131726497Y-86353261D01*
X131726488Y-86353258D01*
X131506697Y-86294366D01*
X131506693Y-86294365D01*
X131506692Y-86294365D01*
X131506691Y-86294364D01*
X131506686Y-86294364D01*
X131280002Y-86274532D01*
X131279998Y-86274532D01*
X131053313Y-86294364D01*
X131053302Y-86294366D01*
X130833511Y-86353258D01*
X130833502Y-86353261D01*
X130627267Y-86449431D01*
X130627265Y-86449432D01*
X130440858Y-86579954D01*
X130279954Y-86740858D01*
X130266074Y-86760682D01*
X130211498Y-86804307D01*
X130141999Y-86811501D01*
X130079644Y-86779979D01*
X130044230Y-86719749D01*
X130040499Y-86689559D01*
X130040499Y-86648482D01*
X130040498Y-86648475D01*
X130025646Y-86554696D01*
X129968050Y-86441658D01*
X129968046Y-86441654D01*
X129968045Y-86441652D01*
X129878347Y-86351954D01*
X129878344Y-86351952D01*
X129878342Y-86351950D01*
X129787234Y-86305528D01*
X129765301Y-86294352D01*
X129671524Y-86279500D01*
X127808482Y-86279500D01*
X127727519Y-86292323D01*
X127714696Y-86294354D01*
X127601658Y-86351950D01*
X127601657Y-86351951D01*
X127601652Y-86351954D01*
X127511954Y-86441652D01*
X127511951Y-86441657D01*
X127511950Y-86441658D01*
X127507989Y-86449432D01*
X127454352Y-86554698D01*
X127439500Y-86648475D01*
X127439500Y-88511517D01*
X127450292Y-88579657D01*
X127454354Y-88605304D01*
X127511950Y-88718342D01*
X127511952Y-88718344D01*
X127511954Y-88718347D01*
X127601652Y-88808045D01*
X127601654Y-88808046D01*
X127601658Y-88808050D01*
X127714696Y-88865646D01*
X127714698Y-88865647D01*
X127808475Y-88880499D01*
X127808481Y-88880500D01*
X128785500Y-88880499D01*
X128852539Y-88900183D01*
X128898294Y-88952987D01*
X128909500Y-89004499D01*
X128909500Y-91898991D01*
X128922118Y-91962430D01*
X128924500Y-91986619D01*
X128924500Y-92131517D01*
X128935292Y-92199657D01*
X128939354Y-92225304D01*
X128996950Y-92338342D01*
X128996952Y-92338344D01*
X128996954Y-92338347D01*
X129086652Y-92428045D01*
X129086654Y-92428046D01*
X129086658Y-92428050D01*
X129199447Y-92485519D01*
X129199698Y-92485647D01*
X129293475Y-92500499D01*
X129293481Y-92500500D01*
X129377968Y-92500499D01*
X129402159Y-92502882D01*
X129541002Y-92530499D01*
X129541005Y-92530500D01*
X129541007Y-92530500D01*
X129678995Y-92530500D01*
X129678996Y-92530499D01*
X129702890Y-92525746D01*
X129817842Y-92502882D01*
X129842033Y-92500499D01*
X129926517Y-92500499D01*
X129926518Y-92500499D01*
X130020304Y-92485646D01*
X130133342Y-92428050D01*
X130223050Y-92338342D01*
X130280646Y-92225304D01*
X130280646Y-92225302D01*
X130280647Y-92225301D01*
X130295499Y-92131524D01*
X130295500Y-92131519D01*
X130295499Y-91986616D01*
X130297882Y-91962422D01*
X130310500Y-91898993D01*
X130310500Y-88726968D01*
X130330185Y-88659929D01*
X130382989Y-88614174D01*
X130452147Y-88604230D01*
X130505619Y-88625391D01*
X130526623Y-88640097D01*
X130570248Y-88694673D01*
X130579500Y-88741672D01*
X130579500Y-92418480D01*
X130559815Y-92485519D01*
X130543181Y-92506161D01*
X127416160Y-95633181D01*
X127354837Y-95666666D01*
X127328479Y-95669500D01*
X126714518Y-95669500D01*
X126714509Y-95669501D01*
X126657885Y-95675587D01*
X126529773Y-95723372D01*
X126420313Y-95805313D01*
X126338372Y-95914773D01*
X126300412Y-96016546D01*
X126258540Y-96072479D01*
X126193076Y-96096895D01*
X126124803Y-96082043D01*
X126096550Y-96060892D01*
X118916819Y-88881161D01*
X118883334Y-88819838D01*
X118880500Y-88793480D01*
X118880500Y-85869999D01*
X135044357Y-85869999D01*
X135044357Y-85870000D01*
X135064884Y-86091535D01*
X135064885Y-86091537D01*
X135125769Y-86305523D01*
X135125775Y-86305538D01*
X135224938Y-86504683D01*
X135224943Y-86504691D01*
X135359020Y-86682238D01*
X135523437Y-86832123D01*
X135523439Y-86832125D01*
X135712595Y-86949245D01*
X135712596Y-86949245D01*
X135712599Y-86949247D01*
X135920060Y-87029618D01*
X136138757Y-87070500D01*
X136138759Y-87070500D01*
X136361241Y-87070500D01*
X136361243Y-87070500D01*
X136579940Y-87029618D01*
X136787401Y-86949247D01*
X136976562Y-86832124D01*
X137140981Y-86682236D01*
X137275058Y-86504689D01*
X137374229Y-86305528D01*
X137435115Y-86091536D01*
X137455643Y-85870000D01*
X137435115Y-85648464D01*
X137374229Y-85434472D01*
X137374224Y-85434461D01*
X137275061Y-85235316D01*
X137275056Y-85235308D01*
X137140979Y-85057761D01*
X136976562Y-84907876D01*
X136976560Y-84907874D01*
X136787404Y-84790754D01*
X136787398Y-84790752D01*
X136774032Y-84785574D01*
X136579940Y-84710382D01*
X136361243Y-84669500D01*
X136138757Y-84669500D01*
X135920060Y-84710382D01*
X135788864Y-84761207D01*
X135712601Y-84790752D01*
X135712595Y-84790754D01*
X135523439Y-84907874D01*
X135523437Y-84907876D01*
X135359020Y-85057761D01*
X135224943Y-85235308D01*
X135224938Y-85235316D01*
X135125775Y-85434461D01*
X135125769Y-85434476D01*
X135064885Y-85648462D01*
X135064884Y-85648464D01*
X135044357Y-85869999D01*
X118880500Y-85869999D01*
X118880500Y-82497648D01*
X128699500Y-82497648D01*
X128699500Y-82702351D01*
X128731522Y-82904534D01*
X128794781Y-83099223D01*
X128887715Y-83281613D01*
X129008028Y-83447213D01*
X129152786Y-83591971D01*
X129292534Y-83693502D01*
X129318390Y-83712287D01*
X129434607Y-83771503D01*
X129500776Y-83805218D01*
X129500778Y-83805218D01*
X129500781Y-83805220D01*
X129583580Y-83832123D01*
X129695465Y-83868477D01*
X129796557Y-83884488D01*
X129897648Y-83900500D01*
X129897649Y-83900500D01*
X130102351Y-83900500D01*
X130102352Y-83900500D01*
X130304534Y-83868477D01*
X130499219Y-83805220D01*
X130681610Y-83712287D01*
X130774590Y-83644732D01*
X130847213Y-83591971D01*
X130847215Y-83591968D01*
X130847219Y-83591966D01*
X130991966Y-83447219D01*
X130991968Y-83447215D01*
X130991971Y-83447213D01*
X131053626Y-83362351D01*
X131112287Y-83281610D01*
X131205220Y-83099219D01*
X131268477Y-82904534D01*
X131273947Y-82869999D01*
X135044357Y-82869999D01*
X135044357Y-82870000D01*
X135064884Y-83091535D01*
X135064885Y-83091537D01*
X135125769Y-83305523D01*
X135125775Y-83305538D01*
X135224938Y-83504683D01*
X135224943Y-83504691D01*
X135359020Y-83682238D01*
X135523437Y-83832123D01*
X135523439Y-83832125D01*
X135712595Y-83949245D01*
X135712596Y-83949245D01*
X135712599Y-83949247D01*
X135920060Y-84029618D01*
X136138757Y-84070500D01*
X136138759Y-84070500D01*
X136361241Y-84070500D01*
X136361243Y-84070500D01*
X136579940Y-84029618D01*
X136787401Y-83949247D01*
X136976562Y-83832124D01*
X137140981Y-83682236D01*
X137275058Y-83504689D01*
X137374229Y-83305528D01*
X137435115Y-83091536D01*
X137455643Y-82870000D01*
X137452356Y-82834532D01*
X137435115Y-82648464D01*
X137435114Y-82648462D01*
X137434161Y-82645114D01*
X137374229Y-82434472D01*
X137305012Y-82295466D01*
X137275061Y-82235316D01*
X137275056Y-82235308D01*
X137140979Y-82057761D01*
X136976562Y-81907876D01*
X136976560Y-81907874D01*
X136787404Y-81790754D01*
X136787398Y-81790752D01*
X136579940Y-81710382D01*
X136361243Y-81669500D01*
X136138757Y-81669500D01*
X135920060Y-81710382D01*
X135810616Y-81752781D01*
X135712601Y-81790752D01*
X135712595Y-81790754D01*
X135523439Y-81907874D01*
X135523437Y-81907876D01*
X135359020Y-82057761D01*
X135224943Y-82235308D01*
X135224938Y-82235316D01*
X135125775Y-82434461D01*
X135125769Y-82434476D01*
X135064885Y-82648462D01*
X135064884Y-82648464D01*
X135044357Y-82869999D01*
X131273947Y-82869999D01*
X131300500Y-82702352D01*
X131300500Y-82497648D01*
X131268477Y-82295466D01*
X131248931Y-82235311D01*
X131205218Y-82100776D01*
X131171503Y-82034607D01*
X131112287Y-81918390D01*
X131104556Y-81907749D01*
X130991971Y-81752786D01*
X130847213Y-81608028D01*
X130681613Y-81487715D01*
X130681612Y-81487714D01*
X130681610Y-81487713D01*
X130624653Y-81458691D01*
X130499223Y-81394781D01*
X130304534Y-81331522D01*
X130129995Y-81303878D01*
X130102352Y-81299500D01*
X129897648Y-81299500D01*
X129873329Y-81303351D01*
X129695465Y-81331522D01*
X129500776Y-81394781D01*
X129318386Y-81487715D01*
X129152786Y-81608028D01*
X129008028Y-81752786D01*
X128887715Y-81918386D01*
X128794781Y-82100776D01*
X128731522Y-82295465D01*
X128699500Y-82497648D01*
X118880500Y-82497648D01*
X118880500Y-77401672D01*
X118900185Y-77334633D01*
X118933375Y-77300098D01*
X119019139Y-77240047D01*
X119180047Y-77079139D01*
X119310568Y-76892734D01*
X119406739Y-76686496D01*
X119465635Y-76466692D01*
X119485468Y-76240000D01*
X119465635Y-76013308D01*
X119406739Y-75793504D01*
X119310568Y-75587266D01*
X119180047Y-75400861D01*
X119180045Y-75400858D01*
X119019141Y-75239954D01*
X118832734Y-75109432D01*
X118832732Y-75109431D01*
X118626497Y-75013261D01*
X118626488Y-75013258D01*
X118406697Y-74954366D01*
X118406693Y-74954365D01*
X118406692Y-74954365D01*
X118406691Y-74954364D01*
X118406686Y-74954364D01*
X118180002Y-74934532D01*
X118179998Y-74934532D01*
X117953313Y-74954364D01*
X117953302Y-74954366D01*
X117733511Y-75013258D01*
X117733502Y-75013261D01*
X117527267Y-75109431D01*
X117527265Y-75109432D01*
X117340858Y-75239954D01*
X117179954Y-75400858D01*
X117166074Y-75420682D01*
X117111498Y-75464307D01*
X117041999Y-75471501D01*
X116979644Y-75439979D01*
X116944230Y-75379749D01*
X116940499Y-75349559D01*
X116940499Y-75308482D01*
X116934339Y-75269586D01*
X116925646Y-75214696D01*
X116868050Y-75101658D01*
X116868046Y-75101654D01*
X116868045Y-75101652D01*
X116778347Y-75011954D01*
X116778344Y-75011952D01*
X116778342Y-75011950D01*
X116675404Y-74959500D01*
X116665301Y-74954352D01*
X116571524Y-74939500D01*
X114708482Y-74939500D01*
X114627519Y-74952323D01*
X114614696Y-74954354D01*
X114501658Y-75011950D01*
X114501657Y-75011951D01*
X114501652Y-75011954D01*
X114411954Y-75101652D01*
X114411951Y-75101657D01*
X114411950Y-75101658D01*
X114392751Y-75139337D01*
X114354352Y-75214698D01*
X114339500Y-75308475D01*
X114339500Y-75415500D01*
X114319815Y-75482539D01*
X114267011Y-75528294D01*
X114215500Y-75539500D01*
X113591002Y-75539500D01*
X113452162Y-75567117D01*
X113427972Y-75569500D01*
X113343482Y-75569500D01*
X113262519Y-75582323D01*
X113249696Y-75584354D01*
X113136658Y-75641950D01*
X113136657Y-75641951D01*
X113136652Y-75641954D01*
X113046954Y-75731652D01*
X113046951Y-75731657D01*
X113046950Y-75731658D01*
X113027751Y-75769337D01*
X112989352Y-75844698D01*
X112974500Y-75938475D01*
X112974500Y-76083384D01*
X112972117Y-76107575D01*
X112959500Y-76171003D01*
X112959500Y-76308991D01*
X112972118Y-76372430D01*
X112974500Y-76396619D01*
X112974500Y-76541517D01*
X112977669Y-76561524D01*
X112989354Y-76635304D01*
X113046950Y-76748342D01*
X113046952Y-76748344D01*
X113046954Y-76748347D01*
X113136652Y-76838045D01*
X113136654Y-76838046D01*
X113136658Y-76838050D01*
X113243977Y-76892732D01*
X113249698Y-76895647D01*
X113343475Y-76910499D01*
X113343481Y-76910500D01*
X113427968Y-76910499D01*
X113452159Y-76912882D01*
X113591002Y-76940499D01*
X113591005Y-76940500D01*
X113591007Y-76940500D01*
X114215501Y-76940500D01*
X114282540Y-76960185D01*
X114328295Y-77012989D01*
X114339501Y-77064500D01*
X114339501Y-77171518D01*
X114354354Y-77265304D01*
X114411950Y-77378342D01*
X114411952Y-77378344D01*
X114411954Y-77378347D01*
X114501652Y-77468045D01*
X114501654Y-77468046D01*
X114501658Y-77468050D01*
X114598897Y-77517596D01*
X114614698Y-77525647D01*
X114708475Y-77540499D01*
X114708481Y-77540500D01*
X116571518Y-77540499D01*
X116665304Y-77525646D01*
X116778342Y-77468050D01*
X116868050Y-77378342D01*
X116925646Y-77265304D01*
X116925646Y-77265302D01*
X116925647Y-77265301D01*
X116940499Y-77171525D01*
X116940500Y-77171519D01*
X116940499Y-77130441D01*
X116960182Y-77063405D01*
X117012985Y-77017649D01*
X117082143Y-77007704D01*
X117145700Y-77036727D01*
X117166073Y-77059317D01*
X117179954Y-77079141D01*
X117340857Y-77240044D01*
X117340860Y-77240046D01*
X117340861Y-77240047D01*
X117426623Y-77300097D01*
X117470248Y-77354673D01*
X117479500Y-77401672D01*
X117479500Y-89066005D01*
X117479500Y-89203993D01*
X117479500Y-89203995D01*
X117479499Y-89203995D01*
X117506418Y-89339321D01*
X117506421Y-89339331D01*
X117559222Y-89466806D01*
X117635887Y-89581544D01*
X126052162Y-97997819D01*
X126085647Y-98059142D01*
X126080663Y-98128834D01*
X126038791Y-98184767D01*
X125973327Y-98209184D01*
X125964481Y-98209500D01*
X121311518Y-98209500D01*
X121244479Y-98189815D01*
X121223837Y-98173181D01*
X107521027Y-84470370D01*
X107487542Y-84409047D01*
X107485180Y-84371881D01*
X107485633Y-84366697D01*
X107485635Y-84366692D01*
X107505468Y-84140000D01*
X107485635Y-83913308D01*
X107426739Y-83693504D01*
X107330568Y-83487266D01*
X107200047Y-83300861D01*
X107200045Y-83300858D01*
X107039141Y-83139954D01*
X106852734Y-83009432D01*
X106852732Y-83009431D01*
X106646497Y-82913261D01*
X106646488Y-82913258D01*
X106426697Y-82854366D01*
X106426693Y-82854365D01*
X106426692Y-82854365D01*
X106426691Y-82854364D01*
X106426686Y-82854364D01*
X106200002Y-82834532D01*
X106199998Y-82834532D01*
X105973313Y-82854364D01*
X105973302Y-82854366D01*
X105753511Y-82913258D01*
X105753502Y-82913261D01*
X105547267Y-83009431D01*
X105547265Y-83009432D01*
X105360858Y-83139954D01*
X105199954Y-83300858D01*
X105186074Y-83320682D01*
X105131498Y-83364307D01*
X105061999Y-83371501D01*
X104999644Y-83339979D01*
X104964230Y-83279749D01*
X104960499Y-83249559D01*
X104960499Y-83208482D01*
X104959873Y-83204527D01*
X104945646Y-83114696D01*
X104888050Y-83001658D01*
X104888046Y-83001654D01*
X104888045Y-83001652D01*
X104798347Y-82911954D01*
X104798344Y-82911952D01*
X104798342Y-82911950D01*
X104696807Y-82860215D01*
X104685301Y-82854352D01*
X104591524Y-82839500D01*
X102728482Y-82839500D01*
X102647519Y-82852323D01*
X102634696Y-82854354D01*
X102521658Y-82911950D01*
X102521657Y-82911951D01*
X102521655Y-82911952D01*
X102494553Y-82939054D01*
X102433229Y-82972538D01*
X102363538Y-82967552D01*
X102307605Y-82925680D01*
X102283189Y-82860215D01*
X102293875Y-82800308D01*
X102857542Y-81553045D01*
X102863418Y-81541657D01*
X103649974Y-80193682D01*
X103655968Y-80184389D01*
X104002466Y-79696579D01*
X104005153Y-79692944D01*
X104039289Y-79648464D01*
X105280308Y-78031376D01*
X105294654Y-78015679D01*
X106704667Y-76716802D01*
X106711212Y-76711182D01*
X107003640Y-76477239D01*
X107009899Y-76472549D01*
X108515963Y-75416922D01*
X108518273Y-75415342D01*
X108662173Y-75319409D01*
X108670618Y-75314256D01*
X110023935Y-74561242D01*
X110028735Y-74558708D01*
X110087703Y-74529223D01*
X110094745Y-74525975D01*
X111606535Y-73885263D01*
X111616271Y-73881611D01*
X112231817Y-73679787D01*
X112241688Y-73676998D01*
X114040710Y-73248654D01*
X114050372Y-73246757D01*
X115601169Y-73005967D01*
X115620194Y-73004500D01*
X118041882Y-73004500D01*
X118060096Y-73005845D01*
G37*
%TD.AperFunction*%
%TD*%
M02*
