%TF.GenerationSoftware,KiCad,Pcbnew,8.0.7-8.0.7-0~ubuntu24.04.1*%
%TF.CreationDate,2025-01-10T15:06:56-06:00*%
%TF.ProjectId,HeartLEDChaser_PCB,48656172-744c-4454-9443-68617365725f,rev?*%
%TF.SameCoordinates,Original*%
%TF.FileFunction,Copper,L2,Bot*%
%TF.FilePolarity,Positive*%
%FSLAX46Y46*%
G04 Gerber Fmt 4.6, Leading zero omitted, Abs format (unit mm)*
G04 Created by KiCad (PCBNEW 8.0.7-8.0.7-0~ubuntu24.04.1) date 2025-01-10 15:06:56*
%MOMM*%
%LPD*%
G01*
G04 APERTURE LIST*
%TA.AperFunction,ComponentPad*%
%ADD10R,1.800000X1.800000*%
%TD*%
%TA.AperFunction,ComponentPad*%
%ADD11C,1.800000*%
%TD*%
%TA.AperFunction,ComponentPad*%
%ADD12C,1.600000*%
%TD*%
%TA.AperFunction,ComponentPad*%
%ADD13O,2.300000X1.300000*%
%TD*%
%TA.AperFunction,SMDPad,CuDef*%
%ADD14R,0.860000X0.800000*%
%TD*%
%TA.AperFunction,SMDPad,CuDef*%
%ADD15R,1.360000X1.500000*%
%TD*%
%TA.AperFunction,SMDPad,CuDef*%
%ADD16R,0.800000X0.900000*%
%TD*%
%TA.AperFunction,SMDPad,CuDef*%
%ADD17R,0.570000X0.540000*%
%TD*%
%TA.AperFunction,SMDPad,CuDef*%
%ADD18R,2.600000X3.600000*%
%TD*%
%TA.AperFunction,SMDPad,CuDef*%
%ADD19R,1.000000X0.600000*%
%TD*%
%TA.AperFunction,SMDPad,CuDef*%
%ADD20R,1.981200X0.558800*%
%TD*%
%TA.AperFunction,SMDPad,CuDef*%
%ADD21R,0.810000X0.860000*%
%TD*%
%TA.AperFunction,SMDPad,CuDef*%
%ADD22R,1.150000X0.950000*%
%TD*%
%TA.AperFunction,ViaPad*%
%ADD23C,0.600000*%
%TD*%
%TA.AperFunction,Conductor*%
%ADD24C,0.600000*%
%TD*%
%TA.AperFunction,Conductor*%
%ADD25C,1.000000*%
%TD*%
G04 APERTURE END LIST*
D10*
%TO.P,D3,1,K*%
%TO.N,Net-(D3-K)*%
X103660000Y-84140000D03*
D11*
%TO.P,D3,2,A*%
%TO.N,Net-(D3-A)*%
X106200000Y-84140000D03*
%TD*%
D10*
%TO.P,D9,1,K*%
%TO.N,Net-(D9-K)*%
X156190000Y-84140000D03*
D11*
%TO.P,D9,2,A*%
%TO.N,Net-(D9-A)*%
X153650000Y-84140000D03*
%TD*%
D10*
%TO.P,D8,1,K*%
%TO.N,Net-(D8-K)*%
X152740000Y-99050000D03*
D11*
%TO.P,D8,2,A*%
%TO.N,Net-(D8-A)*%
X150200000Y-99050000D03*
%TD*%
D10*
%TO.P,D2,1,K*%
%TO.N,Net-(D2-K)*%
X115640000Y-76240000D03*
D11*
%TO.P,D2,2,A*%
%TO.N,Net-(D2-A)*%
X118180000Y-76240000D03*
%TD*%
D10*
%TO.P,D4,1,K*%
%TO.N,Net-(D4-K)*%
X107120000Y-99030000D03*
D11*
%TO.P,D4,2,A*%
%TO.N,Net-(D4-A)*%
X109660000Y-99030000D03*
%TD*%
D12*
%TO.P,U4,1,1*%
%TO.N,unconnected-(U4-Pad1)*%
X136250000Y-85870000D03*
%TO.P,U4,2,2*%
%TO.N,Net-(BT1-+)*%
X136250000Y-82870000D03*
%TO.P,U4,3,3*%
%TO.N,+3V0*%
X136250000Y-79870000D03*
D13*
%TO.P,U4,4,4*%
%TO.N,unconnected-(U4-Pad4)*%
X136250000Y-77020000D03*
%TO.P,U4,5,5*%
%TO.N,unconnected-(U4-Pad5)*%
X136250000Y-88720000D03*
%TD*%
D10*
%TO.P,D7,1,K*%
%TO.N,Net-(D7-K)*%
X142850000Y-109600000D03*
D11*
%TO.P,D7,2,A*%
%TO.N,Net-(D7-A)*%
X140310000Y-109600000D03*
%TD*%
D10*
%TO.P,D10,1,K*%
%TO.N,Net-(D10-K)*%
X144440000Y-76260000D03*
D11*
%TO.P,D10,2,A*%
%TO.N,Net-(D10-A)*%
X141900000Y-76260000D03*
%TD*%
D10*
%TO.P,D5,1,K*%
%TO.N,unconnected-(D5-K-Pad1)*%
X116940000Y-109910000D03*
D11*
%TO.P,D5,2,A*%
%TO.N,Net-(D5-A)*%
X119480000Y-109910000D03*
%TD*%
D10*
%TO.P,D6,1,K*%
%TO.N,Net-(D6-K)*%
X128695000Y-120200000D03*
D11*
%TO.P,D6,2,A*%
%TO.N,Net-(D6-A)*%
X131235000Y-120200000D03*
%TD*%
D10*
%TO.P,D1,1,K*%
%TO.N,Net-(D1-K)*%
X128740000Y-87580000D03*
D11*
%TO.P,D1,2,A*%
%TO.N,Net-(D1-A)*%
X131280000Y-87580000D03*
%TD*%
D14*
%TO.P,L1,1,1*%
%TO.N,+3V0*%
X113400000Y-79500000D03*
%TO.P,L1,2,2*%
%TO.N,Net-(S1-A)*%
X113400000Y-80900000D03*
%TD*%
D15*
%TO.P,C3,1*%
%TO.N,+3V0*%
X111160000Y-79510000D03*
%TO.P,C3,2*%
%TO.N,GND*%
X111160000Y-81910000D03*
%TD*%
%TO.P,C4,1*%
%TO.N,+5V*%
X117850000Y-84260000D03*
%TO.P,C4,2*%
%TO.N,GND*%
X117850000Y-86660000D03*
%TD*%
D16*
%TO.P,C1,1*%
%TO.N,Net-(U1-THRESHOLD)*%
X125656200Y-113525000D03*
%TO.P,C1,2*%
%TO.N,GND*%
X124256200Y-113525000D03*
%TD*%
D17*
%TO.P,R2,1*%
%TO.N,Net-(U1-DISCHARGE)*%
X125820000Y-112060000D03*
%TO.P,R2,2*%
%TO.N,+5V*%
X124960000Y-112060000D03*
%TD*%
D18*
%TO.P,BT1,1,+*%
%TO.N,Net-(BT1-+)*%
X144580000Y-99620000D03*
%TO.P,BT1,2,-*%
%TO.N,GND*%
X115280000Y-99620000D03*
%TD*%
D19*
%TO.P,U3,1,CE*%
%TO.N,+5V*%
X119300000Y-80740000D03*
%TO.P,U3,2,VOUT*%
X119300000Y-81690000D03*
%TO.P,U3,3,NC*%
%TO.N,unconnected-(U3-NC-Pad3)*%
X119300000Y-82640000D03*
%TO.P,U3,4,GND*%
%TO.N,GND*%
X117100000Y-82640000D03*
%TO.P,U3,5,LX*%
%TO.N,Net-(S1-A)*%
X117100000Y-80740000D03*
%TD*%
D20*
%TO.P,U1,1,GND*%
%TO.N,GND*%
X132630000Y-110790000D03*
%TO.P,U1,2,~TRIGGER*%
%TO.N,Net-(U1-THRESHOLD)*%
X132630000Y-112060000D03*
%TO.P,U1,3,OUTPUT*%
%TO.N,ASTABLE_OUTPUT*%
X132630000Y-113330000D03*
%TO.P,U1,4,~RESET*%
%TO.N,+5V*%
X132630000Y-114600000D03*
%TO.P,U1,5,CONTROL_VOLTAGE*%
%TO.N,GND*%
X127702400Y-114600000D03*
%TO.P,U1,6,THRESHOLD*%
%TO.N,Net-(U1-THRESHOLD)*%
X127702400Y-113330000D03*
%TO.P,U1,7,DISCHARGE*%
%TO.N,Net-(U1-DISCHARGE)*%
X127702400Y-112060000D03*
%TO.P,U1,8,VDD*%
%TO.N,+5V*%
X127702400Y-110790000D03*
%TD*%
D21*
%TO.P,R1,2*%
%TO.N,ASTABLE_OUTPUT*%
X134766200Y-113335000D03*
%TO.P,R1,1*%
%TO.N,Net-(U1-THRESHOLD)*%
X136266200Y-113335000D03*
%TD*%
D22*
%TO.P,S1,1,K*%
%TO.N,+5V*%
X115260000Y-84270000D03*
%TO.P,S1,2,A*%
%TO.N,Net-(S1-A)*%
X115260000Y-80890000D03*
%TD*%
D23*
%TO.N,GND*%
X112110000Y-98690000D03*
%TO.N,+5V*%
X130810000Y-96380000D03*
%TO.N,ASTABLE_OUTPUT*%
X130860000Y-98900000D03*
%TD*%
D24*
%TO.N,GND*%
X115280000Y-99620000D02*
X113040000Y-99620000D01*
X113040000Y-99620000D02*
X112110000Y-98690000D01*
%TO.N,+5V*%
X117850000Y-84260000D02*
X118690000Y-84260000D01*
X118690000Y-84260000D02*
X130810000Y-96380000D01*
%TO.N,ASTABLE_OUTPUT*%
X132630000Y-113330000D02*
X131918800Y-113330000D01*
X131918800Y-113330000D02*
X130860000Y-112271200D01*
X130860000Y-112271200D02*
X130860000Y-98900000D01*
%TO.N,+5V*%
X127702400Y-110790000D02*
X128770000Y-110790000D01*
X128770000Y-110790000D02*
X129200001Y-111220001D01*
X129200001Y-111220001D02*
X129200001Y-111970001D01*
X129200001Y-111970001D02*
X131830000Y-114600000D01*
X131830000Y-114600000D02*
X132630000Y-114600000D01*
D25*
%TO.N,+3V0*%
X111160000Y-79510000D02*
X124364416Y-79510000D01*
X124364416Y-79510000D02*
X129254416Y-84400000D01*
X129254416Y-84400000D02*
X131720000Y-84400000D01*
X131720000Y-84400000D02*
X136250000Y-79870000D01*
D24*
%TO.N,+5V*%
X115260000Y-84270000D02*
X115260000Y-95560000D01*
X115260000Y-95560000D02*
X124960000Y-105260000D01*
X124960000Y-105260000D02*
X124960000Y-112060000D01*
%TO.N,Net-(BT1-+)*%
X144580000Y-99620000D02*
X144580000Y-91200000D01*
X144580000Y-91200000D02*
X136250000Y-82870000D01*
%TO.N,Net-(U1-THRESHOLD)*%
X127702400Y-113330000D02*
X128413600Y-113330000D01*
X128413600Y-113330000D02*
X130453600Y-115370000D01*
X130453600Y-115370000D02*
X134231200Y-115370000D01*
X134231200Y-115370000D02*
X136266200Y-113335000D01*
%TO.N,+5V*%
X131690000Y-114600000D02*
X132630000Y-114600000D01*
%TO.N,Net-(U1-THRESHOLD)*%
X127702400Y-113330000D02*
X125851200Y-113330000D01*
X125851200Y-113330000D02*
X125656200Y-113525000D01*
X132630000Y-112060000D02*
X134991200Y-112060000D01*
X134991200Y-112060000D02*
X136266200Y-113335000D01*
%TO.N,ASTABLE_OUTPUT*%
X134766200Y-113335000D02*
X132635000Y-113335000D01*
X132635000Y-113335000D02*
X132630000Y-113330000D01*
%TO.N,+5V*%
X124960000Y-112060000D02*
X124960000Y-111425000D01*
X124960000Y-111425000D02*
X125595000Y-110790000D01*
X125595000Y-110790000D02*
X127702400Y-110790000D01*
%TO.N,Net-(U1-DISCHARGE)*%
X125820000Y-112060000D02*
X127702400Y-112060000D01*
D25*
%TO.N,+3V0*%
X113390000Y-79510000D02*
X113400000Y-79500000D01*
X111160000Y-79510000D02*
X113390000Y-79510000D01*
D24*
%TO.N,Net-(S1-A)*%
X115260000Y-80890000D02*
X116950000Y-80890000D01*
X116950000Y-80890000D02*
X117100000Y-80740000D01*
X113400000Y-80900000D02*
X115250000Y-80900000D01*
%TO.N,+5V*%
X119420000Y-84260000D02*
X117850000Y-84260000D01*
X120270000Y-81710000D02*
X120270000Y-83410000D01*
X119300000Y-80740000D02*
X120270000Y-81710000D01*
X115260000Y-84270000D02*
X117840000Y-84270000D01*
X119300000Y-80740000D02*
X119300000Y-81690000D01*
X120270000Y-83410000D02*
X119420000Y-84260000D01*
%TD*%
%TA.AperFunction,Conductor*%
%TO.N,GND*%
G36*
X118060096Y-73005845D02*
G01*
X118280416Y-73038561D01*
X119684659Y-73247087D01*
X119695210Y-73249126D01*
X120938513Y-73545820D01*
X121586678Y-73700494D01*
X121593644Y-73702372D01*
X121629377Y-73713130D01*
X122188979Y-73881609D01*
X122194181Y-73883175D01*
X122207458Y-73888013D01*
X123860334Y-74599468D01*
X123866721Y-74602436D01*
X124117958Y-74728055D01*
X124129069Y-74734346D01*
X125481737Y-75595134D01*
X125489564Y-75600548D01*
X126279240Y-76192805D01*
X126291202Y-76203025D01*
X126767615Y-76665496D01*
X127684382Y-77555435D01*
X127700350Y-77574387D01*
X129562268Y-80295653D01*
X129571630Y-80311831D01*
X129579741Y-80328658D01*
X129579743Y-80328662D01*
X129600121Y-80352326D01*
X129608493Y-80363214D01*
X129626138Y-80389002D01*
X129626145Y-80389009D01*
X129640320Y-80401167D01*
X129653553Y-80414374D01*
X129665737Y-80428523D01*
X129665736Y-80428523D01*
X129691546Y-80446107D01*
X129702452Y-80454457D01*
X129726172Y-80474802D01*
X129743011Y-80482876D01*
X129759215Y-80492211D01*
X129774640Y-80502721D01*
X129774641Y-80502721D01*
X129774645Y-80502724D01*
X129804145Y-80513035D01*
X129816836Y-80518278D01*
X129844999Y-80531784D01*
X129844998Y-80531784D01*
X129858198Y-80534258D01*
X129863344Y-80535223D01*
X129881414Y-80540045D01*
X129899048Y-80546210D01*
X129930211Y-80548534D01*
X129943816Y-80550311D01*
X129974528Y-80556071D01*
X129985874Y-80555201D01*
X129993143Y-80554645D01*
X130011845Y-80554626D01*
X130030467Y-80556016D01*
X130061170Y-80550195D01*
X130074766Y-80548392D01*
X130105926Y-80546006D01*
X130123550Y-80539805D01*
X130141599Y-80534951D01*
X130159946Y-80531474D01*
X130188100Y-80517903D01*
X130200759Y-80512645D01*
X130230243Y-80502275D01*
X130245655Y-80491729D01*
X130261838Y-80482365D01*
X130270471Y-80478204D01*
X130278661Y-80474257D01*
X130302342Y-80453863D01*
X130313210Y-80445507D01*
X130339006Y-80427858D01*
X130351172Y-80413672D01*
X130364368Y-80400450D01*
X130378522Y-80388263D01*
X130396107Y-80362451D01*
X130404454Y-80351549D01*
X130424802Y-80327828D01*
X130432877Y-80310986D01*
X130442204Y-80294792D01*
X130465946Y-80259946D01*
X130472600Y-80251348D01*
X130473648Y-80249775D01*
X130473651Y-80249773D01*
X130508552Y-80197419D01*
X130509098Y-80196609D01*
X130544484Y-80144675D01*
X130544484Y-80144672D01*
X130545542Y-80143121D01*
X130551026Y-80133709D01*
X131979922Y-77990364D01*
X131984170Y-77984387D01*
X132009462Y-77950941D01*
X132194223Y-77706608D01*
X132194607Y-77706102D01*
X132520269Y-77281057D01*
X132531004Y-77268808D01*
X132883282Y-76916530D01*
X134699500Y-76916530D01*
X134699500Y-77123469D01*
X134739868Y-77326412D01*
X134739870Y-77326420D01*
X134806277Y-77486741D01*
X134819059Y-77517598D01*
X134857004Y-77574387D01*
X134934024Y-77689657D01*
X135080342Y-77835975D01*
X135080345Y-77835977D01*
X135252402Y-77950941D01*
X135443580Y-78030130D01*
X135646530Y-78070499D01*
X135646534Y-78070500D01*
X135646535Y-78070500D01*
X136853466Y-78070500D01*
X136853467Y-78070499D01*
X137056420Y-78030130D01*
X137247598Y-77950941D01*
X137419655Y-77835977D01*
X137565977Y-77689655D01*
X137680941Y-77517598D01*
X137760130Y-77326420D01*
X137800500Y-77123465D01*
X137800500Y-76916535D01*
X137760130Y-76713580D01*
X137680941Y-76522402D01*
X137565977Y-76350345D01*
X137565975Y-76350342D01*
X137475631Y-76259998D01*
X140594532Y-76259998D01*
X140594532Y-76260001D01*
X140614364Y-76486686D01*
X140614366Y-76486697D01*
X140673258Y-76706488D01*
X140673261Y-76706497D01*
X140769431Y-76912732D01*
X140769432Y-76912734D01*
X140899954Y-77099141D01*
X141060858Y-77260045D01*
X141068366Y-77265302D01*
X141247266Y-77390568D01*
X141453504Y-77486739D01*
X141453509Y-77486740D01*
X141453511Y-77486741D01*
X141506415Y-77500916D01*
X141673308Y-77545635D01*
X141835230Y-77559801D01*
X141899998Y-77565468D01*
X141900000Y-77565468D01*
X141900002Y-77565468D01*
X141956796Y-77560499D01*
X142126692Y-77545635D01*
X142346496Y-77486739D01*
X142552734Y-77390568D01*
X142739139Y-77260047D01*
X142900047Y-77099139D01*
X142913924Y-77079319D01*
X142968498Y-77035694D01*
X143037996Y-77028499D01*
X143100352Y-77060019D01*
X143135768Y-77120248D01*
X143139500Y-77150438D01*
X143139500Y-77191516D01*
X143149649Y-77255596D01*
X143154354Y-77285304D01*
X143211950Y-77398342D01*
X143211952Y-77398344D01*
X143211954Y-77398347D01*
X143301652Y-77488045D01*
X143301654Y-77488046D01*
X143301658Y-77488050D01*
X143414674Y-77545635D01*
X143414698Y-77545647D01*
X143508475Y-77560499D01*
X143508481Y-77560500D01*
X145371518Y-77560499D01*
X145465304Y-77545646D01*
X145578342Y-77488050D01*
X145668050Y-77398342D01*
X145725646Y-77285304D01*
X145725646Y-77285302D01*
X145725647Y-77285301D01*
X145740499Y-77191524D01*
X145740500Y-77191519D01*
X145740499Y-75328482D01*
X145725646Y-75234696D01*
X145668050Y-75121658D01*
X145668046Y-75121654D01*
X145668045Y-75121652D01*
X145578347Y-75031954D01*
X145578344Y-75031952D01*
X145578342Y-75031950D01*
X145465328Y-74974366D01*
X145465301Y-74974352D01*
X145371524Y-74959500D01*
X143508482Y-74959500D01*
X143427519Y-74972323D01*
X143414696Y-74974354D01*
X143301658Y-75031950D01*
X143301657Y-75031951D01*
X143301652Y-75031954D01*
X143211954Y-75121652D01*
X143211951Y-75121657D01*
X143211950Y-75121658D01*
X143207989Y-75129432D01*
X143154352Y-75234698D01*
X143139500Y-75328475D01*
X143139500Y-75369557D01*
X143119815Y-75436596D01*
X143067011Y-75482351D01*
X142997853Y-75492295D01*
X142934297Y-75463270D01*
X142913925Y-75440681D01*
X142900043Y-75420856D01*
X142739141Y-75259954D01*
X142552734Y-75129432D01*
X142552732Y-75129431D01*
X142346497Y-75033261D01*
X142346488Y-75033258D01*
X142126697Y-74974366D01*
X142126693Y-74974365D01*
X142126692Y-74974365D01*
X142126691Y-74974364D01*
X142126686Y-74974364D01*
X141900002Y-74954532D01*
X141899998Y-74954532D01*
X141673313Y-74974364D01*
X141673302Y-74974366D01*
X141453511Y-75033258D01*
X141453502Y-75033261D01*
X141247267Y-75129431D01*
X141247265Y-75129432D01*
X141060858Y-75259954D01*
X140899954Y-75420858D01*
X140769432Y-75607265D01*
X140769431Y-75607267D01*
X140673261Y-75813502D01*
X140673258Y-75813511D01*
X140614366Y-76033302D01*
X140614364Y-76033313D01*
X140594532Y-76259998D01*
X137475631Y-76259998D01*
X137419657Y-76204024D01*
X137333626Y-76146541D01*
X137247598Y-76089059D01*
X137056420Y-76009870D01*
X137056412Y-76009868D01*
X136853469Y-75969500D01*
X136853465Y-75969500D01*
X135646535Y-75969500D01*
X135646530Y-75969500D01*
X135443587Y-76009868D01*
X135443579Y-76009870D01*
X135252403Y-76089058D01*
X135080342Y-76204024D01*
X134934024Y-76350342D01*
X134819058Y-76522403D01*
X134739870Y-76713579D01*
X134739868Y-76713587D01*
X134699500Y-76916530D01*
X132883282Y-76916530D01*
X133361110Y-76438702D01*
X133373226Y-76428070D01*
X133842837Y-76067254D01*
X133843819Y-76066508D01*
X134075473Y-75892769D01*
X134081154Y-75888755D01*
X135657950Y-74840462D01*
X135664264Y-74836535D01*
X136071221Y-74600236D01*
X136085782Y-74593014D01*
X137712792Y-73915093D01*
X137721754Y-73911760D01*
X138426133Y-73680355D01*
X138436814Y-73677370D01*
X140223833Y-73263177D01*
X140233470Y-73261344D01*
X141944063Y-73005859D01*
X141962380Y-73004500D01*
X144311882Y-73004500D01*
X144330096Y-73005845D01*
X144772565Y-73071550D01*
X145951298Y-73246588D01*
X145963165Y-73248947D01*
X147150143Y-73545820D01*
X147772734Y-73701535D01*
X147781859Y-73704193D01*
X148315839Y-73882186D01*
X148323872Y-73885176D01*
X148392006Y-73913253D01*
X149623921Y-74420910D01*
X149634313Y-74425768D01*
X150678756Y-74974364D01*
X151044134Y-75166280D01*
X151055574Y-75173096D01*
X151531189Y-75492295D01*
X152560746Y-76183260D01*
X152566583Y-76187429D01*
X153526577Y-76915887D01*
X153567501Y-76946941D01*
X153580226Y-76958040D01*
X154928792Y-78306605D01*
X154938922Y-78318069D01*
X155588454Y-79151634D01*
X155592228Y-79156742D01*
X156088126Y-79865170D01*
X156092988Y-79872679D01*
X157168228Y-81672296D01*
X157175595Y-81686679D01*
X157558258Y-82571584D01*
X157851436Y-83249559D01*
X157858164Y-83265116D01*
X157862275Y-83275998D01*
X158272771Y-84538869D01*
X158279448Y-84559411D01*
X158281743Y-84567367D01*
X158472846Y-85323723D01*
X158474954Y-85333817D01*
X158775116Y-87144204D01*
X158776277Y-87153259D01*
X158838822Y-87841246D01*
X158839314Y-87850412D01*
X158878852Y-90229266D01*
X158877962Y-90246301D01*
X158777026Y-91076031D01*
X158776307Y-91081069D01*
X158420613Y-93256135D01*
X158418239Y-93267364D01*
X157965429Y-95006661D01*
X157962870Y-95015215D01*
X157298600Y-96975579D01*
X157296088Y-96982338D01*
X156837287Y-98115006D01*
X156833859Y-98122706D01*
X155664297Y-100526368D01*
X155661192Y-100532334D01*
X155308004Y-101168073D01*
X155304417Y-101174119D01*
X153549034Y-103950494D01*
X153544074Y-103957755D01*
X152565555Y-105286572D01*
X152561942Y-105291241D01*
X150618704Y-107682799D01*
X150615654Y-107686410D01*
X149323255Y-109158560D01*
X149317750Y-109164434D01*
X146090117Y-112392067D01*
X146084377Y-112397454D01*
X145350618Y-113043481D01*
X145155539Y-113215235D01*
X144171733Y-114081026D01*
X143356077Y-114798839D01*
X143351872Y-114802377D01*
X139923368Y-117559927D01*
X139919447Y-117562954D01*
X137987585Y-118993528D01*
X137984059Y-118996045D01*
X134395448Y-121464159D01*
X134393963Y-121465164D01*
X134232323Y-121572924D01*
X134230186Y-121574317D01*
X130182553Y-124154067D01*
X130115907Y-124173500D01*
X129894500Y-124173500D01*
X129850005Y-124165242D01*
X129832368Y-124158462D01*
X129821410Y-124153629D01*
X129817309Y-124151578D01*
X129806479Y-124145464D01*
X125625288Y-121499956D01*
X125622805Y-121498343D01*
X125410838Y-121357032D01*
X125409332Y-121356012D01*
X122375416Y-119268475D01*
X127394500Y-119268475D01*
X127394500Y-121131517D01*
X127405292Y-121199657D01*
X127409354Y-121225304D01*
X127466950Y-121338342D01*
X127466952Y-121338344D01*
X127466954Y-121338347D01*
X127556652Y-121428045D01*
X127556654Y-121428046D01*
X127556658Y-121428050D01*
X127669674Y-121485635D01*
X127669698Y-121485647D01*
X127763475Y-121500499D01*
X127763481Y-121500500D01*
X129626518Y-121500499D01*
X129720304Y-121485646D01*
X129833342Y-121428050D01*
X129923050Y-121338342D01*
X129980646Y-121225304D01*
X129980646Y-121225302D01*
X129980647Y-121225301D01*
X129995499Y-121131525D01*
X129995500Y-121131519D01*
X129995499Y-121090441D01*
X130015182Y-121023405D01*
X130067985Y-120977649D01*
X130137143Y-120967704D01*
X130200700Y-120996727D01*
X130221073Y-121019317D01*
X130234954Y-121039141D01*
X130395858Y-121200045D01*
X130395861Y-121200047D01*
X130582266Y-121330568D01*
X130788504Y-121426739D01*
X130788509Y-121426740D01*
X130788511Y-121426741D01*
X130841415Y-121440916D01*
X131008308Y-121485635D01*
X131153561Y-121498343D01*
X131234998Y-121505468D01*
X131235000Y-121505468D01*
X131235002Y-121505468D01*
X131307009Y-121499168D01*
X131461692Y-121485635D01*
X131681496Y-121426739D01*
X131887734Y-121330568D01*
X132074139Y-121200047D01*
X132235047Y-121039139D01*
X132365568Y-120852734D01*
X132461739Y-120646496D01*
X132520635Y-120426692D01*
X132540468Y-120200000D01*
X132520635Y-119973308D01*
X132461739Y-119753504D01*
X132365568Y-119547266D01*
X132235047Y-119360861D01*
X132235045Y-119360858D01*
X132074141Y-119199954D01*
X131887734Y-119069432D01*
X131887732Y-119069431D01*
X131681497Y-118973261D01*
X131681488Y-118973258D01*
X131461697Y-118914366D01*
X131461693Y-118914365D01*
X131461692Y-118914365D01*
X131461691Y-118914364D01*
X131461686Y-118914364D01*
X131235002Y-118894532D01*
X131234998Y-118894532D01*
X131008313Y-118914364D01*
X131008302Y-118914366D01*
X130788511Y-118973258D01*
X130788502Y-118973261D01*
X130582267Y-119069431D01*
X130582265Y-119069432D01*
X130395858Y-119199954D01*
X130234954Y-119360858D01*
X130221074Y-119380682D01*
X130166498Y-119424307D01*
X130096999Y-119431501D01*
X130034644Y-119399979D01*
X129999230Y-119339749D01*
X129995499Y-119309559D01*
X129995499Y-119268482D01*
X129995498Y-119268475D01*
X129980646Y-119174696D01*
X129923050Y-119061658D01*
X129923046Y-119061654D01*
X129923045Y-119061652D01*
X129833347Y-118971954D01*
X129833344Y-118971952D01*
X129833342Y-118971950D01*
X129734759Y-118921719D01*
X129720301Y-118914352D01*
X129626524Y-118899500D01*
X127763482Y-118899500D01*
X127682519Y-118912323D01*
X127669696Y-118914354D01*
X127556658Y-118971950D01*
X127556657Y-118971951D01*
X127556652Y-118971954D01*
X127466954Y-119061652D01*
X127466951Y-119061657D01*
X127466950Y-119061658D01*
X127462989Y-119069432D01*
X127409352Y-119174698D01*
X127394500Y-119268475D01*
X122375416Y-119268475D01*
X121873545Y-118923154D01*
X121869434Y-118920200D01*
X119568870Y-117194778D01*
X119565003Y-117191756D01*
X116357660Y-114581717D01*
X116353726Y-114578377D01*
X114443344Y-112886885D01*
X114442456Y-112886092D01*
X113329197Y-111881156D01*
X113324605Y-111876792D01*
X111202345Y-109754531D01*
X111197554Y-109749464D01*
X110508756Y-108978475D01*
X115639500Y-108978475D01*
X115639500Y-110841517D01*
X115646893Y-110888194D01*
X115654354Y-110935304D01*
X115711950Y-111048342D01*
X115711952Y-111048344D01*
X115711954Y-111048347D01*
X115801652Y-111138045D01*
X115801654Y-111138046D01*
X115801658Y-111138050D01*
X115914674Y-111195635D01*
X115914698Y-111195647D01*
X116008475Y-111210499D01*
X116008481Y-111210500D01*
X117871518Y-111210499D01*
X117965304Y-111195646D01*
X118078342Y-111138050D01*
X118168050Y-111048342D01*
X118225646Y-110935304D01*
X118225646Y-110935302D01*
X118225647Y-110935301D01*
X118240499Y-110841525D01*
X118240500Y-110841519D01*
X118240499Y-110800441D01*
X118260182Y-110733405D01*
X118312985Y-110687649D01*
X118382143Y-110677704D01*
X118445700Y-110706727D01*
X118466073Y-110729317D01*
X118479954Y-110749141D01*
X118640858Y-110910045D01*
X118640861Y-110910047D01*
X118827266Y-111040568D01*
X119033504Y-111136739D01*
X119033509Y-111136740D01*
X119033511Y-111136741D01*
X119086415Y-111150916D01*
X119253308Y-111195635D01*
X119415230Y-111209801D01*
X119479998Y-111215468D01*
X119480000Y-111215468D01*
X119480002Y-111215468D01*
X119536796Y-111210499D01*
X119706692Y-111195635D01*
X119926496Y-111136739D01*
X120132734Y-111040568D01*
X120319139Y-110910047D01*
X120480047Y-110749139D01*
X120610568Y-110562734D01*
X120706739Y-110356496D01*
X120765635Y-110136692D01*
X120785468Y-109910000D01*
X120783168Y-109883716D01*
X120765635Y-109683313D01*
X120765635Y-109683308D01*
X120706739Y-109463504D01*
X120610568Y-109257266D01*
X120480047Y-109070861D01*
X120480045Y-109070858D01*
X120319141Y-108909954D01*
X120132734Y-108779432D01*
X120132732Y-108779431D01*
X119926497Y-108683261D01*
X119926488Y-108683258D01*
X119706697Y-108624366D01*
X119706693Y-108624365D01*
X119706692Y-108624365D01*
X119706691Y-108624364D01*
X119706686Y-108624364D01*
X119480002Y-108604532D01*
X119479998Y-108604532D01*
X119253313Y-108624364D01*
X119253302Y-108624366D01*
X119033511Y-108683258D01*
X119033502Y-108683261D01*
X118827267Y-108779431D01*
X118827265Y-108779432D01*
X118640858Y-108909954D01*
X118479954Y-109070858D01*
X118466074Y-109090682D01*
X118411498Y-109134307D01*
X118341999Y-109141501D01*
X118279644Y-109109979D01*
X118244230Y-109049749D01*
X118240499Y-109019559D01*
X118240499Y-108978482D01*
X118235555Y-108947265D01*
X118225646Y-108884696D01*
X118168050Y-108771658D01*
X118168046Y-108771654D01*
X118168045Y-108771652D01*
X118078347Y-108681954D01*
X118078344Y-108681952D01*
X118078342Y-108681950D01*
X117965328Y-108624366D01*
X117965301Y-108624352D01*
X117871524Y-108609500D01*
X116008482Y-108609500D01*
X115927519Y-108622323D01*
X115914696Y-108624354D01*
X115801658Y-108681950D01*
X115801657Y-108681951D01*
X115801652Y-108681954D01*
X115711954Y-108771652D01*
X115711951Y-108771657D01*
X115711950Y-108771658D01*
X115707989Y-108779432D01*
X115654352Y-108884698D01*
X115639500Y-108978475D01*
X110508756Y-108978475D01*
X109644767Y-108011390D01*
X109641705Y-108007828D01*
X107941130Y-105952699D01*
X107516369Y-105439379D01*
X107511590Y-105433220D01*
X107335599Y-105191006D01*
X106384929Y-103882609D01*
X106381012Y-103876887D01*
X105255642Y-102130473D01*
X104886963Y-101558335D01*
X104883540Y-101552698D01*
X104341988Y-100604431D01*
X104338144Y-100597148D01*
X104220671Y-100355468D01*
X103212318Y-98280955D01*
X103209696Y-98275187D01*
X103204258Y-98262368D01*
X103134727Y-98098475D01*
X105819500Y-98098475D01*
X105819500Y-99961517D01*
X105822669Y-99981524D01*
X105834354Y-100055304D01*
X105891950Y-100168342D01*
X105891952Y-100168344D01*
X105891954Y-100168347D01*
X105981652Y-100258045D01*
X105981654Y-100258046D01*
X105981658Y-100258050D01*
X106094674Y-100315635D01*
X106094698Y-100315647D01*
X106188475Y-100330499D01*
X106188481Y-100330500D01*
X108051518Y-100330499D01*
X108145304Y-100315646D01*
X108258342Y-100258050D01*
X108348050Y-100168342D01*
X108405646Y-100055304D01*
X108405646Y-100055302D01*
X108405647Y-100055301D01*
X108420499Y-99961525D01*
X108420500Y-99961519D01*
X108420499Y-99920441D01*
X108440182Y-99853405D01*
X108492985Y-99807649D01*
X108562143Y-99797704D01*
X108625700Y-99826727D01*
X108646073Y-99849317D01*
X108659954Y-99869141D01*
X108820858Y-100030045D01*
X108820861Y-100030047D01*
X109007266Y-100160568D01*
X109213504Y-100256739D01*
X109213509Y-100256740D01*
X109213511Y-100256741D01*
X109266415Y-100270916D01*
X109433308Y-100315635D01*
X109595230Y-100329801D01*
X109659998Y-100335468D01*
X109660000Y-100335468D01*
X109660002Y-100335468D01*
X109716796Y-100330499D01*
X109886692Y-100315635D01*
X110106496Y-100256739D01*
X110312734Y-100160568D01*
X110499139Y-100030047D01*
X110660047Y-99869139D01*
X110790568Y-99682734D01*
X110886739Y-99476496D01*
X110945635Y-99256692D01*
X110965468Y-99030000D01*
X110945635Y-98803308D01*
X110886739Y-98583504D01*
X110790568Y-98377266D01*
X110660047Y-98190861D01*
X110660045Y-98190858D01*
X110499141Y-98029954D01*
X110312734Y-97899432D01*
X110312732Y-97899431D01*
X110106497Y-97803261D01*
X110106488Y-97803258D01*
X109886697Y-97744366D01*
X109886693Y-97744365D01*
X109886692Y-97744365D01*
X109886691Y-97744364D01*
X109886686Y-97744364D01*
X109660002Y-97724532D01*
X109659998Y-97724532D01*
X109433313Y-97744364D01*
X109433302Y-97744366D01*
X109213511Y-97803258D01*
X109213502Y-97803261D01*
X109007267Y-97899431D01*
X109007265Y-97899432D01*
X108820858Y-98029954D01*
X108659954Y-98190858D01*
X108646074Y-98210682D01*
X108591498Y-98254307D01*
X108521999Y-98261501D01*
X108459644Y-98229979D01*
X108424230Y-98169749D01*
X108420499Y-98139559D01*
X108420499Y-98098482D01*
X108420498Y-98098475D01*
X108405646Y-98004696D01*
X108348050Y-97891658D01*
X108348046Y-97891654D01*
X108348045Y-97891652D01*
X108258347Y-97801954D01*
X108258344Y-97801952D01*
X108258342Y-97801950D01*
X108181517Y-97762805D01*
X108145301Y-97744352D01*
X108051524Y-97729500D01*
X106188482Y-97729500D01*
X106107519Y-97742323D01*
X106094696Y-97744354D01*
X105981658Y-97801950D01*
X105981657Y-97801951D01*
X105981652Y-97801954D01*
X105891954Y-97891652D01*
X105891951Y-97891657D01*
X105891950Y-97891658D01*
X105872751Y-97929337D01*
X105834352Y-98004698D01*
X105819500Y-98098475D01*
X103134727Y-98098475D01*
X102809416Y-97331672D01*
X102806542Y-97324239D01*
X102019982Y-95077166D01*
X102016724Y-95066282D01*
X102003957Y-95015215D01*
X101585525Y-93341490D01*
X101583565Y-93332123D01*
X101226711Y-91224483D01*
X101226055Y-91220127D01*
X101125573Y-90461120D01*
X101124500Y-90444846D01*
X101124500Y-87726202D01*
X101126221Y-87705615D01*
X101147369Y-87580000D01*
X101583400Y-84990079D01*
X101587004Y-84974724D01*
X101668296Y-84706515D01*
X101668410Y-84706144D01*
X102117089Y-83262701D01*
X102155785Y-83204527D01*
X102219791Y-83176508D01*
X102288784Y-83187541D01*
X102340860Y-83234123D01*
X102359500Y-83299509D01*
X102359500Y-85071517D01*
X102369603Y-85135304D01*
X102374354Y-85165304D01*
X102431950Y-85278342D01*
X102431952Y-85278344D01*
X102431954Y-85278347D01*
X102521652Y-85368045D01*
X102521654Y-85368046D01*
X102521658Y-85368050D01*
X102634674Y-85425635D01*
X102634698Y-85425647D01*
X102728475Y-85440499D01*
X102728481Y-85440500D01*
X104591518Y-85440499D01*
X104685304Y-85425646D01*
X104798342Y-85368050D01*
X104888050Y-85278342D01*
X104945646Y-85165304D01*
X104945646Y-85165302D01*
X104945647Y-85165301D01*
X104959932Y-85075103D01*
X104960500Y-85071519D01*
X104960499Y-85030441D01*
X104980182Y-84963405D01*
X105032985Y-84917649D01*
X105102143Y-84907704D01*
X105165700Y-84936727D01*
X105186073Y-84959317D01*
X105199954Y-84979141D01*
X105360858Y-85140045D01*
X105360861Y-85140047D01*
X105547266Y-85270568D01*
X105753504Y-85366739D01*
X105753509Y-85366740D01*
X105753511Y-85366741D01*
X105787675Y-85375895D01*
X105973308Y-85425635D01*
X106135230Y-85439801D01*
X106199998Y-85445468D01*
X106200000Y-85445468D01*
X106200002Y-85445468D01*
X106256796Y-85440499D01*
X106426692Y-85425635D01*
X106646496Y-85366739D01*
X106852734Y-85270568D01*
X107039139Y-85140047D01*
X107200047Y-84979139D01*
X107330568Y-84792734D01*
X107426739Y-84586496D01*
X107485635Y-84366692D01*
X107505468Y-84140000D01*
X107502072Y-84101189D01*
X107485635Y-83913313D01*
X107485635Y-83913308D01*
X107426739Y-83693504D01*
X107330568Y-83487266D01*
X107200047Y-83300861D01*
X107200045Y-83300858D01*
X107039141Y-83139954D01*
X106852734Y-83009432D01*
X106852732Y-83009431D01*
X106646497Y-82913261D01*
X106646488Y-82913258D01*
X106426697Y-82854366D01*
X106426693Y-82854365D01*
X106426692Y-82854365D01*
X106426691Y-82854364D01*
X106426686Y-82854364D01*
X106200002Y-82834532D01*
X106199998Y-82834532D01*
X105973313Y-82854364D01*
X105973302Y-82854366D01*
X105753511Y-82913258D01*
X105753502Y-82913261D01*
X105547267Y-83009431D01*
X105547265Y-83009432D01*
X105360858Y-83139954D01*
X105199954Y-83300858D01*
X105186074Y-83320682D01*
X105131498Y-83364307D01*
X105061999Y-83371501D01*
X104999644Y-83339979D01*
X104964230Y-83279749D01*
X104960499Y-83249559D01*
X104960499Y-83208482D01*
X104959873Y-83204527D01*
X104945646Y-83114696D01*
X104888050Y-83001658D01*
X104888046Y-83001654D01*
X104888045Y-83001652D01*
X104798347Y-82911954D01*
X104798344Y-82911952D01*
X104798342Y-82911950D01*
X104696807Y-82860215D01*
X104685301Y-82854352D01*
X104591524Y-82839500D01*
X102728482Y-82839500D01*
X102647519Y-82852323D01*
X102634696Y-82854354D01*
X102521658Y-82911950D01*
X102521657Y-82911951D01*
X102521655Y-82911952D01*
X102494553Y-82939054D01*
X102433229Y-82972538D01*
X102363538Y-82967552D01*
X102307605Y-82925680D01*
X102283189Y-82860215D01*
X102293875Y-82800308D01*
X102857542Y-81553045D01*
X102863418Y-81541657D01*
X103649974Y-80193682D01*
X103655968Y-80184389D01*
X104002466Y-79696579D01*
X104005153Y-79692944D01*
X104039289Y-79648464D01*
X104745326Y-78728475D01*
X110079500Y-78728475D01*
X110079500Y-80291517D01*
X110089006Y-80351538D01*
X110094354Y-80385304D01*
X110151950Y-80498342D01*
X110151952Y-80498344D01*
X110151954Y-80498347D01*
X110241652Y-80588045D01*
X110241654Y-80588046D01*
X110241658Y-80588050D01*
X110354694Y-80645645D01*
X110354698Y-80645647D01*
X110448475Y-80660499D01*
X110448481Y-80660500D01*
X111871518Y-80660499D01*
X111965304Y-80645646D01*
X112078342Y-80588050D01*
X112168050Y-80498342D01*
X112178311Y-80478204D01*
X112226286Y-80427409D01*
X112288795Y-80410500D01*
X112445500Y-80410500D01*
X112512539Y-80430185D01*
X112558294Y-80482989D01*
X112569500Y-80534500D01*
X112569500Y-81331517D01*
X112576892Y-81378189D01*
X112584354Y-81425304D01*
X112641950Y-81538342D01*
X112641952Y-81538344D01*
X112641954Y-81538347D01*
X112731652Y-81628045D01*
X112731654Y-81628046D01*
X112731658Y-81628050D01*
X112841950Y-81684247D01*
X112844698Y-81685647D01*
X112938475Y-81700499D01*
X112938481Y-81700500D01*
X113861518Y-81700499D01*
X113955304Y-81685646D01*
X114068342Y-81628050D01*
X114068347Y-81628045D01*
X114073671Y-81624179D01*
X114139478Y-81600702D01*
X114146552Y-81600500D01*
X114302746Y-81600500D01*
X114369785Y-81620185D01*
X114390422Y-81636814D01*
X114446658Y-81693050D01*
X114559694Y-81750645D01*
X114559698Y-81750647D01*
X114653475Y-81765499D01*
X114653481Y-81765500D01*
X115866518Y-81765499D01*
X115960304Y-81750646D01*
X116073342Y-81693050D01*
X116139574Y-81626817D01*
X116200895Y-81593334D01*
X116227254Y-81590500D01*
X117018996Y-81590500D01*
X117110040Y-81572389D01*
X117154328Y-81563580D01*
X117281811Y-81510775D01*
X117355711Y-81461396D01*
X117422387Y-81440519D01*
X117424601Y-81440499D01*
X117631517Y-81440499D01*
X117631518Y-81440499D01*
X117725304Y-81425646D01*
X117838342Y-81368050D01*
X117928050Y-81278342D01*
X117985646Y-81165304D01*
X117985646Y-81165302D01*
X117985647Y-81165301D01*
X118000499Y-81071524D01*
X118000500Y-81071519D01*
X118000499Y-80534499D01*
X118020183Y-80467461D01*
X118072987Y-80421706D01*
X118124499Y-80410500D01*
X118275500Y-80410500D01*
X118342539Y-80430185D01*
X118388294Y-80482989D01*
X118399500Y-80534500D01*
X118399500Y-81071517D01*
X118414354Y-81165306D01*
X118417371Y-81174590D01*
X118414172Y-81175629D01*
X118423885Y-81227397D01*
X118415807Y-81254904D01*
X118417370Y-81255412D01*
X118414353Y-81264697D01*
X118399500Y-81358475D01*
X118399500Y-82021517D01*
X118414354Y-82115306D01*
X118417371Y-82124590D01*
X118414172Y-82125629D01*
X118423885Y-82177397D01*
X118415807Y-82204904D01*
X118417370Y-82205412D01*
X118414353Y-82214697D01*
X118399500Y-82308475D01*
X118399500Y-82971521D01*
X118399836Y-82975784D01*
X118385465Y-83044160D01*
X118336408Y-83093912D01*
X118276217Y-83109500D01*
X117138482Y-83109500D01*
X117057519Y-83122323D01*
X117044696Y-83124354D01*
X116931658Y-83181950D01*
X116931657Y-83181951D01*
X116931652Y-83181954D01*
X116841954Y-83271652D01*
X116841951Y-83271657D01*
X116841950Y-83271658D01*
X116794743Y-83364307D01*
X116784353Y-83384698D01*
X116771650Y-83464899D01*
X116741720Y-83528033D01*
X116682409Y-83564964D01*
X116649177Y-83569500D01*
X116227254Y-83569500D01*
X116160215Y-83549815D01*
X116139577Y-83533185D01*
X116073342Y-83466950D01*
X115994958Y-83427011D01*
X115960301Y-83409352D01*
X115866524Y-83394500D01*
X114653482Y-83394500D01*
X114572519Y-83407323D01*
X114559696Y-83409354D01*
X114446658Y-83466950D01*
X114446657Y-83466951D01*
X114446652Y-83466954D01*
X114356954Y-83556652D01*
X114356951Y-83556657D01*
X114299352Y-83669698D01*
X114284500Y-83763475D01*
X114284500Y-84776517D01*
X114291037Y-84817789D01*
X114299354Y-84870304D01*
X114356950Y-84983342D01*
X114356952Y-84983344D01*
X114356954Y-84983347D01*
X114446652Y-85073045D01*
X114446654Y-85073046D01*
X114446658Y-85073050D01*
X114491796Y-85096049D01*
X114542591Y-85144023D01*
X114559500Y-85206533D01*
X114559500Y-95491006D01*
X114559500Y-95628994D01*
X114559500Y-95628996D01*
X114559499Y-95628996D01*
X114586418Y-95764322D01*
X114586421Y-95764332D01*
X114639222Y-95891807D01*
X114715887Y-96006545D01*
X114715888Y-96006546D01*
X124223181Y-105513838D01*
X124256666Y-105575161D01*
X124259500Y-105601519D01*
X124259500Y-112128991D01*
X124272118Y-112192430D01*
X124274500Y-112216619D01*
X124274500Y-112361517D01*
X124280192Y-112397454D01*
X124289354Y-112455304D01*
X124346950Y-112568342D01*
X124346952Y-112568344D01*
X124346954Y-112568347D01*
X124436652Y-112658045D01*
X124436654Y-112658046D01*
X124436658Y-112658050D01*
X124549696Y-112715646D01*
X124549698Y-112715647D01*
X124643475Y-112730499D01*
X124643481Y-112730500D01*
X124727968Y-112730499D01*
X124752158Y-112732881D01*
X124755671Y-112733579D01*
X124755672Y-112733580D01*
X124799303Y-112742258D01*
X124861213Y-112774643D01*
X124895788Y-112835358D01*
X124892049Y-112905128D01*
X124885598Y-112920168D01*
X124870554Y-112949694D01*
X124870552Y-112949698D01*
X124855700Y-113043475D01*
X124855700Y-114006517D01*
X124865251Y-114066819D01*
X124870554Y-114100304D01*
X124928150Y-114213342D01*
X124928152Y-114213344D01*
X124928154Y-114213347D01*
X125017852Y-114303045D01*
X125017854Y-114303046D01*
X125017858Y-114303050D01*
X125130894Y-114360645D01*
X125130898Y-114360647D01*
X125224675Y-114375499D01*
X125224681Y-114375500D01*
X126087718Y-114375499D01*
X126181504Y-114360646D01*
X126294542Y-114303050D01*
X126384250Y-114213342D01*
X126441846Y-114100304D01*
X126441846Y-114100302D01*
X126442915Y-114098205D01*
X126490890Y-114047409D01*
X126553400Y-114030500D01*
X127633407Y-114030500D01*
X128072081Y-114030500D01*
X128139120Y-114050185D01*
X128159762Y-114066819D01*
X130007053Y-115914111D01*
X130007054Y-115914112D01*
X130121792Y-115990777D01*
X130249267Y-116043578D01*
X130249272Y-116043580D01*
X130249276Y-116043580D01*
X130249277Y-116043581D01*
X130384603Y-116070500D01*
X130384606Y-116070500D01*
X134300196Y-116070500D01*
X134391240Y-116052389D01*
X134435528Y-116043580D01*
X134499269Y-116017177D01*
X134563007Y-115990777D01*
X134563008Y-115990776D01*
X134563011Y-115990775D01*
X134677743Y-115914114D01*
X136390038Y-114201817D01*
X136451361Y-114168333D01*
X136477719Y-114165499D01*
X136702717Y-114165499D01*
X136702718Y-114165499D01*
X136796504Y-114150646D01*
X136909542Y-114093050D01*
X136999250Y-114003342D01*
X137056846Y-113890304D01*
X137056846Y-113890302D01*
X137056847Y-113890301D01*
X137071699Y-113796524D01*
X137071700Y-113796519D01*
X137071699Y-112873482D01*
X137056846Y-112779696D01*
X136999250Y-112666658D01*
X136999246Y-112666654D01*
X136999245Y-112666652D01*
X136909547Y-112576954D01*
X136909544Y-112576952D01*
X136909542Y-112576950D01*
X136832717Y-112537805D01*
X136796501Y-112519352D01*
X136702724Y-112504500D01*
X136702719Y-112504500D01*
X136477719Y-112504500D01*
X136410680Y-112484815D01*
X136390038Y-112468181D01*
X135437746Y-111515888D01*
X135437745Y-111515887D01*
X135323007Y-111439222D01*
X135195532Y-111386421D01*
X135195522Y-111386418D01*
X135060196Y-111359500D01*
X135060194Y-111359500D01*
X135060193Y-111359500D01*
X132561007Y-111359500D01*
X132523580Y-111366944D01*
X132469415Y-111377718D01*
X132445225Y-111380100D01*
X131684500Y-111380100D01*
X131617461Y-111360415D01*
X131571706Y-111307611D01*
X131560500Y-111256100D01*
X131560500Y-109599998D01*
X139004532Y-109599998D01*
X139004532Y-109600001D01*
X139024364Y-109826686D01*
X139024366Y-109826697D01*
X139083258Y-110046488D01*
X139083261Y-110046497D01*
X139179431Y-110252732D01*
X139179432Y-110252734D01*
X139309954Y-110439141D01*
X139470858Y-110600045D01*
X139470861Y-110600047D01*
X139657266Y-110730568D01*
X139863504Y-110826739D01*
X139863509Y-110826740D01*
X139863511Y-110826741D01*
X139916415Y-110840916D01*
X140083308Y-110885635D01*
X140245230Y-110899801D01*
X140309998Y-110905468D01*
X140310000Y-110905468D01*
X140310002Y-110905468D01*
X140366796Y-110900499D01*
X140536692Y-110885635D01*
X140756496Y-110826739D01*
X140962734Y-110730568D01*
X141149139Y-110600047D01*
X141310047Y-110439139D01*
X141323924Y-110419319D01*
X141378498Y-110375694D01*
X141447996Y-110368499D01*
X141510352Y-110400019D01*
X141545768Y-110460248D01*
X141549500Y-110490438D01*
X141549500Y-110531516D01*
X141559649Y-110595596D01*
X141564354Y-110625304D01*
X141621950Y-110738342D01*
X141621952Y-110738344D01*
X141621954Y-110738347D01*
X141711652Y-110828045D01*
X141711654Y-110828046D01*
X141711658Y-110828050D01*
X141824674Y-110885635D01*
X141824698Y-110885647D01*
X141918475Y-110900499D01*
X141918481Y-110900500D01*
X143781518Y-110900499D01*
X143875304Y-110885646D01*
X143988342Y-110828050D01*
X144078050Y-110738342D01*
X144135646Y-110625304D01*
X144135646Y-110625302D01*
X144135647Y-110625301D01*
X144150499Y-110531524D01*
X144150500Y-110531519D01*
X144150499Y-108668482D01*
X144135646Y-108574696D01*
X144078050Y-108461658D01*
X144078046Y-108461654D01*
X144078045Y-108461652D01*
X143988347Y-108371954D01*
X143988344Y-108371952D01*
X143988342Y-108371950D01*
X143875328Y-108314366D01*
X143875301Y-108314352D01*
X143781524Y-108299500D01*
X141918482Y-108299500D01*
X141837519Y-108312323D01*
X141824696Y-108314354D01*
X141711658Y-108371950D01*
X141711657Y-108371951D01*
X141711652Y-108371954D01*
X141621954Y-108461652D01*
X141621951Y-108461657D01*
X141621950Y-108461658D01*
X141617989Y-108469432D01*
X141564352Y-108574698D01*
X141549500Y-108668475D01*
X141549500Y-108709557D01*
X141529815Y-108776596D01*
X141477011Y-108822351D01*
X141407853Y-108832295D01*
X141344297Y-108803270D01*
X141323925Y-108780681D01*
X141310043Y-108760856D01*
X141149141Y-108599954D01*
X140962734Y-108469432D01*
X140962732Y-108469431D01*
X140756497Y-108373261D01*
X140756488Y-108373258D01*
X140536697Y-108314366D01*
X140536693Y-108314365D01*
X140536692Y-108314365D01*
X140536691Y-108314364D01*
X140536686Y-108314364D01*
X140310002Y-108294532D01*
X140309998Y-108294532D01*
X140083313Y-108314364D01*
X140083302Y-108314366D01*
X139863511Y-108373258D01*
X139863502Y-108373261D01*
X139657267Y-108469431D01*
X139657265Y-108469432D01*
X139470858Y-108599954D01*
X139309954Y-108760858D01*
X139179432Y-108947265D01*
X139179431Y-108947267D01*
X139083261Y-109153502D01*
X139083258Y-109153511D01*
X139024366Y-109373302D01*
X139024364Y-109373313D01*
X139004532Y-109599998D01*
X131560500Y-109599998D01*
X131560500Y-98949873D01*
X131561404Y-98934926D01*
X131565645Y-98900000D01*
X131561404Y-98865071D01*
X131560500Y-98850125D01*
X131560500Y-98831006D01*
X131553116Y-98793889D01*
X131551637Y-98784640D01*
X131545140Y-98731129D01*
X131539323Y-98715792D01*
X131533644Y-98695997D01*
X131533580Y-98695672D01*
X131511942Y-98643436D01*
X131510576Y-98639991D01*
X131484818Y-98572070D01*
X131440015Y-98507162D01*
X131438963Y-98505612D01*
X131404117Y-98453462D01*
X131400249Y-98448748D01*
X131400628Y-98448436D01*
X131393940Y-98440412D01*
X131388183Y-98432071D01*
X131343145Y-98392171D01*
X131337707Y-98387051D01*
X131306545Y-98355889D01*
X131306542Y-98355886D01*
X131306377Y-98355775D01*
X131295840Y-98348734D01*
X131282513Y-98338454D01*
X131260855Y-98319268D01*
X131260850Y-98319265D01*
X131224162Y-98300009D01*
X131212903Y-98293318D01*
X131191811Y-98279225D01*
X131162599Y-98267124D01*
X131152445Y-98262368D01*
X131110225Y-98240210D01*
X131110226Y-98240210D01*
X131088206Y-98234783D01*
X131070434Y-98228949D01*
X131064328Y-98226420D01*
X131064324Y-98226419D01*
X131064322Y-98226418D01*
X131014993Y-98216606D01*
X131009511Y-98215386D01*
X130945057Y-98199500D01*
X130945056Y-98199500D01*
X130774944Y-98199500D01*
X130774940Y-98199500D01*
X130710486Y-98215386D01*
X130705006Y-98216606D01*
X130655673Y-98226419D01*
X130649566Y-98228949D01*
X130631797Y-98234781D01*
X130609776Y-98240209D01*
X130567561Y-98262365D01*
X130557393Y-98267127D01*
X130528187Y-98279225D01*
X130507091Y-98293320D01*
X130495837Y-98300008D01*
X130459147Y-98319266D01*
X130459144Y-98319268D01*
X130437486Y-98338454D01*
X130424166Y-98348729D01*
X130413464Y-98355880D01*
X130413458Y-98355886D01*
X130382287Y-98387055D01*
X130376838Y-98392183D01*
X130331820Y-98432067D01*
X130326053Y-98440421D01*
X130319391Y-98448447D01*
X130319753Y-98448744D01*
X130315887Y-98453455D01*
X130281023Y-98505631D01*
X130279973Y-98507177D01*
X130235185Y-98572063D01*
X130235181Y-98572071D01*
X130209436Y-98639953D01*
X130208058Y-98643428D01*
X130186419Y-98695673D01*
X130186418Y-98695678D01*
X130186353Y-98696006D01*
X130180680Y-98715781D01*
X130174859Y-98731129D01*
X130168362Y-98784640D01*
X130166884Y-98793881D01*
X130159500Y-98831006D01*
X130159500Y-98850125D01*
X130158596Y-98865071D01*
X130154355Y-98899999D01*
X130158596Y-98934926D01*
X130159500Y-98949873D01*
X130159500Y-111639481D01*
X130139815Y-111706520D01*
X130087011Y-111752275D01*
X130017853Y-111762219D01*
X129954297Y-111733194D01*
X129947819Y-111727162D01*
X129936820Y-111716163D01*
X129903335Y-111654840D01*
X129900501Y-111628482D01*
X129900501Y-111151005D01*
X129873582Y-111015678D01*
X129873581Y-111015677D01*
X129873581Y-111015673D01*
X129829829Y-110910047D01*
X129829828Y-110910044D01*
X129820778Y-110888194D01*
X129820776Y-110888191D01*
X129820776Y-110888190D01*
X129744115Y-110773458D01*
X129744113Y-110773455D01*
X129216545Y-110245887D01*
X129101807Y-110169222D01*
X128974332Y-110116421D01*
X128974322Y-110116418D01*
X128838996Y-110089500D01*
X128838994Y-110089500D01*
X128838993Y-110089500D01*
X127771393Y-110089500D01*
X125784500Y-110089500D01*
X125717461Y-110069815D01*
X125671706Y-110017011D01*
X125660500Y-109965500D01*
X125660500Y-105191006D01*
X125655393Y-105165335D01*
X125655392Y-105165334D01*
X125655392Y-105165330D01*
X125633580Y-105055672D01*
X125633578Y-105055667D01*
X125580777Y-104928192D01*
X125504112Y-104813454D01*
X115996819Y-95306161D01*
X115963334Y-95244838D01*
X115960500Y-95218480D01*
X115960500Y-85206533D01*
X115980185Y-85139494D01*
X116028203Y-85096049D01*
X116073342Y-85073050D01*
X116139574Y-85006817D01*
X116200895Y-84973334D01*
X116227254Y-84970500D01*
X116652346Y-84970500D01*
X116719385Y-84990185D01*
X116765140Y-85042989D01*
X116774819Y-85075102D01*
X116784354Y-85135304D01*
X116841950Y-85248342D01*
X116841952Y-85248344D01*
X116841954Y-85248347D01*
X116931652Y-85338045D01*
X116931654Y-85338046D01*
X116931658Y-85338050D01*
X117044694Y-85395645D01*
X117044698Y-85395647D01*
X117138475Y-85410499D01*
X117138481Y-85410500D01*
X118561518Y-85410499D01*
X118655304Y-85395646D01*
X118694068Y-85375894D01*
X118762736Y-85362999D01*
X118827476Y-85389275D01*
X118838042Y-85398699D01*
X130261689Y-96822345D01*
X130276059Y-96839588D01*
X130281814Y-96847926D01*
X130281817Y-96847930D01*
X130326845Y-96887821D01*
X130332299Y-96892955D01*
X130363457Y-96924113D01*
X130374148Y-96931256D01*
X130387488Y-96941545D01*
X130409145Y-96960732D01*
X130409146Y-96960732D01*
X130409148Y-96960734D01*
X130445851Y-96979997D01*
X130457087Y-96986675D01*
X130478188Y-97000774D01*
X130507391Y-97012870D01*
X130517551Y-97017628D01*
X130559775Y-97039790D01*
X130581797Y-97045217D01*
X130599561Y-97051049D01*
X130605671Y-97053580D01*
X130655016Y-97063394D01*
X130660485Y-97064612D01*
X130696124Y-97073396D01*
X130724941Y-97080499D01*
X130724942Y-97080500D01*
X130724944Y-97080500D01*
X130895058Y-97080500D01*
X130895058Y-97080499D01*
X130959512Y-97064612D01*
X130964977Y-97063395D01*
X131014328Y-97053580D01*
X131020428Y-97051052D01*
X131038202Y-97045217D01*
X131060225Y-97039790D01*
X131102459Y-97017622D01*
X131112601Y-97012872D01*
X131141811Y-97000774D01*
X131162911Y-96986674D01*
X131174153Y-96979994D01*
X131210852Y-96960734D01*
X131232512Y-96941545D01*
X131245840Y-96931263D01*
X131256543Y-96924113D01*
X131287715Y-96892939D01*
X131293133Y-96887838D01*
X131338183Y-96847929D01*
X131343936Y-96839592D01*
X131350639Y-96831587D01*
X131350241Y-96831261D01*
X131354107Y-96826548D01*
X131354113Y-96826543D01*
X131388973Y-96774369D01*
X131389924Y-96772967D01*
X131434818Y-96707930D01*
X131460586Y-96639981D01*
X131461932Y-96636587D01*
X131483580Y-96584328D01*
X131483646Y-96583996D01*
X131489321Y-96564211D01*
X131495140Y-96548872D01*
X131501638Y-96495349D01*
X131503117Y-96486102D01*
X131510499Y-96448994D01*
X131510499Y-96429881D01*
X131511403Y-96414934D01*
X131515645Y-96380000D01*
X131511403Y-96345063D01*
X131510499Y-96330117D01*
X131510499Y-96311007D01*
X131510499Y-96311006D01*
X131503112Y-96273869D01*
X131501638Y-96264650D01*
X131495140Y-96211129D01*
X131489322Y-96195788D01*
X131483647Y-96176008D01*
X131483581Y-96175677D01*
X131483580Y-96175671D01*
X131461939Y-96123427D01*
X131460568Y-96119970D01*
X131434819Y-96052073D01*
X131434818Y-96052070D01*
X131390004Y-95987146D01*
X131388952Y-95985597D01*
X131354113Y-95933456D01*
X131350248Y-95928747D01*
X131350627Y-95928435D01*
X131343940Y-95920412D01*
X131338183Y-95912071D01*
X131293145Y-95872171D01*
X131287707Y-95867051D01*
X122069131Y-86648475D01*
X127439500Y-86648475D01*
X127439500Y-88511517D01*
X127450292Y-88579657D01*
X127454354Y-88605304D01*
X127511950Y-88718342D01*
X127511952Y-88718344D01*
X127511954Y-88718347D01*
X127601652Y-88808045D01*
X127601654Y-88808046D01*
X127601658Y-88808050D01*
X127714674Y-88865635D01*
X127714698Y-88865647D01*
X127808475Y-88880499D01*
X127808481Y-88880500D01*
X129671518Y-88880499D01*
X129765304Y-88865646D01*
X129878342Y-88808050D01*
X129968050Y-88718342D01*
X130025646Y-88605304D01*
X130025646Y-88605302D01*
X130025647Y-88605301D01*
X130040499Y-88511525D01*
X130040500Y-88511519D01*
X130040499Y-88470441D01*
X130060182Y-88403405D01*
X130112985Y-88357649D01*
X130182143Y-88347704D01*
X130245700Y-88376727D01*
X130266073Y-88399317D01*
X130279954Y-88419141D01*
X130440858Y-88580045D01*
X130440861Y-88580047D01*
X130627266Y-88710568D01*
X130833504Y-88806739D01*
X130833509Y-88806740D01*
X130833511Y-88806741D01*
X130886415Y-88820916D01*
X131053308Y-88865635D01*
X131215230Y-88879801D01*
X131279998Y-88885468D01*
X131280000Y-88885468D01*
X131280002Y-88885468D01*
X131336796Y-88880499D01*
X131506692Y-88865635D01*
X131726496Y-88806739D01*
X131932734Y-88710568D01*
X132067035Y-88616530D01*
X134699500Y-88616530D01*
X134699500Y-88823469D01*
X134739868Y-89026412D01*
X134739870Y-89026420D01*
X134819058Y-89217596D01*
X134934024Y-89389657D01*
X135080342Y-89535975D01*
X135080345Y-89535977D01*
X135252402Y-89650941D01*
X135443580Y-89730130D01*
X135646530Y-89770499D01*
X135646534Y-89770500D01*
X135646535Y-89770500D01*
X136853466Y-89770500D01*
X136853467Y-89770499D01*
X137056420Y-89730130D01*
X137247598Y-89650941D01*
X137419655Y-89535977D01*
X137565977Y-89389655D01*
X137680941Y-89217598D01*
X137760130Y-89026420D01*
X137800500Y-88823465D01*
X137800500Y-88616535D01*
X137760130Y-88413580D01*
X137680941Y-88222402D01*
X137565977Y-88050345D01*
X137565975Y-88050342D01*
X137419657Y-87904024D01*
X137273995Y-87806697D01*
X137247598Y-87789059D01*
X137056420Y-87709870D01*
X137056412Y-87709868D01*
X136853469Y-87669500D01*
X136853465Y-87669500D01*
X135646535Y-87669500D01*
X135646530Y-87669500D01*
X135443587Y-87709868D01*
X135443579Y-87709870D01*
X135252403Y-87789058D01*
X135080342Y-87904024D01*
X134934024Y-88050342D01*
X134819058Y-88222403D01*
X134739870Y-88413579D01*
X134739868Y-88413587D01*
X134699500Y-88616530D01*
X132067035Y-88616530D01*
X132119139Y-88580047D01*
X132280047Y-88419139D01*
X132410568Y-88232734D01*
X132506739Y-88026496D01*
X132565635Y-87806692D01*
X132585468Y-87580000D01*
X132565635Y-87353308D01*
X132506739Y-87133504D01*
X132410568Y-86927266D01*
X132280047Y-86740861D01*
X132280045Y-86740858D01*
X132119141Y-86579954D01*
X131932734Y-86449432D01*
X131932732Y-86449431D01*
X131726497Y-86353261D01*
X131726488Y-86353258D01*
X131506697Y-86294366D01*
X131506693Y-86294365D01*
X131506692Y-86294365D01*
X131506691Y-86294364D01*
X131506686Y-86294364D01*
X131280002Y-86274532D01*
X131279998Y-86274532D01*
X131053313Y-86294364D01*
X131053302Y-86294366D01*
X130833511Y-86353258D01*
X130833502Y-86353261D01*
X130627267Y-86449431D01*
X130627265Y-86449432D01*
X130440858Y-86579954D01*
X130279954Y-86740858D01*
X130266074Y-86760682D01*
X130211498Y-86804307D01*
X130141999Y-86811501D01*
X130079644Y-86779979D01*
X130044230Y-86719749D01*
X130040499Y-86689559D01*
X130040499Y-86648482D01*
X130040498Y-86648475D01*
X130025646Y-86554696D01*
X129968050Y-86441658D01*
X129968046Y-86441654D01*
X129968045Y-86441652D01*
X129878347Y-86351954D01*
X129878344Y-86351952D01*
X129878342Y-86351950D01*
X129787234Y-86305528D01*
X129765301Y-86294352D01*
X129671524Y-86279500D01*
X127808482Y-86279500D01*
X127727519Y-86292323D01*
X127714696Y-86294354D01*
X127601658Y-86351950D01*
X127601657Y-86351951D01*
X127601652Y-86351954D01*
X127511954Y-86441652D01*
X127511951Y-86441657D01*
X127511950Y-86441658D01*
X127507989Y-86449432D01*
X127454352Y-86554698D01*
X127439500Y-86648475D01*
X122069131Y-86648475D01*
X120133337Y-84712681D01*
X120099852Y-84651358D01*
X120104836Y-84581666D01*
X120133337Y-84537319D01*
X120432617Y-84238040D01*
X120814114Y-83856543D01*
X120890775Y-83741811D01*
X120910782Y-83693511D01*
X120943578Y-83614332D01*
X120943580Y-83614328D01*
X120960745Y-83528033D01*
X120970500Y-83478995D01*
X120970500Y-81641004D01*
X120970499Y-81641002D01*
X120943581Y-81505677D01*
X120943579Y-81505670D01*
X120937215Y-81490307D01*
X120937213Y-81490301D01*
X120890778Y-81378196D01*
X120890777Y-81378195D01*
X120890775Y-81378189D01*
X120814114Y-81263457D01*
X120814112Y-81263454D01*
X120236818Y-80686160D01*
X120203333Y-80624837D01*
X120200499Y-80598479D01*
X120200499Y-80534500D01*
X120220184Y-80467461D01*
X120272988Y-80421706D01*
X120324499Y-80410500D01*
X123940054Y-80410500D01*
X124007093Y-80430185D01*
X124027735Y-80446819D01*
X126291445Y-82710528D01*
X128554952Y-84974035D01*
X128622435Y-85041518D01*
X128680382Y-85099465D01*
X128827862Y-85198009D01*
X128827875Y-85198016D01*
X128912466Y-85233054D01*
X128991750Y-85265894D01*
X129034351Y-85274368D01*
X129165721Y-85300500D01*
X129165724Y-85300500D01*
X131808693Y-85300500D01*
X131808694Y-85300499D01*
X131982666Y-85265895D01*
X132064606Y-85231953D01*
X132146547Y-85198013D01*
X132275259Y-85112010D01*
X132294036Y-85099464D01*
X134855275Y-82538224D01*
X134916595Y-82504741D01*
X134986287Y-82509725D01*
X135042220Y-82551597D01*
X135066637Y-82617061D01*
X135065181Y-82642733D01*
X135065414Y-82642755D01*
X135044357Y-82869999D01*
X135044357Y-82870000D01*
X135064884Y-83091535D01*
X135064885Y-83091537D01*
X135125769Y-83305523D01*
X135125775Y-83305538D01*
X135224938Y-83504683D01*
X135224943Y-83504691D01*
X135359020Y-83682238D01*
X135523437Y-83832123D01*
X135523439Y-83832125D01*
X135712595Y-83949245D01*
X135712596Y-83949245D01*
X135712599Y-83949247D01*
X135920060Y-84029618D01*
X136138757Y-84070500D01*
X136138759Y-84070500D01*
X136361241Y-84070500D01*
X136361243Y-84070500D01*
X136380067Y-84066981D01*
X136449581Y-84074012D01*
X136490532Y-84101189D01*
X137062798Y-84673455D01*
X137096283Y-84734778D01*
X137091299Y-84804470D01*
X137049427Y-84860403D01*
X136983963Y-84884820D01*
X136915690Y-84869968D01*
X136909840Y-84866563D01*
X136787404Y-84790754D01*
X136787398Y-84790752D01*
X136774032Y-84785574D01*
X136579940Y-84710382D01*
X136361243Y-84669500D01*
X136138757Y-84669500D01*
X135920060Y-84710382D01*
X135788864Y-84761207D01*
X135712601Y-84790752D01*
X135712595Y-84790754D01*
X135523439Y-84907874D01*
X135523437Y-84907876D01*
X135359020Y-85057761D01*
X135224943Y-85235308D01*
X135224938Y-85235316D01*
X135125775Y-85434461D01*
X135125769Y-85434476D01*
X135064885Y-85648462D01*
X135064884Y-85648464D01*
X135044357Y-85869999D01*
X135044357Y-85870000D01*
X135064884Y-86091535D01*
X135064885Y-86091537D01*
X135125769Y-86305523D01*
X135125775Y-86305538D01*
X135224938Y-86504683D01*
X135224943Y-86504691D01*
X135359020Y-86682238D01*
X135523437Y-86832123D01*
X135523439Y-86832125D01*
X135712595Y-86949245D01*
X135712596Y-86949245D01*
X135712599Y-86949247D01*
X135920060Y-87029618D01*
X136138757Y-87070500D01*
X136138759Y-87070500D01*
X136361241Y-87070500D01*
X136361243Y-87070500D01*
X136579940Y-87029618D01*
X136787401Y-86949247D01*
X136976562Y-86832124D01*
X137140981Y-86682236D01*
X137275058Y-86504689D01*
X137374229Y-86305528D01*
X137435115Y-86091536D01*
X137455643Y-85870000D01*
X137435115Y-85648464D01*
X137374229Y-85434472D01*
X137369835Y-85425647D01*
X137275061Y-85235316D01*
X137275059Y-85235313D01*
X137275058Y-85235312D01*
X137275058Y-85235311D01*
X137273352Y-85233052D01*
X137272872Y-85231781D01*
X137272041Y-85230439D01*
X137272303Y-85230276D01*
X137248660Y-85167693D01*
X137263224Y-85099358D01*
X137312421Y-85049744D01*
X137380630Y-85034605D01*
X137446197Y-85058745D01*
X137459987Y-85070644D01*
X143843181Y-91453838D01*
X143876666Y-91515161D01*
X143879500Y-91541519D01*
X143879500Y-97295500D01*
X143859815Y-97362539D01*
X143807011Y-97408294D01*
X143755500Y-97419500D01*
X143248482Y-97419500D01*
X143167519Y-97432323D01*
X143154696Y-97434354D01*
X143041658Y-97491950D01*
X143041657Y-97491951D01*
X143041652Y-97491954D01*
X142951954Y-97581652D01*
X142951951Y-97581657D01*
X142894352Y-97694698D01*
X142879500Y-97788475D01*
X142879500Y-101451517D01*
X142890292Y-101519657D01*
X142894354Y-101545304D01*
X142951950Y-101658342D01*
X142951952Y-101658344D01*
X142951954Y-101658347D01*
X143041652Y-101748045D01*
X143041654Y-101748046D01*
X143041658Y-101748050D01*
X143154694Y-101805645D01*
X143154698Y-101805647D01*
X143248475Y-101820499D01*
X143248481Y-101820500D01*
X145911518Y-101820499D01*
X146005304Y-101805646D01*
X146118342Y-101748050D01*
X146208050Y-101658342D01*
X146265646Y-101545304D01*
X146265646Y-101545302D01*
X146265647Y-101545301D01*
X146280499Y-101451524D01*
X146280500Y-101451519D01*
X146280499Y-99049998D01*
X148894532Y-99049998D01*
X148894532Y-99050001D01*
X148914364Y-99276686D01*
X148914366Y-99276697D01*
X148973258Y-99496488D01*
X148973261Y-99496497D01*
X149069431Y-99702732D01*
X149069432Y-99702734D01*
X149199954Y-99889141D01*
X149360858Y-100050045D01*
X149368366Y-100055302D01*
X149547266Y-100180568D01*
X149753504Y-100276739D01*
X149753509Y-100276740D01*
X149753511Y-100276741D01*
X149806415Y-100290916D01*
X149973308Y-100335635D01*
X150135230Y-100349801D01*
X150199998Y-100355468D01*
X150200000Y-100355468D01*
X150200002Y-100355468D01*
X150256796Y-100350499D01*
X150426692Y-100335635D01*
X150646496Y-100276739D01*
X150852734Y-100180568D01*
X151039139Y-100050047D01*
X151200047Y-99889139D01*
X151213924Y-99869319D01*
X151268498Y-99825694D01*
X151337996Y-99818499D01*
X151400352Y-99850019D01*
X151435768Y-99910248D01*
X151439500Y-99940438D01*
X151439500Y-99981516D01*
X151449649Y-100045596D01*
X151454354Y-100075304D01*
X151511950Y-100188342D01*
X151511952Y-100188344D01*
X151511954Y-100188347D01*
X151601652Y-100278045D01*
X151601654Y-100278046D01*
X151601658Y-100278050D01*
X151714674Y-100335635D01*
X151714698Y-100335647D01*
X151808475Y-100350499D01*
X151808481Y-100350500D01*
X153671518Y-100350499D01*
X153765304Y-100335646D01*
X153878342Y-100278050D01*
X153968050Y-100188342D01*
X154025646Y-100075304D01*
X154025646Y-100075302D01*
X154025647Y-100075301D01*
X154040499Y-99981524D01*
X154040500Y-99981519D01*
X154040499Y-98118482D01*
X154025646Y-98024696D01*
X153968050Y-97911658D01*
X153968046Y-97911654D01*
X153968045Y-97911652D01*
X153878347Y-97821954D01*
X153878344Y-97821952D01*
X153878342Y-97821950D01*
X153765328Y-97764366D01*
X153765301Y-97764352D01*
X153671524Y-97749500D01*
X151808482Y-97749500D01*
X151727519Y-97762323D01*
X151714696Y-97764354D01*
X151601658Y-97821950D01*
X151601657Y-97821951D01*
X151601652Y-97821954D01*
X151511954Y-97911652D01*
X151511951Y-97911657D01*
X151511950Y-97911658D01*
X151507989Y-97919432D01*
X151454352Y-98024698D01*
X151439500Y-98118475D01*
X151439500Y-98159557D01*
X151419815Y-98226596D01*
X151367011Y-98272351D01*
X151297853Y-98282295D01*
X151234297Y-98253270D01*
X151213925Y-98230681D01*
X151210940Y-98226418D01*
X151200047Y-98210861D01*
X151200044Y-98210858D01*
X151200043Y-98210856D01*
X151039141Y-98049954D01*
X150852734Y-97919432D01*
X150852732Y-97919431D01*
X150646497Y-97823261D01*
X150646488Y-97823258D01*
X150426697Y-97764366D01*
X150426693Y-97764365D01*
X150426692Y-97764365D01*
X150426691Y-97764364D01*
X150426686Y-97764364D01*
X150200002Y-97744532D01*
X150199998Y-97744532D01*
X149973313Y-97764364D01*
X149973302Y-97764366D01*
X149753511Y-97823258D01*
X149753502Y-97823261D01*
X149547267Y-97919431D01*
X149547265Y-97919432D01*
X149360858Y-98049954D01*
X149199954Y-98210858D01*
X149069432Y-98397265D01*
X149069431Y-98397267D01*
X148973261Y-98603502D01*
X148973258Y-98603511D01*
X148914366Y-98823302D01*
X148914364Y-98823313D01*
X148894532Y-99049998D01*
X146280499Y-99049998D01*
X146280499Y-97788482D01*
X146265646Y-97694696D01*
X146208050Y-97581658D01*
X146208046Y-97581654D01*
X146208045Y-97581652D01*
X146118347Y-97491954D01*
X146118344Y-97491952D01*
X146118342Y-97491950D01*
X146041517Y-97452805D01*
X146005301Y-97434352D01*
X145911524Y-97419500D01*
X145911519Y-97419500D01*
X145404500Y-97419500D01*
X145337461Y-97399815D01*
X145291706Y-97347011D01*
X145280500Y-97295500D01*
X145280500Y-91131004D01*
X145253581Y-90995677D01*
X145253580Y-90995676D01*
X145253580Y-90995672D01*
X145253578Y-90995667D01*
X145200778Y-90868195D01*
X145200773Y-90868186D01*
X145189147Y-90850787D01*
X145189147Y-90850786D01*
X145189146Y-90850785D01*
X145124114Y-90753457D01*
X145124111Y-90753453D01*
X138510655Y-84139998D01*
X152344532Y-84139998D01*
X152344532Y-84140001D01*
X152364364Y-84366686D01*
X152364366Y-84366697D01*
X152423258Y-84586488D01*
X152423261Y-84586497D01*
X152519431Y-84792732D01*
X152519432Y-84792734D01*
X152649954Y-84979141D01*
X152810858Y-85140045D01*
X152810861Y-85140047D01*
X152997266Y-85270568D01*
X153203504Y-85366739D01*
X153203509Y-85366740D01*
X153203511Y-85366741D01*
X153237675Y-85375895D01*
X153423308Y-85425635D01*
X153585230Y-85439801D01*
X153649998Y-85445468D01*
X153650000Y-85445468D01*
X153650002Y-85445468D01*
X153706796Y-85440499D01*
X153876692Y-85425635D01*
X154096496Y-85366739D01*
X154302734Y-85270568D01*
X154489139Y-85140047D01*
X154650047Y-84979139D01*
X154663924Y-84959319D01*
X154718498Y-84915694D01*
X154787996Y-84908499D01*
X154850352Y-84940019D01*
X154885768Y-85000248D01*
X154889500Y-85030438D01*
X154889500Y-85071516D01*
X154895914Y-85112010D01*
X154904354Y-85165304D01*
X154961950Y-85278342D01*
X154961952Y-85278344D01*
X154961954Y-85278347D01*
X155051652Y-85368045D01*
X155051654Y-85368046D01*
X155051658Y-85368050D01*
X155164674Y-85425635D01*
X155164698Y-85425647D01*
X155258475Y-85440499D01*
X155258481Y-85440500D01*
X157121518Y-85440499D01*
X157215304Y-85425646D01*
X157328342Y-85368050D01*
X157418050Y-85278342D01*
X157475646Y-85165304D01*
X157475646Y-85165302D01*
X157475647Y-85165301D01*
X157489932Y-85075103D01*
X157490500Y-85071519D01*
X157490499Y-83208482D01*
X157475646Y-83114696D01*
X157418050Y-83001658D01*
X157418046Y-83001654D01*
X157418045Y-83001652D01*
X157328347Y-82911954D01*
X157328344Y-82911952D01*
X157328342Y-82911950D01*
X157226807Y-82860215D01*
X157215301Y-82854352D01*
X157121524Y-82839500D01*
X155258482Y-82839500D01*
X155177519Y-82852323D01*
X155164696Y-82854354D01*
X155051658Y-82911950D01*
X155051657Y-82911951D01*
X155051652Y-82911954D01*
X154961954Y-83001652D01*
X154961951Y-83001657D01*
X154961950Y-83001658D01*
X154957989Y-83009432D01*
X154904352Y-83114698D01*
X154889500Y-83208475D01*
X154889500Y-83249557D01*
X154869815Y-83316596D01*
X154817011Y-83362351D01*
X154747853Y-83372295D01*
X154684297Y-83343270D01*
X154663925Y-83320681D01*
X154661065Y-83316596D01*
X154650047Y-83300861D01*
X154650044Y-83300858D01*
X154650043Y-83300856D01*
X154489141Y-83139954D01*
X154302734Y-83009432D01*
X154302732Y-83009431D01*
X154096497Y-82913261D01*
X154096488Y-82913258D01*
X153876697Y-82854366D01*
X153876693Y-82854365D01*
X153876692Y-82854365D01*
X153876691Y-82854364D01*
X153876686Y-82854364D01*
X153650002Y-82834532D01*
X153649998Y-82834532D01*
X153423313Y-82854364D01*
X153423302Y-82854366D01*
X153203511Y-82913258D01*
X153203502Y-82913261D01*
X152997267Y-83009431D01*
X152997265Y-83009432D01*
X152810858Y-83139954D01*
X152649954Y-83300858D01*
X152519432Y-83487265D01*
X152519431Y-83487267D01*
X152423261Y-83693502D01*
X152423258Y-83693511D01*
X152364366Y-83913302D01*
X152364364Y-83913313D01*
X152344532Y-84139998D01*
X138510655Y-84139998D01*
X137478571Y-83107914D01*
X137445086Y-83046591D01*
X137442781Y-83008798D01*
X137455643Y-82870000D01*
X137452356Y-82834532D01*
X137435115Y-82648464D01*
X137435114Y-82648462D01*
X137434161Y-82645114D01*
X137374229Y-82434472D01*
X137374224Y-82434461D01*
X137275061Y-82235316D01*
X137275056Y-82235308D01*
X137140979Y-82057761D01*
X136976562Y-81907876D01*
X136976560Y-81907874D01*
X136787404Y-81790754D01*
X136787398Y-81790752D01*
X136579940Y-81710382D01*
X136361243Y-81669500D01*
X136138757Y-81669500D01*
X136022256Y-81691278D01*
X135952741Y-81684247D01*
X135898062Y-81640749D01*
X135875580Y-81574595D01*
X135892433Y-81506788D01*
X135911786Y-81481712D01*
X136287436Y-81106062D01*
X136348757Y-81072579D01*
X136356593Y-81071368D01*
X136361236Y-81070500D01*
X136361243Y-81070500D01*
X136579940Y-81029618D01*
X136787401Y-80949247D01*
X136976562Y-80832124D01*
X137140981Y-80682236D01*
X137275058Y-80504689D01*
X137374229Y-80305528D01*
X137435115Y-80091536D01*
X137455643Y-79870000D01*
X137455195Y-79865170D01*
X137435115Y-79648464D01*
X137435114Y-79648462D01*
X137434340Y-79645743D01*
X137374229Y-79434472D01*
X137374224Y-79434461D01*
X137275061Y-79235316D01*
X137275056Y-79235308D01*
X137140979Y-79057761D01*
X136976562Y-78907876D01*
X136976560Y-78907874D01*
X136787404Y-78790754D01*
X136787398Y-78790752D01*
X136579940Y-78710382D01*
X136361243Y-78669500D01*
X136138757Y-78669500D01*
X135920060Y-78710382D01*
X135788864Y-78761207D01*
X135712601Y-78790752D01*
X135712595Y-78790754D01*
X135523439Y-78907874D01*
X135523437Y-78907876D01*
X135359020Y-79057761D01*
X135224943Y-79235308D01*
X135224938Y-79235316D01*
X135125775Y-79434461D01*
X135125769Y-79434476D01*
X135064885Y-79648462D01*
X135064885Y-79648464D01*
X135055417Y-79750633D01*
X135029630Y-79815570D01*
X135019627Y-79826872D01*
X131383319Y-83463181D01*
X131321996Y-83496666D01*
X131295638Y-83499500D01*
X131197345Y-83499500D01*
X131130306Y-83479815D01*
X131084551Y-83427011D01*
X131074607Y-83357853D01*
X131097026Y-83302615D01*
X131098300Y-83300861D01*
X131112287Y-83281610D01*
X131205220Y-83099219D01*
X131268477Y-82904534D01*
X131300500Y-82702352D01*
X131300500Y-82497648D01*
X131288229Y-82420175D01*
X131268477Y-82295465D01*
X131226086Y-82165000D01*
X131205220Y-82100781D01*
X131205218Y-82100778D01*
X131205218Y-82100776D01*
X131164833Y-82021517D01*
X131112287Y-81918390D01*
X131104556Y-81907749D01*
X130991971Y-81752786D01*
X130847213Y-81608028D01*
X130681613Y-81487715D01*
X130681612Y-81487714D01*
X130681610Y-81487713D01*
X130588987Y-81440519D01*
X130499223Y-81394781D01*
X130304534Y-81331522D01*
X130129995Y-81303878D01*
X130102352Y-81299500D01*
X129897648Y-81299500D01*
X129873329Y-81303351D01*
X129695465Y-81331522D01*
X129500776Y-81394781D01*
X129318386Y-81487715D01*
X129152786Y-81608028D01*
X129008028Y-81752786D01*
X128887715Y-81918386D01*
X128794781Y-82100776D01*
X128731523Y-82295463D01*
X128727461Y-82321110D01*
X128697530Y-82384244D01*
X128638218Y-82421174D01*
X128568356Y-82420175D01*
X128517307Y-82389391D01*
X124938451Y-78810535D01*
X124938446Y-78810531D01*
X124879377Y-78771064D01*
X124879376Y-78771063D01*
X124790960Y-78711985D01*
X124790958Y-78711984D01*
X124709023Y-78678046D01*
X124709022Y-78678046D01*
X124627082Y-78644105D01*
X124627074Y-78644103D01*
X124453112Y-78609500D01*
X124453108Y-78609500D01*
X124453107Y-78609500D01*
X113551177Y-78609500D01*
X113526986Y-78607117D01*
X113511141Y-78603965D01*
X113488693Y-78599500D01*
X113488692Y-78599500D01*
X113311308Y-78599500D01*
X113311307Y-78599500D01*
X113288858Y-78603965D01*
X113273013Y-78607117D01*
X113248823Y-78609500D01*
X112288795Y-78609500D01*
X112221756Y-78589815D01*
X112178311Y-78541796D01*
X112176412Y-78538071D01*
X112168050Y-78521658D01*
X112168047Y-78521655D01*
X112168045Y-78521652D01*
X112078347Y-78431954D01*
X112078344Y-78431952D01*
X112078342Y-78431950D01*
X112001517Y-78392805D01*
X111965301Y-78374352D01*
X111871524Y-78359500D01*
X110448482Y-78359500D01*
X110367519Y-78372323D01*
X110354696Y-78374354D01*
X110241658Y-78431950D01*
X110241657Y-78431951D01*
X110241652Y-78431954D01*
X110151954Y-78521652D01*
X110151951Y-78521657D01*
X110151950Y-78521658D01*
X110141689Y-78541796D01*
X110094352Y-78634698D01*
X110079500Y-78728475D01*
X104745326Y-78728475D01*
X105280308Y-78031376D01*
X105294654Y-78015679D01*
X106704667Y-76716802D01*
X106711212Y-76711182D01*
X107003640Y-76477239D01*
X107009899Y-76472549D01*
X108515963Y-75416922D01*
X108518273Y-75415342D01*
X108662173Y-75319409D01*
X108670618Y-75314256D01*
X108681008Y-75308475D01*
X114339500Y-75308475D01*
X114339500Y-77171517D01*
X114342669Y-77191524D01*
X114354354Y-77265304D01*
X114411950Y-77378342D01*
X114411952Y-77378344D01*
X114411954Y-77378347D01*
X114501652Y-77468045D01*
X114501654Y-77468046D01*
X114501658Y-77468050D01*
X114614674Y-77525635D01*
X114614698Y-77525647D01*
X114708475Y-77540499D01*
X114708481Y-77540500D01*
X116571518Y-77540499D01*
X116665304Y-77525646D01*
X116778342Y-77468050D01*
X116868050Y-77378342D01*
X116925646Y-77265304D01*
X116925646Y-77265302D01*
X116925647Y-77265301D01*
X116940499Y-77171525D01*
X116940500Y-77171519D01*
X116940499Y-77130441D01*
X116960182Y-77063405D01*
X117012985Y-77017649D01*
X117082143Y-77007704D01*
X117145700Y-77036727D01*
X117166073Y-77059317D01*
X117179954Y-77079141D01*
X117340858Y-77240045D01*
X117340861Y-77240047D01*
X117527266Y-77370568D01*
X117733504Y-77466739D01*
X117733509Y-77466740D01*
X117733511Y-77466741D01*
X117786415Y-77480916D01*
X117953308Y-77525635D01*
X118115230Y-77539801D01*
X118179998Y-77545468D01*
X118180000Y-77545468D01*
X118180002Y-77545468D01*
X118236796Y-77540499D01*
X118406692Y-77525635D01*
X118626496Y-77466739D01*
X118832734Y-77370568D01*
X119019139Y-77240047D01*
X119180047Y-77079139D01*
X119310568Y-76892734D01*
X119406739Y-76686496D01*
X119465635Y-76466692D01*
X119485468Y-76240000D01*
X119465635Y-76013308D01*
X119406739Y-75793504D01*
X119310568Y-75587266D01*
X119180047Y-75400861D01*
X119180045Y-75400858D01*
X119019141Y-75239954D01*
X118832734Y-75109432D01*
X118832732Y-75109431D01*
X118626497Y-75013261D01*
X118626488Y-75013258D01*
X118406697Y-74954366D01*
X118406693Y-74954365D01*
X118406692Y-74954365D01*
X118406691Y-74954364D01*
X118406686Y-74954364D01*
X118180002Y-74934532D01*
X118179998Y-74934532D01*
X117953313Y-74954364D01*
X117953302Y-74954366D01*
X117733511Y-75013258D01*
X117733502Y-75013261D01*
X117527267Y-75109431D01*
X117527265Y-75109432D01*
X117340858Y-75239954D01*
X117179954Y-75400858D01*
X117166074Y-75420682D01*
X117111498Y-75464307D01*
X117041999Y-75471501D01*
X116979644Y-75439979D01*
X116944230Y-75379749D01*
X116940499Y-75349559D01*
X116940499Y-75308482D01*
X116934339Y-75269586D01*
X116925646Y-75214696D01*
X116868050Y-75101658D01*
X116868046Y-75101654D01*
X116868045Y-75101652D01*
X116778347Y-75011954D01*
X116778344Y-75011952D01*
X116778342Y-75011950D01*
X116675404Y-74959500D01*
X116665301Y-74954352D01*
X116571524Y-74939500D01*
X114708482Y-74939500D01*
X114627519Y-74952323D01*
X114614696Y-74954354D01*
X114501658Y-75011950D01*
X114501657Y-75011951D01*
X114501652Y-75011954D01*
X114411954Y-75101652D01*
X114411951Y-75101657D01*
X114411950Y-75101658D01*
X114392751Y-75139337D01*
X114354352Y-75214698D01*
X114339500Y-75308475D01*
X108681008Y-75308475D01*
X110023935Y-74561242D01*
X110028735Y-74558708D01*
X110087703Y-74529223D01*
X110094745Y-74525975D01*
X111606535Y-73885263D01*
X111616271Y-73881611D01*
X112231817Y-73679787D01*
X112241688Y-73676998D01*
X114040710Y-73248654D01*
X114050372Y-73246757D01*
X115601169Y-73005967D01*
X115620194Y-73004500D01*
X118041882Y-73004500D01*
X118060096Y-73005845D01*
G37*
%TD.AperFunction*%
%TD*%
M02*
